<svg id="svg" xmlns="http://www.w3.org/2000/svg" xmlns:xlink="http://www.w3.org/1999/xlink" width="400" height="473.06501547987614" viewBox="0, 0, 400,473.06501547987614" version="1.1"><g id="svgg"><path id="path0" d="M59.697 44.713 C 59.300 44.980,59.215 49.839,59.297 67.626 L 59.400 90.200 64.800 90.200 L 70.200 90.200 70.421 81.800 C 70.681 71.881,70.108 73.200,74.154 73.200 L 77.509 73.200 81.777 81.800 L 86.045 90.400 91.723 90.394 C 98.818 90.386,98.746 90.430,97.062 87.177 C 88.257 70.174,88.905 72.179,91.580 70.214 C 101.262 63.107,98.901 49.897,87.137 45.350 C 85.207 44.604,60.704 44.035,59.697 44.713 M105.384 44.900 C 105.278 45.175,105.239 55.480,105.296 67.800 L 105.400 90.200 122.600 90.200 L 139.800 90.200 139.800 85.600 L 139.800 81.000 128.420 80.894 C 115.265 80.771,116.415 81.249,116.406 75.900 L 116.400 72.000 123.967 72.000 C 133.590 72.000,132.800 72.408,132.800 67.437 C 132.800 62.080,133.338 62.400,124.328 62.400 C 115.613 62.400,116.273 62.804,116.481 57.595 L 116.600 54.600 127.915 54.400 C 137.386 54.233,139.292 54.102,139.609 53.600 C 140.301 52.504,140.096 44.923,139.367 44.643 C 138.023 44.127,105.585 44.373,105.384 44.900 M148.996 44.867 C 148.884 45.160,148.839 55.480,148.896 67.800 L 149.000 90.200 159.600 90.319 C 168.515 90.419,170.613 90.331,172.800 89.765 C 195.951 83.766,196.646 52.860,173.800 45.333 C 171.064 44.431,149.319 44.023,148.996 44.867 M212.700 44.676 C 211.674 44.944,211.608 89.764,212.633 90.157 C 213.558 90.512,222.514 90.442,223.092 90.075 C 223.451 89.847,223.613 87.394,223.692 80.981 L 223.800 72.200 232.800 72.200 L 241.800 72.200 241.908 80.981 C 241.987 87.394,242.149 89.847,242.508 90.075 C 243.086 90.442,252.042 90.512,252.967 90.157 C 253.534 89.940,253.600 87.576,253.600 67.571 C 253.600 41.555,254.296 44.397,247.926 44.405 C 241.377 44.414,242.000 43.514,242.000 52.967 C 242.000 58.713,241.862 61.178,241.520 61.520 C 241.013 62.027,225.491 62.240,224.233 61.757 C 223.684 61.547,223.600 60.428,223.600 53.371 C 223.600 45.730,223.552 45.203,222.826 44.814 C 222.078 44.413,214.120 44.305,212.700 44.676 M276.000 44.661 C 275.670 44.754,274.985 45.948,274.477 47.315 C 273.139 50.916,272.395 52.839,271.814 54.200 C 271.281 55.447,270.699 56.933,269.153 61.000 C 268.651 62.320,268.096 63.571,267.920 63.780 C 267.744 63.989,267.600 64.412,267.600 64.720 C 267.600 65.027,267.340 65.846,267.022 66.540 C 266.704 67.233,265.789 69.510,264.989 71.600 C 264.189 73.690,263.279 75.967,262.967 76.660 C 262.655 77.354,262.400 78.104,262.400 78.328 C 262.400 78.552,262.144 79.245,261.832 79.868 C 261.519 80.490,260.991 81.720,260.659 82.600 C 260.326 83.480,259.584 85.420,259.010 86.911 C 258.436 88.402,258.074 89.797,258.207 90.011 C 258.582 90.618,269.079 90.515,269.473 89.900 C 269.867 89.285,270.709 87.072,271.261 85.200 C 271.489 84.430,271.838 83.629,272.037 83.420 C 272.237 83.211,272.400 82.650,272.400 82.174 C 272.400 81.698,272.773 80.834,273.229 80.254 L 274.058 79.200 281.455 79.200 C 289.636 79.200,290.129 79.321,290.798 81.497 C 291.053 82.324,291.363 83.270,291.488 83.600 C 291.613 83.930,292.198 85.550,292.789 87.200 L 293.862 90.200 299.600 90.311 C 305.962 90.435,306.402 90.289,305.446 88.372 C 305.091 87.660,304.800 86.907,304.800 86.699 C 304.800 86.491,304.546 85.754,304.236 85.060 C 303.700 83.864,302.912 81.851,300.573 75.700 C 300.009 74.215,299.268 72.280,298.928 71.400 C 298.588 70.520,298.039 69.080,297.707 68.200 C 297.375 67.320,296.955 66.240,296.774 65.800 C 295.985 63.893,294.252 59.404,292.217 54.000 C 291.430 51.910,290.609 49.887,290.393 49.505 C 290.177 49.123,290.000 48.611,290.000 48.366 C 290.000 47.706,288.707 45.045,288.221 44.706 C 287.785 44.402,277.063 44.363,276.000 44.661 M308.486 44.738 C 308.106 44.980,308.002 46.247,308.086 49.632 L 308.200 54.200 315.400 54.423 C 319.360 54.546,322.643 54.681,322.696 54.723 C 322.749 54.766,322.839 62.765,322.896 72.500 L 323.000 90.200 328.400 90.200 L 333.800 90.200 333.904 72.836 C 333.976 60.828,334.146 55.306,334.453 54.936 C 334.791 54.529,336.424 54.400,341.216 54.400 C 349.467 54.400,348.800 54.840,348.800 49.404 C 348.800 45.064,348.766 44.884,347.900 44.652 C 346.527 44.284,309.073 44.366,308.486 44.738 M83.877 55.041 C 86.778 57.187,86.417 61.801,83.217 63.484 C 81.562 64.354,81.042 64.413,76.017 64.311 L 70.600 64.200 70.486 59.657 C 70.335 53.594,69.999 53.880,77.061 54.063 C 82.060 54.192,82.891 54.311,83.877 55.041 M171.140 55.068 C 180.881 59.523,181.346 74.653,171.889 79.454 C 170.128 80.348,169.594 80.416,165.089 80.312 L 160.200 80.200 160.094 67.804 C 160.036 60.986,160.075 55.181,160.182 54.904 C 160.495 54.088,169.284 54.219,171.140 55.068 M283.749 61.019 C 284.132 62.109,284.599 63.540,284.788 64.200 C 284.977 64.860,285.506 66.387,285.965 67.594 C 286.424 68.801,286.800 69.926,286.800 70.094 C 286.800 70.522,277.296 70.479,277.031 70.050 C 276.912 69.857,277.450 67.922,278.227 65.750 C 279.004 63.577,279.923 60.990,280.269 60.000 C 280.615 59.010,281.070 57.750,281.281 57.200 L 281.663 56.200 282.358 57.619 C 282.740 58.400,283.366 59.930,283.749 61.019 M69.800 103.565 C 56.717 108.032,51.711 121.435,59.019 132.429 C 65.465 142.124,79.824 144.063,88.500 136.408 C 90.947 134.249,90.905 133.605,88.147 131.071 C 85.038 128.213,85.041 128.214,83.522 129.539 C 76.188 135.937,65.640 131.469,65.609 121.951 C 65.577 112.240,76.004 107.714,83.314 114.266 C 85.032 115.806,84.969 115.821,88.140 113.076 C 91.052 110.554,91.240 109.892,89.540 108.134 C 85.165 103.610,75.930 101.472,69.800 103.565 M96.583 103.300 C 96.478 103.575,96.438 112.170,96.496 122.400 L 96.600 141.000 110.200 141.112 C 127.108 141.250,125.600 141.607,125.600 137.472 C 125.600 132.942,126.207 133.200,115.528 133.200 L 106.415 133.200 106.185 132.283 C 106.059 131.779,106.010 130.294,106.078 128.983 L 106.200 126.600 112.000 126.503 C 120.242 126.365,119.654 126.679,119.515 122.489 L 119.400 119.000 113.600 118.903 C 105.434 118.766,106.000 119.052,106.000 115.069 C 106.000 110.142,105.403 110.426,116.000 110.304 L 125.000 110.200 125.115 106.500 L 125.230 102.800 111.002 102.800 C 99.989 102.800,96.732 102.913,96.583 103.300 M133.067 103.067 C 132.920 103.213,132.800 111.667,132.800 121.853 C 132.800 143.471,132.178 141.294,138.301 141.114 L 142.200 141.000 142.400 134.400 L 142.600 127.800 145.438 127.684 C 148.864 127.543,148.390 127.057,152.208 134.629 C 153.850 137.885,155.419 140.692,155.696 140.868 C 156.431 141.335,165.106 141.276,165.399 140.802 C 165.617 140.449,164.335 137.849,159.726 129.296 C 158.440 126.908,158.356 125.200,159.526 125.200 C 161.705 125.200,164.800 119.324,164.800 115.188 C 164.800 109.236,162.312 105.810,156.251 103.413 C 154.639 102.775,133.671 102.462,133.067 103.067 M168.271 103.062 C 167.788 103.545,167.968 109.808,168.480 110.320 C 168.804 110.644,170.658 110.800,174.200 110.800 C 177.742 110.800,179.596 110.956,179.920 111.280 C 180.276 111.636,180.400 115.518,180.400 126.272 L 180.400 140.785 181.300 141.010 C 181.795 141.134,183.820 141.182,185.800 141.118 L 189.400 141.000 189.505 126.435 C 189.577 116.498,189.751 111.700,190.054 111.335 C 190.384 110.938,191.862 110.800,195.800 110.800 C 202.210 110.800,202.076 110.897,201.917 106.339 L 201.800 103.000 185.171 102.896 C 176.025 102.838,168.420 102.913,168.271 103.062 M206.896 121.887 L 207.000 141.000 210.800 141.117 C 212.890 141.182,215.007 141.133,215.504 141.009 L 216.408 140.783 216.304 121.891 L 216.200 103.000 211.496 102.887 L 206.792 102.775 206.896 121.887 M224.496 121.895 L 224.600 141.000 228.400 141.117 C 234.523 141.306,234.000 142.009,234.000 133.592 L 234.000 126.400 240.300 126.394 C 248.022 126.386,247.664 126.586,247.517 122.366 L 247.400 119.000 240.800 118.800 L 234.200 118.600 234.081 115.401 C 234.016 113.642,234.065 111.797,234.189 111.301 L 234.415 110.400 243.508 110.394 C 254.337 110.387,253.667 110.656,253.517 106.366 L 253.400 103.000 238.896 102.895 L 224.392 102.790 224.496 121.895 M259.879 103.054 C 259.354 103.579,259.550 140.190,260.080 140.720 C 260.788 141.428,268.160 141.372,268.755 140.654 C 269.081 140.261,269.179 134.921,269.104 121.554 L 269.000 103.000 264.579 102.888 C 262.147 102.826,260.032 102.901,259.879 103.054 M277.383 103.300 C 277.278 103.575,277.238 112.170,277.296 122.400 L 277.400 141.000 291.000 141.112 C 307.908 141.250,306.400 141.607,306.400 137.472 C 306.400 132.942,307.007 133.200,296.328 133.200 L 287.215 133.200 286.985 132.283 C 286.859 131.779,286.810 130.294,286.878 128.983 L 287.000 126.600 292.800 126.503 C 301.042 126.365,300.454 126.679,300.315 122.489 L 300.200 119.000 294.400 118.903 C 286.234 118.766,286.800 119.052,286.800 115.069 C 286.800 110.142,286.203 110.426,296.800 110.304 L 305.800 110.200 305.915 106.500 L 306.030 102.800 291.802 102.800 C 280.789 102.800,277.532 102.913,277.383 103.300 M313.696 121.900 L 313.800 141.000 323.400 141.000 C 333.662 141.000,334.290 140.905,338.354 138.736 C 351.197 131.883,351.452 112.859,338.800 105.491 C 334.499 102.987,333.566 102.827,323.096 102.813 L 313.592 102.800 313.696 121.900 M152.969 111.066 C 156.019 112.520,156.266 117.429,153.380 119.212 C 152.217 119.931,151.511 120.013,147.332 119.913 L 142.600 119.800 142.483 116.000 C 142.300 110.075,142.027 110.400,147.194 110.400 C 150.453 110.400,151.930 110.570,152.969 111.066 M331.424 111.248 C 339.958 113.397,340.684 128.825,332.415 132.308 C 330.378 133.166,324.028 133.489,323.565 132.758 C 323.159 132.115,323.065 111.469,323.467 111.067 C 323.899 110.634,329.494 110.762,331.424 111.248 M62.000 159.000 L 62.000 160.800 200.000 160.800 L 338.000 160.800 338.000 159.000 L 338.000 157.200 200.000 157.200 L 62.000 157.200 62.000 159.000 M79.921 221.258 C 73.004 223.670,71.413 231.979,77.200 235.465 C 78.775 236.414,83.145 237.589,85.226 237.622 C 87.413 237.658,90.143 238.940,90.572 240.133 C 91.894 243.815,85.797 245.427,80.600 242.770 C 76.281 240.561,76.261 240.562,74.573 243.013 C 72.765 245.638,72.882 245.990,76.069 247.513 C 88.342 253.380,101.867 246.618,96.939 237.080 C 95.431 234.162,93.286 233.269,83.897 231.647 C 80.601 231.078,79.417 229.063,81.326 227.270 C 83.026 225.672,89.720 226.293,92.031 228.262 C 93.342 229.378,97.180 225.857,96.523 224.142 C 95.459 221.370,84.873 219.531,79.921 221.258 M102.982 220.902 C 102.876 221.178,102.837 227.793,102.895 235.602 L 103.000 249.800 105.588 249.921 C 110.170 250.136,110.000 250.333,110.000 244.835 C 110.000 239.270,109.693 239.600,114.871 239.600 C 116.992 239.600,119.383 239.337,120.678 238.960 C 129.302 236.453,129.445 224.436,120.892 221.072 C 118.688 220.205,103.306 220.059,102.982 220.902 M132.585 220.896 C 132.477 221.175,132.437 227.793,132.495 235.602 L 132.600 249.800 143.600 249.800 L 154.600 249.800 154.600 247.000 L 154.600 244.200 147.200 244.000 L 139.800 243.800 139.800 240.800 L 139.800 237.800 144.800 237.600 L 149.800 237.400 149.925 235.427 C 150.170 231.562,150.274 231.640,144.695 231.512 L 139.800 231.400 139.800 229.000 L 139.800 226.600 147.095 226.491 C 155.414 226.367,154.979 226.590,154.725 222.573 L 154.600 220.600 143.690 220.494 C 135.155 220.410,132.737 220.498,132.585 220.896 M169.934 221.213 C 159.930 224.452,156.293 235.826,162.565 244.261 C 167.536 250.948,179.175 251.680,184.934 245.669 L 186.042 244.512 184.990 243.261 C 184.411 242.573,183.398 241.626,182.740 241.157 L 181.543 240.305 180.471 241.315 C 175.038 246.438,167.000 242.799,167.000 235.216 C 167.000 227.507,175.637 223.643,180.562 229.148 C 180.981 229.617,181.537 230.000,181.798 230.000 C 182.696 230.000,186.100 226.437,185.843 225.767 C 185.709 225.419,185.600 225.075,185.600 225.001 C 185.600 224.928,184.744 224.240,183.698 223.472 C 179.686 220.527,174.623 219.696,169.934 221.213 M190.895 235.084 L 191.000 249.800 193.383 249.922 C 194.694 249.990,196.181 249.941,196.688 249.814 L 197.610 249.582 197.505 235.091 L 197.400 220.600 194.095 220.484 L 190.790 220.367 190.895 235.084 M211.586 222.233 C 211.154 223.241,210.794 224.186,210.786 224.333 C 210.779 224.480,210.425 225.320,210.000 226.200 C 209.575 227.080,209.221 228.004,209.214 228.254 C 209.206 228.504,208.931 229.224,208.602 229.854 C 208.274 230.484,208.004 231.279,208.002 231.620 C 208.001 231.961,207.856 232.411,207.680 232.620 C 207.365 232.994,206.327 235.616,203.768 242.500 C 203.421 243.435,202.881 244.710,202.568 245.332 C 202.256 245.955,201.999 246.675,201.998 246.932 C 201.996 247.190,201.743 247.882,201.436 248.472 C 200.724 249.836,201.085 250.002,204.733 249.994 C 208.125 249.986,208.067 250.035,209.464 246.000 L 210.642 242.600 215.765 242.488 C 221.649 242.359,221.642 242.356,222.571 245.505 C 223.816 249.726,223.882 249.783,227.636 249.917 C 231.381 250.051,231.814 249.835,230.989 248.245 C 230.665 247.620,230.400 246.939,230.400 246.732 C 230.400 246.525,230.063 245.601,229.650 244.678 C 229.238 243.755,228.225 241.200,227.398 239.000 C 226.571 236.800,225.545 234.100,225.117 233.000 C 224.690 231.900,224.187 230.550,224.000 230.000 C 223.813 229.450,223.273 228.010,222.800 226.800 C 222.327 225.590,221.780 224.083,221.584 223.451 C 220.700 220.600,220.346 220.400,216.177 220.400 L 212.372 220.400 211.586 222.233 M235.388 220.886 C 235.279 221.171,235.237 227.793,235.295 235.602 L 235.400 249.800 245.200 249.913 C 257.658 250.056,256.866 250.264,256.718 246.888 L 256.600 244.200 249.600 243.976 C 245.750 243.853,242.558 243.718,242.506 243.676 C 242.455 243.634,242.365 238.425,242.306 232.100 L 242.200 220.600 238.894 220.484 C 236.469 220.398,235.534 220.506,235.388 220.886 M262.582 220.902 C 262.476 221.178,262.437 227.793,262.495 235.602 L 262.600 249.800 264.983 249.922 C 266.294 249.990,267.779 249.941,268.283 249.815 L 269.200 249.585 269.200 235.235 C 269.200 222.519,269.128 220.858,268.567 220.643 C 267.355 220.178,262.784 220.376,262.582 220.902 M280.445 221.223 C 276.201 222.730,274.000 225.541,274.000 229.453 C 274.000 234.151,277.302 236.555,285.161 237.582 C 288.671 238.040,290.721 238.945,291.029 240.174 C 292.032 244.168,286.162 245.356,280.044 242.398 C 276.308 240.591,276.483 240.569,274.801 243.060 C 273.228 245.391,273.345 245.877,275.800 247.196 C 287.606 253.541,301.583 247.311,297.445 237.548 C 296.127 234.439,289.567 231.600,283.701 231.600 C 282.482 231.600,280.800 230.076,280.800 228.971 C 280.800 226.081,286.436 225.324,291.000 227.600 C 294.093 229.143,294.005 229.159,295.710 226.712 C 297.390 224.302,297.220 223.810,294.233 222.441 C 289.561 220.298,284.348 219.838,280.445 221.223 M300.968 220.939 C 300.852 221.242,300.812 222.549,300.878 223.845 L 301.000 226.200 305.400 226.400 L 309.800 226.600 309.906 238.094 L 310.012 249.588 310.918 249.815 C 311.417 249.940,312.989 249.988,314.412 249.921 L 317.000 249.800 317.200 238.200 L 317.400 226.600 322.000 226.400 L 326.600 226.200 326.600 223.400 L 326.600 220.600 313.890 220.494 C 303.398 220.407,301.142 220.485,300.968 220.939 M118.878 227.475 C 122.227 230.684,119.566 234.093,113.852 233.914 L 110.200 233.800 110.082 230.635 C 109.918 226.231,109.759 226.400,114.066 226.400 C 117.526 226.400,117.826 226.467,118.878 227.475 M218.385 233.156 C 219.595 236.746,219.348 237.200,216.187 237.200 C 213.225 237.200,212.439 236.517,213.360 234.741 C 213.644 234.194,213.993 233.280,214.137 232.710 C 214.280 232.141,214.773 230.803,215.232 229.737 L 216.068 227.800 216.803 229.222 C 217.208 230.004,217.920 231.774,218.385 233.156 M62.159 309.761 C 62.041 310.071,62.001 310.926,62.072 311.662 L 62.200 313.000 200.000 313.000 L 337.800 313.000 337.800 311.200 L 337.800 309.400 200.088 309.299 C 82.060 309.213,62.344 309.279,62.159 309.761 M242.600 365.811 C 241.720 366.101,240.421 366.352,239.714 366.369 C 237.917 366.412,237.600 367.260,237.600 372.020 C 237.600 376.059,237.592 376.091,236.700 375.819 C 233.826 374.945,232.329 374.747,230.000 374.932 C 213.144 376.275,213.905 401.050,230.800 400.985 C 233.599 400.975,234.912 400.794,235.784 400.299 C 236.840 399.700,237.039 399.693,237.633 400.230 C 238.144 400.693,239.124 400.806,241.850 400.716 L 245.400 400.600 245.504 383.226 C 245.586 369.593,245.500 365.784,245.104 365.532 C 244.511 365.156,244.630 365.142,242.600 365.811 M158.667 367.067 C 158.520 367.213,158.400 374.870,158.400 384.081 L 158.400 400.828 162.500 400.714 L 166.600 400.600 166.800 394.800 L 167.000 389.000 170.134 389.000 L 173.268 389.000 176.044 394.372 C 179.678 401.401,178.925 400.800,184.092 400.800 L 188.487 400.800 188.233 399.789 C 188.094 399.233,187.444 397.908,186.790 396.845 C 186.135 395.782,185.600 394.811,185.600 394.689 C 185.600 394.566,184.790 393.096,183.800 391.422 C 181.587 387.678,181.586 387.607,183.775 385.947 C 190.918 380.529,188.388 369.736,179.415 367.346 C 177.297 366.782,159.195 366.538,158.667 367.067 M257.880 367.053 C 257.726 367.207,257.600 374.863,257.600 384.067 L 257.600 400.800 261.800 400.800 L 266.000 400.800 266.000 394.833 C 266.000 386.839,265.264 387.600,272.996 387.600 C 280.726 387.600,279.987 386.807,279.995 395.100 L 280.000 400.800 284.204 400.800 L 288.409 400.800 288.304 383.900 L 288.200 367.000 284.200 367.000 L 280.200 367.000 280.000 373.400 L 279.800 379.800 273.800 379.915 C 265.206 380.079,266.041 380.780,265.910 373.295 L 265.800 367.000 261.980 366.886 C 259.879 366.824,258.034 366.899,257.880 367.053 M326.416 367.655 C 322.843 368.248,322.400 368.727,322.400 372.002 C 322.400 375.097,322.434 375.065,319.000 375.293 L 317.400 375.400 317.282 378.303 C 317.151 381.551,317.556 382.000,320.618 382.000 C 322.322 382.000,322.331 382.036,322.495 389.600 C 322.698 398.960,324.406 401.000,332.039 401.000 C 337.330 401.000,337.600 400.824,337.600 397.378 C 337.600 394.516,337.481 394.412,334.301 394.484 C 331.047 394.557,330.800 394.070,330.800 387.580 L 330.800 382.085 334.017 381.939 C 337.860 381.764,338.045 381.577,337.903 378.000 L 337.800 375.400 334.400 375.200 L 331.000 375.000 330.899 372.000 C 330.722 366.760,330.882 366.915,326.416 367.655 M71.958 372.281 C 71.675 373.116,71.424 373.980,71.401 374.200 C 71.379 374.420,71.217 375.260,71.042 376.066 C 70.072 380.533,75.870 387.075,84.800 391.590 C 85.790 392.091,86.913 392.658,87.295 392.851 C 87.677 393.043,88.757 393.474,89.695 393.809 C 94.194 395.414,95.926 395.956,97.400 396.219 C 98.280 396.377,99.295 396.657,99.656 396.843 C 101.975 398.038,117.945 398.046,120.298 396.853 C 120.684 396.658,121.667 396.212,122.482 395.864 C 126.641 394.085,128.158 391.383,127.839 386.321 C 127.724 384.494,127.623 382.775,127.615 382.500 C 127.587 381.548,126.808 382.005,126.252 383.300 C 124.455 387.485,121.470 388.555,111.600 388.550 C 106.505 388.548,103.294 388.376,102.340 388.056 C 101.537 387.785,100.007 387.411,98.940 387.223 C 97.091 386.899,96.264 386.647,92.600 385.297 C 84.504 382.314,76.311 376.796,73.568 372.481 L 72.475 370.761 71.958 372.281 M176.920 374.661 C 179.411 375.949,179.922 378.092,178.239 380.196 C 177.150 381.557,168.761 382.329,167.393 381.194 C 166.647 380.575,166.556 375.204,167.280 374.480 C 168.050 373.710,175.344 373.847,176.920 374.661 M198.600 375.052 C 182.392 379.177,186.783 401.788,203.666 401.133 C 211.182 400.841,214.546 398.188,211.138 395.238 C 208.710 393.136,208.639 393.117,206.412 393.995 C 203.158 395.278,199.827 394.693,197.874 392.496 C 196.704 391.180,197.551 391.015,206.600 390.800 L 215.000 390.600 215.126 388.606 C 215.672 379.939,207.082 372.893,198.600 375.052 M299.400 374.960 C 299.180 375.040,297.830 375.428,296.400 375.822 C 292.319 376.947,291.858 377.568,293.181 380.163 C 294.623 382.991,294.966 383.196,297.121 382.516 C 303.617 380.466,307.200 381.182,307.200 384.529 L 307.200 385.827 302.100 385.816 C 293.149 385.798,288.617 390.644,291.810 396.819 C 293.768 400.605,302.757 402.925,305.772 400.423 C 306.292 399.991,306.611 399.978,307.319 400.357 C 307.875 400.654,309.565 400.790,311.805 400.717 L 315.400 400.600 315.515 392.000 C 315.668 380.624,314.936 378.309,310.400 375.837 C 309.104 375.130,300.762 374.466,299.400 374.960 M204.270 381.860 C 208.204 383.727,207.384 385.200,202.409 385.200 C 196.617 385.200,195.842 384.589,198.860 382.403 C 200.743 381.039,202.226 380.890,204.270 381.860 M234.840 382.057 C 237.443 382.931,237.600 383.269,237.600 388.000 C 237.600 392.731,237.443 393.069,234.840 393.943 C 228.506 396.071,223.053 389.636,226.802 384.460 C 228.669 381.883,231.661 380.989,234.840 382.057 M306.637 391.310 C 306.774 391.456,306.896 392.932,306.846 393.837 C 306.758 395.432,301.351 396.241,299.386 394.954 C 297.680 393.836,298.141 391.634,300.200 391.065 C 300.908 390.870,306.422 391.079,306.637 391.310 " stroke="none" fill="#0f0e0e" fill-rule="evenodd"/><path id="path1" d="M0.000 236.400 L 0.000 472.800 200.000 472.800 L 400.000 472.800 400.000 236.400 L 400.000 0.000 200.000 0.000 L 0.000 0.000 0.000 236.400 M87.137 45.350 C 98.901 49.897,101.262 63.107,91.580 70.214 C 89.083 72.047,89.035 71.673,92.664 78.682 C 94.348 81.937,96.328 85.760,97.062 87.177 C 98.746 90.430,98.818 90.386,91.723 90.394 L 86.045 90.400 81.777 81.800 L 77.509 73.200 74.154 73.200 C 70.108 73.200,70.681 71.881,70.421 81.800 L 70.200 90.200 64.800 90.200 L 59.400 90.200 59.297 67.626 C 59.215 49.839,59.300 44.980,59.697 44.713 C 60.704 44.035,85.207 44.604,87.137 45.350 M139.367 44.643 C 140.096 44.923,140.301 52.504,139.609 53.600 C 139.292 54.102,137.386 54.233,127.915 54.400 L 116.600 54.600 116.481 57.595 C 116.273 62.804,115.613 62.400,124.328 62.400 C 133.338 62.400,132.800 62.080,132.800 67.437 C 132.800 72.408,133.590 72.000,123.967 72.000 L 116.400 72.000 116.406 75.900 C 116.415 81.249,115.265 80.771,128.420 80.894 L 139.800 81.000 139.800 85.600 L 139.800 90.200 122.600 90.200 L 105.400 90.200 105.296 67.800 C 105.239 55.480,105.278 45.175,105.384 44.900 C 105.585 44.373,138.023 44.127,139.367 44.643 M173.800 45.333 C 196.646 52.860,195.951 83.766,172.800 89.765 C 170.613 90.331,168.515 90.419,159.600 90.319 L 149.000 90.200 148.896 67.800 C 148.839 55.480,148.884 45.160,148.996 44.867 C 149.319 44.023,171.064 44.431,173.800 45.333 M222.826 44.814 C 223.552 45.203,223.600 45.730,223.600 53.371 C 223.600 60.428,223.684 61.547,224.233 61.757 C 225.491 62.240,241.013 62.027,241.520 61.520 C 241.862 61.178,242.000 58.713,242.000 52.967 C 242.000 43.514,241.377 44.414,247.926 44.405 C 254.296 44.397,253.600 41.555,253.600 67.571 C 253.600 87.576,253.534 89.940,252.967 90.157 C 252.042 90.512,243.086 90.442,242.508 90.075 C 242.149 89.847,241.987 87.394,241.908 80.981 L 241.800 72.200 232.800 72.200 L 223.800 72.200 223.692 80.981 C 223.613 87.394,223.451 89.847,223.092 90.075 C 222.514 90.442,213.558 90.512,212.633 90.157 C 211.608 89.764,211.674 44.944,212.700 44.676 C 214.120 44.305,222.078 44.413,222.826 44.814 M288.221 44.706 C 288.707 45.045,290.000 47.706,290.000 48.366 C 290.000 48.611,290.177 49.123,290.393 49.505 C 290.609 49.887,291.430 51.910,292.217 54.000 C 294.252 59.404,295.985 63.893,296.774 65.800 C 296.955 66.240,297.375 67.320,297.707 68.200 C 298.039 69.080,298.588 70.520,298.928 71.400 C 299.268 72.280,300.009 74.215,300.573 75.700 C 302.912 81.851,303.700 83.864,304.236 85.060 C 304.546 85.754,304.800 86.491,304.800 86.699 C 304.800 86.907,305.091 87.660,305.446 88.372 C 306.402 90.289,305.962 90.435,299.600 90.311 L 293.862 90.200 292.789 87.200 C 292.198 85.550,291.613 83.930,291.488 83.600 C 291.363 83.270,291.053 82.324,290.798 81.497 C 290.129 79.321,289.636 79.200,281.455 79.200 L 274.058 79.200 273.229 80.254 C 272.773 80.834,272.400 81.698,272.400 82.174 C 272.400 82.650,272.237 83.211,272.037 83.420 C 271.838 83.629,271.489 84.430,271.261 85.200 C 270.709 87.072,269.867 89.285,269.473 89.900 C 269.079 90.515,258.582 90.618,258.207 90.011 C 258.074 89.797,258.436 88.402,259.010 86.911 C 259.584 85.420,260.326 83.480,260.659 82.600 C 260.991 81.720,261.519 80.490,261.832 79.868 C 262.144 79.245,262.400 78.552,262.400 78.328 C 262.400 78.104,262.655 77.354,262.967 76.660 C 263.279 75.967,264.189 73.690,264.989 71.600 C 265.789 69.510,266.704 67.233,267.022 66.540 C 267.340 65.846,267.600 65.027,267.600 64.720 C 267.600 64.412,267.744 63.989,267.920 63.780 C 268.096 63.571,268.651 62.320,269.153 61.000 C 270.699 56.933,271.281 55.447,271.814 54.200 C 272.395 52.839,273.139 50.916,274.477 47.315 C 274.985 45.948,275.670 44.754,276.000 44.661 C 277.063 44.363,287.785 44.402,288.221 44.706 M347.900 44.652 C 348.766 44.884,348.800 45.064,348.800 49.404 C 348.800 54.840,349.467 54.400,341.216 54.400 C 336.424 54.400,334.791 54.529,334.453 54.936 C 334.146 55.306,333.976 60.828,333.904 72.836 L 333.800 90.200 328.400 90.200 L 323.000 90.200 322.896 72.500 C 322.839 62.765,322.749 54.766,322.696 54.723 C 322.643 54.681,319.360 54.546,315.400 54.423 L 308.200 54.200 308.086 49.632 C 308.002 46.247,308.106 44.980,308.486 44.738 C 309.073 44.366,346.527 44.284,347.900 44.652 M70.871 54.515 C 70.522 54.935,70.407 56.475,70.486 59.657 L 70.600 64.200 76.017 64.311 C 81.042 64.413,81.562 64.354,83.217 63.484 C 86.417 61.801,86.778 57.187,83.877 55.041 C 82.378 53.931,71.713 53.500,70.871 54.515 M160.182 54.904 C 160.075 55.181,160.036 60.986,160.094 67.804 L 160.200 80.200 165.089 80.312 C 169.594 80.416,170.128 80.348,171.889 79.454 C 181.346 74.653,180.881 59.523,171.140 55.068 C 169.284 54.219,160.495 54.088,160.182 54.904 M281.281 57.200 C 281.070 57.750,280.615 59.010,280.269 60.000 C 279.923 60.990,279.004 63.577,278.227 65.750 C 277.450 67.922,276.912 69.857,277.031 70.050 C 277.296 70.479,286.800 70.522,286.800 70.094 C 286.800 69.926,286.424 68.801,285.965 67.594 C 285.506 66.387,284.977 64.860,284.788 64.200 C 284.187 62.098,283.074 59.084,282.358 57.619 L 281.663 56.200 281.281 57.200 M81.713 103.633 C 86.717 105.310,91.155 108.650,90.620 110.336 C 90.387 111.070,86.738 114.530,85.373 115.312 C 85.019 115.515,84.299 115.149,83.314 114.266 C 76.004 107.714,65.577 112.240,65.609 121.951 C 65.640 131.469,76.188 135.937,83.522 129.539 C 85.041 128.214,85.038 128.213,88.147 131.071 C 90.905 133.605,90.947 134.249,88.500 136.408 C 76.141 147.312,55.815 138.352,55.815 122.000 C 55.815 108.928,69.194 99.439,81.713 103.633 M125.115 106.500 L 125.000 110.200 116.000 110.304 C 105.403 110.426,106.000 110.142,106.000 115.069 C 106.000 119.052,105.434 118.766,113.600 118.903 L 119.400 119.000 119.515 122.489 C 119.654 126.679,120.242 126.365,112.000 126.503 L 106.200 126.600 106.078 128.983 C 106.010 130.294,106.059 131.779,106.185 132.283 L 106.415 133.200 115.528 133.200 C 126.207 133.200,125.600 132.942,125.600 137.472 C 125.600 141.607,127.108 141.250,110.200 141.112 L 96.600 141.000 96.496 122.400 C 96.438 112.170,96.478 103.575,96.583 103.300 C 96.732 102.913,99.989 102.800,111.002 102.800 L 125.230 102.800 125.115 106.500 M156.251 103.413 C 162.312 105.810,164.800 109.236,164.800 115.188 C 164.800 119.324,161.705 125.200,159.526 125.200 C 158.356 125.200,158.440 126.908,159.726 129.296 C 164.335 137.849,165.617 140.449,165.399 140.802 C 165.106 141.276,156.431 141.335,155.696 140.868 C 155.419 140.692,153.850 137.885,152.208 134.629 C 148.390 127.057,148.864 127.543,145.438 127.684 L 142.600 127.800 142.400 134.400 L 142.200 141.000 138.301 141.114 C 132.178 141.294,132.800 143.471,132.800 121.853 C 132.800 111.667,132.920 103.213,133.067 103.067 C 133.671 102.462,154.639 102.775,156.251 103.413 M201.917 106.339 C 202.076 110.897,202.210 110.800,195.800 110.800 C 191.862 110.800,190.384 110.938,190.054 111.335 C 189.751 111.700,189.577 116.498,189.505 126.435 L 189.400 141.000 185.800 141.118 C 183.820 141.182,181.795 141.134,181.300 141.010 L 180.400 140.785 180.400 126.272 C 180.400 115.518,180.276 111.636,179.920 111.280 C 179.596 110.956,177.742 110.800,174.200 110.800 C 170.658 110.800,168.804 110.644,168.480 110.320 C 167.968 109.808,167.788 103.545,168.271 103.062 C 168.420 102.913,176.025 102.838,185.171 102.896 L 201.800 103.000 201.917 106.339 M216.304 121.891 L 216.408 140.783 215.504 141.009 C 215.007 141.133,212.890 141.182,210.800 141.117 L 207.000 141.000 206.896 121.887 L 206.792 102.775 211.496 102.887 L 216.200 103.000 216.304 121.891 M253.517 106.366 C 253.667 110.656,254.337 110.387,243.508 110.394 L 234.415 110.400 234.189 111.301 C 234.065 111.797,234.016 113.642,234.081 115.401 L 234.200 118.600 240.800 118.800 L 247.400 119.000 247.517 122.366 C 247.664 126.586,248.022 126.386,240.300 126.394 L 234.000 126.400 234.000 133.592 C 234.000 142.009,234.523 141.306,228.400 141.117 L 224.600 141.000 224.496 121.895 L 224.392 102.790 238.896 102.895 L 253.400 103.000 253.517 106.366 M269.104 121.554 C 269.179 134.921,269.081 140.261,268.755 140.654 C 268.160 141.372,260.788 141.428,260.080 140.720 C 259.550 140.190,259.354 103.579,259.879 103.054 C 260.032 102.901,262.147 102.826,264.579 102.888 L 269.000 103.000 269.104 121.554 M305.915 106.500 L 305.800 110.200 296.800 110.304 C 286.203 110.426,286.800 110.142,286.800 115.069 C 286.800 119.052,286.234 118.766,294.400 118.903 L 300.200 119.000 300.315 122.489 C 300.454 126.679,301.042 126.365,292.800 126.503 L 287.000 126.600 286.878 128.983 C 286.810 130.294,286.859 131.779,286.985 132.283 L 287.215 133.200 296.328 133.200 C 307.007 133.200,306.400 132.942,306.400 137.472 C 306.400 141.607,307.908 141.250,291.000 141.112 L 277.400 141.000 277.296 122.400 C 277.238 112.170,277.278 103.575,277.383 103.300 C 277.532 102.913,280.789 102.800,291.802 102.800 L 306.030 102.800 305.915 106.500 M334.600 103.518 C 352.663 109.767,352.793 133.700,334.800 140.336 C 333.309 140.886,331.354 141.000,323.400 141.000 L 313.800 141.000 313.696 121.900 L 313.592 102.800 323.096 102.813 C 331.044 102.824,332.927 102.939,334.600 103.518 M142.590 111.300 C 142.467 111.795,142.418 113.910,142.483 116.000 L 142.600 119.800 147.332 119.913 C 151.511 120.013,152.217 119.931,153.380 119.212 C 156.266 117.429,156.019 112.520,152.969 111.066 C 150.592 109.932,142.889 110.106,142.590 111.300 M323.467 111.067 C 323.065 111.469,323.159 132.115,323.565 132.758 C 324.028 133.489,330.378 133.166,332.415 132.308 C 340.684 128.825,339.958 113.397,331.424 111.248 C 329.494 110.762,323.899 110.634,323.467 111.067 M338.000 159.000 L 338.000 160.800 200.000 160.800 L 62.000 160.800 62.000 159.000 L 62.000 157.200 200.000 157.200 L 338.000 157.200 338.000 159.000 M90.412 221.146 C 96.490 222.884,97.344 223.862,95.315 226.759 C 93.843 228.862,93.123 229.192,92.031 228.262 C 89.720 226.293,83.026 225.672,81.326 227.270 C 79.417 229.063,80.601 231.078,83.897 231.647 C 93.286 233.269,95.431 234.162,96.939 237.080 C 101.867 246.618,88.342 253.380,76.069 247.513 C 72.882 245.990,72.765 245.638,74.573 243.013 C 76.261 240.562,76.281 240.561,80.600 242.770 C 85.797 245.427,91.894 243.815,90.572 240.133 C 90.143 238.940,87.413 237.658,85.226 237.622 C 79.643 237.532,74.997 234.913,73.970 231.277 C 71.869 223.841,80.734 218.379,90.412 221.146 M120.892 221.072 C 129.445 224.436,129.302 236.453,120.678 238.960 C 119.383 239.337,116.992 239.600,114.871 239.600 C 109.693 239.600,110.000 239.270,110.000 244.835 C 110.000 250.333,110.170 250.136,105.588 249.921 L 103.000 249.800 102.895 235.602 C 102.837 227.793,102.876 221.178,102.982 220.902 C 103.306 220.059,118.688 220.205,120.892 221.072 M154.725 222.573 C 154.979 226.590,155.414 226.367,147.095 226.491 L 139.800 226.600 139.800 229.000 L 139.800 231.400 144.695 231.512 C 150.274 231.640,150.170 231.562,149.925 235.427 L 149.800 237.400 144.800 237.600 L 139.800 237.800 139.800 240.800 L 139.800 243.800 147.200 244.000 L 154.600 244.200 154.600 247.000 L 154.600 249.800 143.600 249.800 L 132.600 249.800 132.495 235.602 C 132.437 227.793,132.477 221.175,132.585 220.896 C 132.737 220.498,135.155 220.410,143.690 220.494 L 154.600 220.600 154.725 222.573 M179.412 221.238 C 181.371 221.926,185.600 224.499,185.600 225.001 C 185.600 225.075,185.709 225.419,185.843 225.767 C 186.100 226.437,182.696 230.000,181.798 230.000 C 181.537 230.000,180.981 229.617,180.562 229.148 C 175.637 223.643,167.000 227.507,167.000 235.216 C 167.000 242.799,175.038 246.438,180.471 241.315 L 181.543 240.305 182.740 241.157 C 183.398 241.626,184.411 242.573,184.990 243.261 L 186.042 244.512 184.934 245.669 C 175.839 255.162,159.800 248.354,159.800 235.000 C 159.800 224.662,169.596 217.788,179.412 221.238 M197.505 235.091 L 197.610 249.582 196.688 249.814 C 196.181 249.941,194.694 249.990,193.383 249.922 L 191.000 249.800 190.895 235.084 L 190.790 220.367 194.095 220.484 L 197.400 220.600 197.505 235.091 M220.605 221.351 C 220.947 221.874,221.388 222.819,221.584 223.451 C 221.780 224.083,222.327 225.590,222.800 226.800 C 223.273 228.010,223.813 229.450,224.000 230.000 C 224.187 230.550,224.690 231.900,225.117 233.000 C 225.545 234.100,226.571 236.800,227.398 239.000 C 228.225 241.200,229.238 243.755,229.650 244.678 C 230.063 245.601,230.400 246.525,230.400 246.732 C 230.400 246.939,230.665 247.620,230.989 248.245 C 231.814 249.835,231.381 250.051,227.636 249.917 C 223.882 249.783,223.816 249.726,222.571 245.505 C 221.642 242.356,221.649 242.359,215.765 242.488 L 210.642 242.600 209.464 246.000 C 208.067 250.035,208.125 249.986,204.733 249.994 C 201.085 250.002,200.724 249.836,201.436 248.472 C 201.743 247.882,201.996 247.190,201.998 246.932 C 201.999 246.675,202.256 245.955,202.568 245.332 C 202.881 244.710,203.421 243.435,203.768 242.500 C 206.327 235.616,207.365 232.994,207.680 232.620 C 207.856 232.411,208.001 231.961,208.002 231.620 C 208.004 231.279,208.274 230.484,208.602 229.854 C 208.931 229.224,209.206 228.504,209.214 228.254 C 209.221 228.004,209.575 227.080,210.000 226.200 C 210.425 225.320,210.779 224.480,210.786 224.333 C 210.794 224.186,211.154 223.241,211.586 222.233 L 212.372 220.400 216.177 220.400 C 219.741 220.400,220.021 220.460,220.605 221.351 M242.306 232.100 C 242.365 238.425,242.455 243.634,242.506 243.676 C 242.558 243.718,245.750 243.853,249.600 243.976 L 256.600 244.200 256.718 246.888 C 256.866 250.264,257.658 250.056,245.200 249.913 L 235.400 249.800 235.295 235.602 C 235.169 218.689,234.777 220.339,238.894 220.484 L 242.200 220.600 242.306 232.100 M268.567 220.643 C 269.128 220.858,269.200 222.519,269.200 235.235 L 269.200 249.585 268.283 249.815 C 267.779 249.941,266.294 249.990,264.983 249.922 L 262.600 249.800 262.495 235.602 C 262.437 227.793,262.476 221.178,262.582 220.902 C 262.784 220.376,267.355 220.178,268.567 220.643 M290.365 221.046 C 296.676 222.869,297.661 223.913,295.710 226.712 C 294.005 229.159,294.093 229.143,291.000 227.600 C 286.436 225.324,280.800 226.081,280.800 228.971 C 280.800 230.076,282.482 231.600,283.701 231.600 C 289.567 231.600,296.127 234.439,297.445 237.548 C 301.583 247.311,287.606 253.541,275.800 247.196 C 273.345 245.877,273.228 245.391,274.801 243.060 C 276.483 240.569,276.308 240.591,280.044 242.398 C 286.162 245.356,292.032 244.168,291.029 240.174 C 290.721 238.945,288.671 238.040,285.161 237.582 C 277.302 236.555,274.000 234.151,274.000 229.453 C 274.000 222.735,281.995 218.627,290.365 221.046 M326.600 223.400 L 326.600 226.200 322.000 226.400 L 317.400 226.600 317.200 238.200 L 317.000 249.800 314.412 249.921 C 312.989 249.988,311.417 249.940,310.918 249.815 L 310.012 249.588 309.906 238.094 L 309.800 226.600 305.400 226.400 L 301.000 226.200 300.878 223.845 C 300.684 220.082,299.547 220.375,313.890 220.494 L 326.600 220.600 326.600 223.400 M110.169 226.935 C 110.056 227.230,110.017 228.895,110.082 230.635 L 110.200 233.800 113.852 233.914 C 119.566 234.093,122.227 230.684,118.878 227.475 C 117.574 226.225,110.608 225.794,110.169 226.935 M215.232 229.737 C 214.773 230.803,214.280 232.141,214.137 232.710 C 213.993 233.280,213.644 234.194,213.360 234.741 C 212.439 236.517,213.225 237.200,216.187 237.200 C 219.690 237.200,219.851 235.115,216.803 229.222 L 216.068 227.800 215.232 229.737 M337.800 311.200 L 337.800 313.000 200.000 313.000 L 62.200 313.000 62.072 311.662 C 62.001 310.926,62.041 310.071,62.159 309.761 C 62.344 309.279,82.060 309.213,200.088 309.299 L 337.800 309.400 337.800 311.200 M100.881 350.771 C 101.387 350.975,103.240 351.590,105.000 352.137 C 118.506 356.335,122.262 359.395,123.984 367.600 C 124.724 371.129,125.273 373.428,125.832 375.346 C 126.145 376.416,126.405 377.676,126.411 378.146 C 126.453 381.323,127.778 383.345,131.008 385.161 C 146.567 393.910,145.258 410.297,128.600 415.320 C 122.138 417.268,108.133 417.213,99.596 415.207 C 69.520 408.139,48.591 391.985,54.437 380.350 C 56.142 376.956,62.576 374.016,68.349 373.995 C 71.460 373.983,71.736 373.639,73.963 367.000 C 74.406 365.680,75.151 363.610,75.619 362.400 C 76.086 361.190,76.612 359.660,76.787 359.000 C 78.640 352.000,82.203 350.054,88.137 352.800 C 91.550 354.380,92.180 354.326,95.200 352.200 C 97.786 350.379,99.095 350.050,100.881 350.771 M245.104 365.532 C 245.500 365.784,245.586 369.593,245.504 383.226 L 245.400 400.600 241.850 400.716 C 239.124 400.806,238.144 400.693,237.633 400.230 C 237.039 399.693,236.840 399.700,235.784 400.299 C 234.912 400.794,233.599 400.975,230.800 400.985 C 213.905 401.050,213.144 376.275,230.000 374.932 C 232.329 374.747,233.826 374.945,236.700 375.819 C 237.592 376.091,237.600 376.059,237.600 372.020 C 237.600 367.260,237.917 366.412,239.714 366.369 C 240.421 366.352,241.720 366.101,242.600 365.811 C 244.630 365.142,244.511 365.156,245.104 365.532 M179.415 367.346 C 188.388 369.736,190.918 380.529,183.775 385.947 C 181.586 387.607,181.587 387.678,183.800 391.422 C 184.790 393.096,185.600 394.566,185.600 394.689 C 185.600 394.811,186.135 395.782,186.790 396.845 C 187.444 397.908,188.094 399.233,188.233 399.789 L 188.487 400.800 184.092 400.800 C 178.925 400.800,179.678 401.401,176.044 394.372 L 173.268 389.000 170.134 389.000 L 167.000 389.000 166.800 394.800 L 166.600 400.600 162.500 400.714 L 158.400 400.828 158.400 384.081 C 158.400 374.870,158.520 367.213,158.667 367.067 C 159.195 366.538,177.297 366.782,179.415 367.346 M265.910 373.295 C 266.041 380.780,265.206 380.079,273.800 379.915 L 279.800 379.800 280.000 373.400 L 280.200 367.000 284.200 367.000 L 288.200 367.000 288.304 383.900 L 288.409 400.800 284.204 400.800 L 280.000 400.800 279.995 395.100 C 279.987 386.807,280.726 387.600,272.996 387.600 C 265.264 387.600,266.000 386.839,266.000 394.833 L 266.000 400.800 261.800 400.800 L 257.600 400.800 257.600 384.067 C 257.600 374.863,257.726 367.207,257.880 367.053 C 258.034 366.899,259.879 366.824,261.980 366.886 L 265.800 367.000 265.910 373.295 M330.591 368.100 C 330.705 368.595,330.843 370.350,330.899 372.000 L 331.000 375.000 334.400 375.200 L 337.800 375.400 337.903 378.000 C 338.045 381.577,337.860 381.764,334.017 381.939 L 330.800 382.085 330.800 387.580 C 330.800 394.070,331.047 394.557,334.301 394.484 C 337.481 394.412,337.600 394.516,337.600 397.378 C 337.600 400.824,337.330 401.000,332.039 401.000 C 324.406 401.000,322.698 398.960,322.495 389.600 C 322.331 382.036,322.322 382.000,320.618 382.000 C 317.556 382.000,317.151 381.551,317.282 378.303 L 317.400 375.400 319.000 375.293 C 322.434 375.065,322.400 375.097,322.400 372.002 C 322.400 368.727,322.843 368.248,326.416 367.655 C 329.982 367.064,330.363 367.105,330.591 368.100 M167.280 374.480 C 166.556 375.204,166.647 380.575,167.393 381.194 C 168.761 382.329,177.150 381.557,178.239 380.196 C 179.922 378.092,179.411 375.949,176.920 374.661 C 175.344 373.847,168.050 373.710,167.280 374.480 M207.857 375.938 C 212.346 378.211,215.441 383.605,215.126 388.606 L 215.000 390.600 206.600 390.800 C 197.551 391.015,196.704 391.180,197.874 392.496 C 199.827 394.693,203.158 395.278,206.412 393.995 C 208.639 393.117,208.710 393.136,211.138 395.238 C 213.476 397.262,213.335 398.001,210.300 399.630 C 202.118 404.023,191.510 399.982,189.057 391.538 C 185.946 380.829,197.910 370.902,207.857 375.938 M310.400 375.837 C 314.936 378.309,315.668 380.624,315.515 392.000 L 315.400 400.600 311.805 400.717 C 309.565 400.790,307.875 400.654,307.319 400.357 C 306.611 399.978,306.292 399.991,305.772 400.423 C 302.757 402.925,293.768 400.605,291.810 396.819 C 288.617 390.644,293.149 385.798,302.100 385.816 L 307.200 385.827 307.200 384.529 C 307.200 381.182,303.617 380.466,297.121 382.516 C 294.966 383.196,294.623 382.991,293.181 380.163 C 291.858 377.568,292.319 376.947,296.400 375.822 C 297.830 375.428,299.180 375.040,299.400 374.960 C 300.762 374.466,309.104 375.130,310.400 375.837 M198.860 382.403 C 195.842 384.589,196.617 385.200,202.409 385.200 C 206.643 385.200,207.238 384.928,206.264 383.442 C 204.725 381.093,201.326 380.616,198.860 382.403 M229.302 382.233 C 223.148 384.924,225.396 394.400,232.189 394.400 C 236.563 394.400,237.600 393.174,237.600 388.000 C 237.600 383.269,237.443 382.931,234.840 382.057 C 233.061 381.459,230.916 381.527,229.302 382.233 M300.200 391.065 C 298.141 391.634,297.680 393.836,299.386 394.954 C 301.351 396.241,306.758 395.432,306.846 393.837 C 306.896 392.932,306.774 391.456,306.637 391.310 C 306.422 391.079,300.908 390.870,300.200 391.065 " stroke="none" fill="#d3d3d3" fill-rule="evenodd"/><path id="path2" d="M95.200 352.200 C 92.180 354.326,91.550 354.380,88.137 352.800 C 82.203 350.054,78.640 352.000,76.787 359.000 C 76.612 359.660,76.084 361.190,75.613 362.400 C 73.002 369.111,72.624 370.812,73.418 372.285 C 75.546 376.236,84.506 382.314,92.600 385.297 C 96.264 386.647,97.091 386.899,98.940 387.223 C 100.007 387.411,101.537 387.785,102.340 388.056 C 105.469 389.108,119.054 388.716,121.666 387.497 C 125.310 385.797,127.811 382.260,126.854 380.159 C 126.604 379.611,126.400 378.741,126.400 378.227 C 126.400 377.713,126.145 376.416,125.832 375.346 C 125.273 373.428,124.724 371.129,123.984 367.600 C 122.262 359.395,118.506 356.335,105.000 352.137 C 103.240 351.590,101.387 350.975,100.881 350.771 C 99.095 350.050,97.786 350.379,95.200 352.200 M69.000 373.865 C 42.343 376.037,51.294 397.917,84.000 410.532 C 88.852 412.403,93.160 413.695,99.596 415.207 C 108.133 417.213,122.138 417.268,128.600 415.320 C 144.923 410.398,146.567 393.856,131.565 385.480 C 127.294 383.095,127.515 383.035,127.829 386.492 C 128.257 391.217,126.614 394.097,122.482 395.864 C 121.667 396.212,120.684 396.658,120.298 396.853 C 117.945 398.046,101.975 398.038,99.656 396.843 C 99.295 396.657,98.280 396.377,97.400 396.219 C 95.926 395.956,94.194 395.414,89.695 393.809 C 88.757 393.474,87.677 393.043,87.295 392.851 C 86.913 392.658,85.790 392.091,84.800 391.590 C 75.615 386.946,69.758 380.157,71.117 375.729 C 71.549 374.322,71.456 373.526,70.876 373.667 C 70.724 373.704,69.880 373.793,69.000 373.865 " stroke="none" fill="#ea0707" fill-rule="evenodd"/></g></svg>