<?xml version="1.0" encoding="UTF-8" standalone="no"?>
<svg
   width="111.43"
   height="109.43"
   viewBox="0 0 111.43001 109.43"
   version="1.1"
   id="svg250"
   sodipodi:docname="logo_Full-Colour.svg"
   inkscape:version="1.1 (c68e22c387, 2021-05-23)"
   xmlns:inkscape="http://www.inkscape.org/namespaces/inkscape"
   xmlns:sodipodi="http://sodipodi.sourceforge.net/DTD/sodipodi-0.dtd"
   xmlns="http://www.w3.org/2000/svg"
   xmlns:svg="http://www.w3.org/2000/svg">
  <sodipodi:namedview
     id="namedview252"
     pagecolor="#ffffff"
     bordercolor="#666666"
     borderopacity="1.0"
     inkscape:pageshadow="2"
     inkscape:pageopacity="0.0"
     inkscape:pagecheckerboard="0"
     showgrid="false"
     width="110px"
     inkscape:zoom="4"
     inkscape:cx="127"
     inkscape:cy="95.125"
     inkscape:window-width="1271"
     inkscape:window-height="1081"
     inkscape:window-x="2318"
     inkscape:window-y="313"
     inkscape:window-maximized="0"
     inkscape:current-layer="svg250" />
  <defs
     id="defs236">
    <linearGradient
       id="logo_full-colour-a"
       x1="0.42882001"
       x2="0.53564"
       y1="-0.23909001"
       y2="0.86551005">
      <stop
         offset="0%"
         stop-color="#022BD1"
         id="stop214" />
      <stop
         offset="12%"
         stop-color="#023ED1"
         id="stop216" />
      <stop
         offset="38%"
         stop-color="#016FD0"
         id="stop218" />
      <stop
         offset="73%"
         stop-color="#01BECE"
         id="stop220" />
      <stop
         offset="100%"
         stop-color="#00FFCD"
         id="stop222" />
    </linearGradient>
    <linearGradient
       id="logo_full-colour-b"
       x1="0.57108998"
       x2="0.46435001"
       y1="1.23848"
       y2="0.13494">
      <stop
         offset="0%"
         stop-color="#022BD1"
         id="stop225" />
      <stop
         offset="12%"
         stop-color="#023ED1"
         id="stop227" />
      <stop
         offset="38%"
         stop-color="#016FD0"
         id="stop229" />
      <stop
         offset="73%"
         stop-color="#01BECE"
         id="stop231" />
      <stop
         offset="100%"
         stop-color="#00FFCD"
         id="stop233" />
    </linearGradient>
  </defs>
  <g
     fill="none"
     id="g248">
    <path
       fill="#001f30"
       d="m 356.62987,20.305823 v 0 13.217215 c -1.95285,-1.484894 -4.12778,-2.652331 -6.44455,-3.459241 -2.62476,-0.889924 -5.38275,-1.322872 -8.15393,-1.28 -3.58894,-0.05552 -7.14689,0.671554 -10.42633,2.130633 -3.01793,1.366632 -5.72608,3.333313 -7.95949,5.780253 -2.24214,2.485059 -3.97969,5.382364 -5.11595,8.530633 -2.40354,6.71112 -2.40354,14.048374 0,20.759494 1.13296,3.154684 2.87077,6.057905 5.11595,8.546836 2.23211,2.449419 4.94051,4.417662 7.95949,5.784303 3.27944,1.45908 6.83739,2.186152 10.42633,2.130633 2.76625,0.04515 5.52106,-0.365403 8.15393,-1.21519 2.33487,-0.787809 4.51538,-1.974688 6.44455,-3.507848 v 3.981772 h 11.84405 V 8.4739178 c -3.14012,-0.00322 -6.15273,1.2419288 -8.37427,3.4611902 -2.22154,2.219261 -3.46978,5.230593 -3.46978,8.370715 z m -0.57924,41.458228 c -0.58942,1.819438 -1.52163,3.509247 -2.74633,4.978227 -1.20138,1.428375 -2.70907,2.567796 -4.41114,3.333671 -3.82596,1.592501 -8.13244,1.574977 -11.94531,-0.04861 -1.73227,-0.774389 -3.28215,-1.904712 -4.54886,-3.317469 -1.25831,-1.442059 -2.22163,-3.116863 -2.83545,-4.92962 -1.3231,-3.984164 -1.3231,-8.289253 0,-12.273418 0.60716,-1.829141 1.57088,-3.519783 2.83545,-4.974177 1.26671,-1.412756 2.81659,-2.543079 4.54886,-3.317468 3.81287,-1.623585 8.11935,-1.641109 11.94531,-0.04861 1.69901,0.761712 3.20513,1.895461 4.40709,3.317469 1.22434,1.46382 2.15786,3.147997 2.75038,4.962025 1.2638,4.008744 1.2638,8.30923 0,12.317975 z M 501.70734,34.701772 c -4.48141,-3.911414 -10.25511,-6.020257 -16.20253,-5.917975 -3.58766,-0.05571 -7.14433,0.671385 -10.42228,2.130633 -3.01973,1.365568 -5.72941,3.332358 -7.96354,5.780253 -2.24214,2.485059 -3.9797,5.382364 -5.11595,8.530633 -2.40354,6.71112 -2.40354,14.048374 0,20.759494 1.13768,3.140319 2.87525,6.029398 5.11595,8.506329 2.23283,2.450377 4.94276,4.418729 7.96354,5.784304 3.27795,1.459249 6.83462,2.186341 10.42228,2.130633 2.76624,0.04515 5.52105,-0.365403 8.15392,-1.21519 2.33488,-0.78781 4.51539,-1.974688 6.44456,-3.507848 v 3.981772 h 11.84405 V 28.783797 c -4.22559,0.0011 -8.12937,2.257251 -10.24,5.917975 z m -2.17114,27.062279 c -0.58942,1.819438 -1.52163,3.509247 -2.74633,4.978227 -1.20196,1.422008 -2.70808,2.555757 -4.40709,3.317469 -3.82433,1.593663 -8.13003,1.576136 -11.94126,-0.04861 -1.7335,-0.772269 -3.28379,-1.902896 -4.54886,-3.317468 -1.26116,-1.440019 -2.22483,-3.11542 -2.83545,-4.92962 -1.32863,-3.983268 -1.32863,-8.29015 0,-12.273418 0.60378,-1.830646 1.56786,-3.521925 2.83545,-4.974177 1.26507,-1.414573 2.81536,-2.545199 4.54886,-3.317469 3.81123,-1.624743 8.11693,-1.64227 11.94126,-0.04861 1.69901,0.761712 3.20513,1.89546 4.40709,3.317468 1.2247,1.46898 2.15691,3.158789 2.74633,4.978228 1.2638,4.008744 1.2638,8.30923 0,12.317975 z M 256.93975,28.78379 c -4.23139,-0.0046 -8.14269,2.25224 -10.25621,5.917982"
       id="path238" />
    <path
       fill="#001f30"
       d="m 246.68354,34.701772 c -4.48141,-3.911414 -10.25511,-6.020257 -16.20253,-5.917975 -3.58894,-0.05552 -7.14689,0.671554 -10.42633,2.130633 -3.01973,1.365568 -5.72941,3.332358 -7.96354,5.780253 -2.23779,2.486092 -3.97118,5.383329 -5.1038,8.530633 -2.40354,6.71112 -2.40354,14.048374 0,20.759494 1.13768,3.140319 2.87525,6.029398 5.11595,8.506329 2.23284,2.450377 4.94277,4.418729 7.96354,5.784304 3.27415,1.464311 6.82783,2.198268 10.41418,2.150886 2.7649,0.04485 5.51833,-0.365699 8.14988,-1.21519 2.33487,-0.78781 4.51538,-1.974688 6.44455,-3.507848 v 3.981772 h 11.8481 V 28.783797 c -4.22559,0.0011 -8.12937,2.257251 -10.24,5.917975 z m -2.17114,27.062279 c -0.58942,1.819438 -1.52163,3.509247 -2.74632,4.978227 -1.19791,1.426919 -2.70131,2.56624 -4.39899,3.333671 -3.82433,1.593663 -8.13004,1.576137 -11.94127,-0.04861 -1.73349,-0.77227 -3.28379,-1.902896 -4.54886,-3.317469 -1.2583,-1.442059 -2.22162,-3.116863 -2.83544,-4.92962 -1.32864,-3.983268 -1.32864,-8.29015 0,-12.273418 0.60715,-1.829141 1.57087,-3.519783 2.83544,-4.974177 1.26507,-1.414572 2.81537,-2.545198 4.54886,-3.317468 3.81123,-1.624744 8.11694,-1.642271 11.94127,-0.04861 1.699,0.761712 3.20513,1.895461 4.40709,3.317469 1.22469,1.46898 2.1569,3.158789 2.74633,4.978227 1.26379,4.008745 1.26379,8.309231 0,12.317975 z m 55.23443,19.90481 v -29.76 c 0,-3.780591 -1.0113,-6.71865 -3.03392,-8.814177 -2.02262,-2.095528 -4.64337,-3.137891 -7.86228,-3.127089 -1.58704,-0.01063 -3.16187,0.277947 -4.64202,0.850633 -1.42151,0.54984 -2.71278,1.389992 -3.7914,2.466835 -1.09391,1.100618 -1.96338,2.403445 -2.56,3.83595 -0.64078,1.539672 -0.9632,3.193139 -0.94784,4.860759 v 29.666836 h -11.8481 V 29.541266 h 11.8481 v 3.791392 c 1.70665,-1.427779 3.64707,-2.550094 5.73569,-3.317468 2.4485,-0.861183 5.03246,-1.27286 7.62734,-1.21519 2.72592,0.0023 5.4272,0.516157 7.96355,1.514937 2.55067,0.988156 4.87207,2.487969 6.82126,4.407088 2.04668,2.058615 3.65839,4.50786 4.73925,7.202026 1.24572,3.11825 1.85846,6.453225 1.80253,9.810633 V 81.685063 Z M 457.26785,40.631899 c -2.0928,-0.02822 -4.16026,0.460121 -6.01924,1.421772 -1.79765,0.943067 -3.37978,2.249317 -4.64608,3.835949 -1.33517,1.690758 -2.34719,3.613183 -2.98532,5.670886 -0.70137,2.227632 -1.05255,4.550668 -1.04101,6.886076 V 81.668861 H 430.7281 V 29.541266 h 11.8481 v 5.589873 c 1.7622,-1.776391 3.79358,-3.263697 6.01924,-4.407088 2.43038,-1.290802 5.44675,-1.937553 9.04912,-1.940254 H 460.48 v 11.848102 z"
       id="path240" />
    <path
       fill="url(#logo_full-colour-a)"
       d="m 65.749873,100.1924 c -25.167406,0 -45.56962,-20.402209 -45.56962,-45.569615 0,-0.891139 0.03241,-1.782279 0.08506,-2.673418 v -0.02025 c 0,-0.210633 0.0243,-0.405063 0.04051,-0.627848 0.03646,-0.558988 0.08911,-1.117975 0.153924,-1.668861 0.12962,-1.174684 0.303797,-2.343966 0.522531,-3.507848 -0.218734,1.161181 -0.392911,2.330464 -0.522531,3.507848 C 22.550258,32.138006 37.150276,18.820827 54.76267,18.343526 72.375063,17.866225 87.67492,30.37311 90.709873,47.728608 87.09043,24.318141 66.15743,7.5714606 42.523413,9.1787933 18.889395,10.786126 0.41651732,30.212772 0,53.897722 c 0.00600054,2.949688 0.24573827,5.894264 0.71696202,8.806075 0.0243038,0.137722 0.044557,0.279494 0.0729114,0.405064 -0.0283544,-0.141772 -0.0486076,-0.283545 -0.0729114,-0.405064 4.38459828,26.94005 27.65231298,46.729183 54.94683498,46.732153 28.143798,0 51.515953,-20.775697 55.250633,-47.890634 C 107.62127,83.524051 88.558987,100.1924 65.749873,100.1924 Z"
       id="path242" />
    <path
       fill="url(#logo_full-colour-b)"
       d="m 45.687089,9.2435443 c 25.165824,0.00224 45.565569,20.4037957 45.565569,45.5696207 0,0.891139 -0.027,1.782278 -0.08101,2.673417 v 0.03241 l -0.03646,0.627848 c -0.04051,0.558988 -0.09316,1.117975 -0.157975,1.668861 -0.12962,1.174684 -0.299747,2.345317 -0.522531,3.507848 0.222784,-1.162531 0.405063,-2.333164 0.522531,-3.507848 C 88.899474,77.318013 74.297724,90.647153 56.678983,91.124681 39.060241,91.602208 23.757929,79.08357 20.73519,61.719494 24.366207,85.118717 45.295505,101.85046 68.919976,100.2404 92.544447,98.630331 111.01015,79.213726 111.43291,55.538228 c -0.005,-2.949582 -0.24304,-5.894156 -0.71291,-8.806076 -0.0243,-0.137722 -0.0486,-0.279494 -0.077,-0.405063 0.0284,0.141772 0.0527,0.283544 0.077,0.405063 C 106.33359,19.791474 83.064548,0.00266966 55.769114,0 27.625316,0 4.2086076,20.885063 0.47392405,48 3.7670886,26.025316 22.873924,9.2435443 45.687089,9.2435443 Z"
       id="path244" />
    <path
       fill="#001f30"
       d="m 198.91848,29.541266 c -3.19746,-0.0029 -6.01442,2.101618 -6.91848,5.168607 l -8.14177,27.625317 v 0 L 173.62228,29.525063 h -11.1919 L 152.19443,62.33519 144.04861,34.709873 c -0.90035,-3.059172 -3.70527,-5.162039 -6.89418,-5.168607 h -7.21823 l 16.39696,52.127595 h 11.56456 l 10.12658,-32.222785 10.12659,32.222785 h 11.5605 L 206.13671,29.541266 Z M 425.80301,55.603038 C 425.82264,52.06421 425.21227,48.550089 424,45.225316 c -1.13626,-3.148269 -2.87381,-6.045574 -5.11595,-8.530633 -2.2795,-2.478904 -5.05669,-4.448608 -8.14987,-5.780253 -6.9233,-2.840772 -14.68683,-2.840772 -21.61013,0 -3.09439,1.329502 -5.872,3.299506 -8.14987,5.780253 -2.24484,2.483786 -3.98394,5.381373 -5.12,8.530633 -1.21227,3.324773 -1.82265,6.838894 -1.80253,10.377722 -0.0214,3.548562 0.62153,7.069785 1.89569,10.381772 1.20647,3.15064 3.00956,6.038879 5.31038,8.506329 2.33568,2.478972 5.15864,4.448289 8.29165,5.784304 3.42985,1.456599 7.12567,2.182244 10.85164,2.130633 6.25418,0 11.38498,-1.610802 15.39241,-4.832405 3.54025,-2.843544 6.47831,-6.894177 8.81417,-12.151899 h -13.1443 c -1.01529,1.4862 -2.28999,2.777364 -3.76304,3.811646 -1.9605,1.325907 -4.36118,1.988861 -7.20202,1.988861 -3.60507,0 -6.60658,-0.978904 -9.00456,-2.936709 -2.37987,-1.925164 -4.10253,-4.542428 -4.92962,-7.489621 h 39.23896 z m -38.96757,-6.156962 c 0.79622,-2.722049 2.42003,-5.128742 4.64608,-6.886076 2.21165,-1.736371 5.02278,-2.604557 8.43342,-2.604557 3.41063,0 6.22312,0.868186 8.43746,2.604557 2.22237,1.759948 3.84421,4.165819 4.64203,6.886076 z"
       id="path246" />
  </g>
</svg>
