<svg id="svg" xmlns="http://www.w3.org/2000/svg" xmlns:xlink="http://www.w3.org/1999/xlink" width="400" height="400" viewBox="0, 0, 400,400" version="1.1"><g id="svgg"><path id="path0" d="M269.700 11.076 C 270.085 11.176,270.715 11.176,271.100 11.076 C 271.485 10.975,271.170 10.893,270.400 10.893 C 269.630 10.893,269.315 10.975,269.700 11.076 M121.200 13.833 C 121.200 14.182,121.414 14.395,121.675 14.308 C 122.417 14.061,122.540 13.200,121.833 13.200 C 121.485 13.200,121.200 13.485,121.200 13.833 M281.424 15.387 C 282.442 16.158,283.024 16.167,282.257 15.400 C 281.927 15.070,281.430 14.800,281.152 14.800 C 280.869 14.800,280.988 15.058,281.424 15.387 M86.460 32.642 C 85.648 33.559,86.071 33.636,87.144 32.766 C 87.683 32.329,87.855 32.007,87.544 32.015 C 87.245 32.024,86.757 32.305,86.460 32.642 M93.200 120.836 C 92.210 121.021,89.510 121.435,87.200 121.756 C 84.890 122.077,82.190 122.598,81.200 122.915 C 80.210 123.232,78.680 123.682,77.800 123.915 C 75.244 124.591,72.328 125.594,70.600 126.391 C 67.288 127.920,63.746 129.703,62.200 130.620 C 61.320 131.141,60.060 131.873,59.400 132.245 C 53.107 135.793,41.817 147.089,38.236 153.421 C 37.869 154.069,37.146 155.320,36.631 156.200 C 34.067 160.575,30.560 168.806,29.642 172.600 C 29.429 173.480,28.980 174.920,28.645 175.800 C 28.310 176.680,28.027 177.990,28.018 178.711 C 28.008 179.431,27.606 181.501,27.124 183.311 C 25.798 188.287,25.801 210.399,27.128 215.655 C 27.607 217.555,28.000 219.573,28.000 220.140 C 28.000 220.707,28.335 222.032,28.745 223.085 C 29.155 224.138,29.618 225.699,29.774 226.554 C 29.929 227.409,30.404 228.756,30.828 229.548 C 31.253 230.340,31.600 231.315,31.600 231.715 C 31.600 232.115,31.957 233.107,32.393 233.921 C 32.830 234.734,33.750 236.570,34.438 238.000 C 35.126 239.430,36.112 241.320,36.628 242.200 C 37.145 243.080,37.867 244.327,38.231 244.971 C 45.654 258.084,62.967 270.971,78.000 274.572 C 79.210 274.862,81.280 275.378,82.600 275.718 C 88.668 277.281,100.139 278.238,105.800 277.653 C 114.413 276.764,116.768 276.361,123.600 274.609 C 139.250 270.597,154.002 259.720,163.215 245.400 C 165.662 241.595,165.947 241.123,166.355 240.200 C 166.549 239.760,167.435 237.870,168.323 236.000 C 169.212 234.130,170.070 232.060,170.231 231.400 C 170.391 230.740,170.855 229.573,171.261 228.806 C 171.668 228.039,172.000 227.011,172.000 226.521 C 172.000 226.031,172.335 224.768,172.744 223.715 C 173.154 222.662,173.613 220.835,173.764 219.655 C 173.915 218.476,174.346 216.406,174.720 215.055 C 175.715 211.464,175.727 187.396,174.735 183.800 C 174.371 182.480,173.956 180.500,173.812 179.400 C 173.669 178.300,173.292 176.673,172.975 175.785 C 172.658 174.897,172.144 173.277,171.832 172.185 C 171.102 169.625,169.792 165.927,169.273 164.958 C 169.050 164.541,167.840 162.089,166.585 159.509 C 165.330 156.929,164.055 154.612,163.752 154.360 C 163.448 154.108,163.200 153.682,163.200 153.413 C 163.200 153.144,162.840 152.598,162.400 152.200 C 161.960 151.802,161.600 151.318,161.600 151.124 C 161.600 149.909,153.200 140.657,148.815 137.041 C 143.151 132.371,132.963 126.558,128.400 125.392 C 127.850 125.251,126.828 124.879,126.130 124.563 C 125.431 124.248,123.991 123.823,122.930 123.619 C 121.868 123.415,120.212 122.967,119.250 122.624 C 118.287 122.281,116.937 121.999,116.250 121.999 C 115.562 121.998,112.840 121.639,110.200 121.200 C 105.166 120.363,96.702 120.182,93.200 120.836 M276.400 121.930 C 273.066 122.339,270.397 124.573,268.910 128.200 C 268.058 130.279,267.263 245.023,267.998 260.000 C 268.536 270.991,272.030 273.691,284.873 273.045 C 288.109 272.882,290.158 272.569,291.536 272.025 C 296.493 270.071,307.510 270.078,311.165 272.037 C 311.948 272.457,312.861 272.801,313.194 272.802 C 313.527 272.804,314.340 273.095,315.000 273.450 C 321.128 276.743,339.877 276.728,346.212 273.425 C 346.865 273.084,347.639 272.804,347.932 272.802 C 348.757 272.799,355.128 269.278,357.591 267.465 C 362.980 263.498,368.989 256.022,371.628 250.000 C 371.869 249.450,372.411 248.334,372.833 247.521 C 373.255 246.707,373.601 245.717,373.602 245.321 C 373.604 244.924,373.890 244.060,374.238 243.400 C 374.586 242.740,375.121 241.120,375.427 239.800 C 375.733 238.480,376.249 236.320,376.573 235.000 C 379.557 222.865,379.469 204.879,376.374 194.400 C 375.951 192.970,375.487 191.260,375.341 190.600 C 375.196 189.940,374.745 188.773,374.339 188.006 C 373.932 187.239,373.600 186.393,373.600 186.125 C 373.600 185.480,370.673 179.921,369.007 177.400 C 366.290 173.290,359.901 167.164,356.247 165.164 C 353.378 163.594,350.056 162.000,349.654 162.000 C 349.416 162.000,348.452 161.654,347.511 161.231 C 340.071 157.885,326.403 157.931,316.000 161.336 C 300.512 166.406,296.404 162.661,296.398 143.465 C 296.392 123.814,292.778 119.922,276.400 121.930 M10.901 133.000 C 10.905 133.880,10.987 134.193,11.083 133.695 C 11.179 133.198,11.175 132.478,11.075 132.095 C 10.975 131.713,10.896 132.120,10.901 133.000 M112.183 146.751 C 113.238 147.218,114.429 147.600,114.830 147.600 C 115.230 147.600,116.352 148.022,117.323 148.539 C 118.295 149.055,119.429 149.600,119.845 149.748 C 120.620 150.026,122.134 150.927,125.234 152.955 C 129.026 155.435,134.360 161.519,137.897 167.400 C 138.902 169.071,141.200 173.999,141.202 174.489 C 141.204 174.770,141.487 175.540,141.833 176.200 C 142.178 176.860,142.644 178.390,142.867 179.600 C 143.091 180.810,143.449 182.012,143.662 182.271 C 145.890 184.976,145.821 210.144,143.568 216.902 C 143.145 218.167,142.794 219.607,142.786 220.102 C 142.779 220.596,142.425 221.720,142.000 222.600 C 141.575 223.480,141.221 224.400,141.214 224.644 C 141.196 225.220,138.598 230.648,137.596 232.200 C 137.171 232.860,136.466 234.051,136.031 234.846 C 134.836 237.027,129.513 242.500,126.266 244.886 C 122.723 247.489,121.730 248.075,117.961 249.784 C 116.730 250.343,115.416 250.800,115.042 250.800 C 114.667 250.800,113.828 251.075,113.178 251.411 C 112.040 252.000,110.427 252.283,102.561 253.274 C 98.432 253.794,91.150 252.992,87.400 251.604 C 86.300 251.197,84.983 250.743,84.473 250.596 C 79.277 249.098,65.600 237.218,65.600 234.204 C 65.600 234.016,65.341 233.577,65.025 233.227 C 63.586 231.637,60.214 223.975,59.116 219.800 C 58.884 218.920,58.359 217.045,57.948 215.633 C 57.536 214.221,57.203 212.511,57.206 211.833 C 57.209 211.155,56.910 208.009,56.542 204.843 C 55.854 198.937,56.422 187.900,57.666 183.000 C 57.890 182.120,58.309 180.364,58.599 179.097 C 59.186 176.531,60.479 172.967,61.637 170.721 C 62.057 169.907,62.400 169.043,62.400 168.801 C 62.400 167.745,67.975 160.068,70.825 157.199 C 76.705 151.279,85.138 146.963,92.800 145.952 C 97.631 145.315,110.097 145.829,112.183 146.751 M5.200 153.000 C 4.792 153.491,4.820 153.600,5.351 153.600 C 5.708 153.600,6.000 153.330,6.000 153.000 C 6.000 152.670,5.932 152.400,5.849 152.400 C 5.766 152.400,5.474 152.670,5.200 153.000 M199.400 156.168 C 194.282 157.846,192.432 159.771,190.854 165.062 C 190.004 167.912,190.000 168.116,190.000 213.956 L 190.000 259.988 190.997 263.428 C 192.244 267.731,193.301 269.322,196.428 271.600 C 197.780 272.586,197.927 272.602,206.739 272.722 L 215.678 272.843 217.739 271.774 C 220.963 270.102,223.224 266.905,224.086 262.800 C 224.293 261.810,224.602 248.850,224.771 234.000 C 225.140 201.696,225.063 202.281,229.652 196.670 C 233.105 192.448,236.770 190.230,244.358 187.773 C 253.154 184.924,256.835 179.783,256.797 170.400 C 256.756 160.285,251.699 156.160,241.686 158.073 C 239.329 158.524,236.914 159.141,236.320 159.446 C 234.832 160.209,228.567 160.187,227.083 159.412 C 226.469 159.092,225.299 158.713,224.483 158.570 C 223.667 158.427,222.595 158.056,222.101 157.746 C 221.606 157.436,219.806 156.920,218.101 156.598 C 216.395 156.277,214.190 155.839,213.200 155.625 C 209.712 154.869,202.495 155.154,199.400 156.168 M3.467 161.067 C 2.868 161.666,3.173 162.520,3.800 162.000 C 4.130 161.726,4.400 161.344,4.400 161.151 C 4.400 160.737,3.847 160.687,3.467 161.067 M327.600 179.194 C 333.788 180.386,340.223 184.742,342.780 189.468 C 343.236 190.311,343.775 191.270,343.979 191.600 C 345.491 194.050,347.501 199.893,348.244 204.000 C 348.543 205.650,348.962 207.810,349.176 208.800 C 349.933 212.301,349.684 226.223,348.800 229.800 C 348.365 231.560,348.001 233.360,347.991 233.800 C 347.981 234.240,347.625 235.320,347.200 236.200 C 346.775 237.080,346.421 237.980,346.413 238.200 C 346.396 238.652,344.014 243.292,343.640 243.600 C 343.507 243.710,342.882 244.560,342.252 245.489 C 337.160 252.997,326.255 257.112,317.626 254.784 C 307.211 251.973,301.451 244.944,297.971 230.800 C 296.927 226.555,296.594 208.411,297.498 205.000 C 297.732 204.120,298.273 202.046,298.701 200.391 C 299.129 198.737,299.673 197.027,299.911 196.591 C 300.148 196.156,300.711 194.990,301.160 194.000 C 305.974 183.405,317.104 177.173,327.600 179.194 M397.246 234.077 C 397.221 234.450,396.800 235.035,396.311 235.377 C 395.822 235.720,395.655 236.000,395.940 236.000 C 396.759 236.000,397.676 234.866,397.476 234.099 C 397.310 233.467,397.288 233.465,397.246 234.077 M388.893 264.800 C 388.893 265.570,388.975 265.885,389.076 265.500 C 389.176 265.115,389.176 264.485,389.076 264.100 C 388.975 263.715,388.893 264.030,388.893 264.800 M10.901 265.400 C 10.905 266.280,10.987 266.593,11.083 266.095 C 11.179 265.598,11.175 264.878,11.075 264.495 C 10.975 264.113,10.896 264.520,10.901 265.400 M380.400 285.200 C 380.083 285.396,379.956 285.689,380.118 285.852 C 380.281 286.014,380.623 285.937,380.880 285.680 C 381.484 285.076,381.147 284.738,380.400 285.200 M281.424 383.013 C 280.988 383.342,280.869 383.600,281.152 383.600 C 281.430 383.600,281.927 383.330,282.257 383.000 C 283.024 382.233,282.442 382.242,281.424 383.013 M133.105 389.083 C 133.602 389.179,134.322 389.175,134.705 389.075 C 135.087 388.975,134.680 388.896,133.800 388.901 C 132.920 388.905,132.607 388.987,133.105 389.083 M264.705 389.083 C 265.202 389.179,265.922 389.175,266.305 389.075 C 266.687 388.975,266.280 388.896,265.400 388.901 C 264.520 388.905,264.207 388.987,264.705 389.083 M237.058 396.192 C 236.926 396.537,236.409 396.983,235.909 397.184 C 235.323 397.419,235.227 397.558,235.638 397.575 C 236.329 397.602,237.865 396.132,237.514 395.780 C 237.395 395.662,237.191 395.848,237.058 396.192 M174.000 398.600 C 174.274 398.930,174.678 399.200,174.898 399.200 C 175.121 399.200,175.078 398.935,174.800 398.600 C 174.526 398.270,174.122 398.000,173.902 398.000 C 173.679 398.000,173.722 398.265,174.000 398.600 " stroke="none" fill="#fbf9f7" fill-rule="evenodd"></path><path id="path1" d="M154.889 3.023 C 154.400 3.365,154.000 3.850,154.000 4.099 C 154.000 4.349,154.225 4.245,154.500 3.868 C 154.776 3.492,155.541 3.023,156.200 2.826 C 157.046 2.574,157.161 2.459,156.589 2.434 C 156.143 2.415,155.378 2.680,154.889 3.023 M243.700 2.865 C 244.305 3.086,244.800 3.412,244.800 3.591 C 244.800 3.769,245.115 4.024,245.500 4.159 C 245.917 4.305,245.747 3.999,245.078 3.402 C 244.460 2.851,243.650 2.414,243.278 2.432 C 242.878 2.450,243.051 2.628,243.700 2.865 M101.144 23.987 C 100.625 24.419,100.343 24.779,100.517 24.787 C 100.691 24.794,101.220 24.440,101.692 24.000 C 102.799 22.969,102.379 22.958,101.144 23.987 M86.018 33.450 C 85.258 33.989,84.538 34.537,84.418 34.666 C 83.972 35.148,86.982 33.475,87.509 32.948 C 88.367 32.091,87.541 32.368,86.018 33.450 M88.800 120.015 C 88.030 120.209,86.410 120.568,85.200 120.812 C 79.269 122.008,75.110 123.165,73.320 124.118 C 72.616 124.493,71.695 124.800,71.274 124.800 C 70.853 124.800,70.079 125.137,69.554 125.548 C 69.029 125.959,68.027 126.421,67.328 126.574 C 66.628 126.726,65.855 127.092,65.611 127.386 C 65.367 127.681,64.707 128.037,64.143 128.178 C 63.580 128.320,62.643 128.761,62.060 129.159 C 61.477 129.557,59.650 130.759,58.000 131.831 C 49.926 137.074,43.066 143.927,37.811 152.000 C 36.737 153.650,35.538 155.477,35.147 156.060 C 34.756 156.643,34.320 157.580,34.178 158.143 C 34.037 158.707,33.669 159.377,33.361 159.633 C 33.052 159.889,32.800 160.319,32.800 160.589 C 32.800 160.860,32.350 161.927,31.800 162.962 C 31.250 163.996,30.800 165.060,30.800 165.327 C 30.800 165.594,30.466 166.439,30.059 167.206 C 29.651 167.973,29.185 169.314,29.024 170.186 C 28.863 171.059,28.490 172.240,28.194 172.812 C 27.898 173.383,27.527 175.009,27.368 176.425 C 27.209 177.841,26.828 179.387,26.520 179.860 C 26.185 180.375,25.810 182.704,25.586 185.660 C 25.381 188.377,25.040 191.500,24.830 192.600 C 24.346 195.133,24.352 203.053,24.840 206.200 C 25.045 207.520,25.379 210.730,25.582 213.333 C 25.801 216.135,26.182 218.420,26.515 218.933 C 26.826 219.410,27.208 220.949,27.366 222.354 C 27.523 223.758,27.897 225.288,28.196 225.754 C 28.496 226.219,28.871 227.320,29.029 228.200 C 29.188 229.080,29.651 230.427,30.059 231.194 C 30.466 231.961,30.800 232.836,30.800 233.140 C 30.800 233.443,31.145 234.346,31.566 235.146 C 31.988 235.945,32.909 237.770,33.613 239.200 C 35.746 243.528,39.284 249.290,40.774 250.860 C 41.118 251.222,42.029 252.302,42.798 253.260 C 48.056 259.805,57.639 267.475,64.800 270.870 C 69.706 273.195,70.684 273.600,71.395 273.600 C 71.803 273.600,72.434 273.868,72.796 274.197 C 73.159 274.525,74.388 274.970,75.528 275.186 C 76.667 275.402,78.095 275.831,78.700 276.139 C 79.305 276.446,80.880 276.821,82.200 276.971 C 83.520 277.121,85.500 277.549,86.600 277.922 C 88.307 278.501,90.386 278.600,100.800 278.600 C 111.214 278.600,113.293 278.501,115.000 277.922 C 116.100 277.549,118.080 277.121,119.400 276.971 C 120.720 276.821,122.295 276.446,122.900 276.139 C 123.505 275.831,124.933 275.402,126.072 275.186 C 127.212 274.970,128.441 274.525,128.804 274.197 C 129.166 273.868,129.797 273.600,130.205 273.600 C 130.613 273.600,131.769 273.220,132.774 272.756 C 136.972 270.817,139.057 269.779,140.000 269.161 C 140.550 268.801,141.900 267.941,143.000 267.250 C 144.100 266.560,145.344 265.771,145.765 265.497 C 152.496 261.120,166.000 246.054,166.000 242.922 C 166.000 242.635,166.159 242.400,166.352 242.400 C 166.836 242.400,171.190 233.420,171.213 232.374 C 171.220 232.058,171.482 231.461,171.796 231.046 C 172.110 230.631,172.491 229.461,172.642 228.446 C 172.794 227.431,173.180 226.197,173.502 225.704 C 173.823 225.212,174.229 223.772,174.404 222.504 C 174.580 221.237,175.002 219.480,175.344 218.600 C 175.685 217.720,175.973 216.053,175.982 214.896 C 175.992 213.738,176.288 211.038,176.640 208.896 C 177.463 203.884,177.455 194.555,176.622 190.000 C 176.281 188.130,175.993 185.520,175.983 184.200 C 175.973 182.880,175.687 181.080,175.347 180.200 C 175.007 179.320,174.562 177.530,174.359 176.222 C 174.156 174.914,173.745 173.470,173.445 173.013 C 173.146 172.556,172.774 171.432,172.619 170.515 C 172.464 169.597,171.992 168.168,171.569 167.339 C 171.146 166.509,170.800 165.616,170.800 165.352 C 170.800 164.914,169.209 161.422,168.362 160.000 C 168.165 159.670,167.713 158.725,167.359 157.900 C 167.004 157.075,166.570 156.400,166.396 156.400 C 166.221 156.400,165.899 155.885,165.679 155.256 C 165.084 153.548,160.971 147.727,157.727 144.000 C 154.276 140.037,148.514 134.959,143.332 131.315 C 141.612 130.106,134.571 126.400,133.994 126.400 C 133.737 126.400,133.069 126.040,132.509 125.600 C 131.950 125.160,131.060 124.800,130.532 124.800 C 130.004 124.800,129.139 124.517,128.611 124.170 C 128.082 123.824,126.525 123.278,125.151 122.958 C 123.776 122.637,122.454 122.211,122.213 122.011 C 121.972 121.811,120.292 121.461,118.480 121.234 C 116.668 121.007,114.784 120.591,114.293 120.310 C 113.224 119.699,91.064 119.442,88.800 120.015 M276.083 120.748 C 270.527 121.986,268.015 124.865,267.001 131.157 C 266.355 135.172,265.847 254.166,266.457 258.800 C 266.645 260.230,266.960 262.660,267.156 264.200 C 267.766 268.981,270.843 272.976,274.287 273.458 C 275.119 273.574,276.479 273.924,277.308 274.235 C 279.291 274.978,285.509 274.978,287.492 274.235 C 288.321 273.924,289.888 273.563,290.974 273.432 C 292.060 273.302,293.410 272.888,293.974 272.512 C 295.483 271.507,307.337 271.474,308.859 272.471 C 309.422 272.840,310.584 273.271,311.442 273.429 C 312.299 273.587,313.429 274.050,313.954 274.458 C 314.479 274.866,315.401 275.200,316.003 275.200 C 316.605 275.200,317.976 275.603,319.049 276.096 C 321.959 277.433,338.672 277.450,341.800 276.119 C 342.900 275.651,344.497 275.170,345.350 275.051 C 346.202 274.932,347.192 274.579,347.550 274.268 C 347.907 273.956,348.857 273.584,349.660 273.440 C 350.463 273.296,351.340 272.914,351.609 272.589 C 351.878 272.265,352.314 272.000,352.577 272.000 C 354.453 272.000,363.285 264.668,366.489 260.450 C 367.429 259.213,368.295 258.110,368.414 258.000 C 368.992 257.464,371.200 253.803,371.200 253.380 C 371.200 253.115,371.458 252.683,371.774 252.421 C 372.090 252.159,372.474 251.372,372.626 250.672 C 372.779 249.973,373.241 248.971,373.652 248.446 C 374.063 247.921,374.401 247.111,374.403 246.646 C 374.404 246.181,374.763 245.260,375.200 244.600 C 375.637 243.940,375.996 243.002,375.997 242.515 C 375.999 242.028,376.355 240.678,376.789 239.515 C 377.223 238.352,377.757 236.140,377.974 234.600 C 378.192 233.060,378.602 231.170,378.885 230.400 C 379.612 228.424,379.624 201.138,378.899 199.400 C 378.624 198.740,378.147 196.850,377.840 195.200 C 377.244 191.994,376.365 189.184,375.150 186.600 C 374.736 185.720,374.398 184.799,374.399 184.554 C 374.400 184.309,374.065 183.679,373.655 183.154 C 373.245 182.629,372.770 181.753,372.599 181.208 C 372.428 180.662,371.980 179.762,371.603 179.208 C 371.227 178.653,370.217 177.135,369.360 175.834 C 366.809 171.965,359.216 164.800,357.666 164.800 C 357.464 164.800,357.096 164.557,356.850 164.260 C 355.908 163.125,348.200 159.756,345.686 159.381 C 344.744 159.240,343.394 158.830,342.686 158.470 C 340.778 157.498,323.188 157.497,321.395 158.469 C 320.732 158.829,319.302 159.256,318.216 159.418 C 317.131 159.581,315.513 160.032,314.622 160.420 C 307.551 163.497,301.774 162.159,298.992 156.800 L 297.850 154.600 297.625 142.560 C 297.474 134.495,297.250 130.336,296.946 129.960 C 296.697 129.652,296.363 128.796,296.205 128.057 C 294.869 121.817,285.902 118.559,276.083 120.748 M110.200 121.200 C 112.840 121.639,115.562 121.998,116.250 121.999 C 116.937 121.999,118.287 122.281,119.250 122.624 C 120.212 122.967,121.868 123.415,122.930 123.619 C 123.991 123.823,125.431 124.248,126.130 124.563 C 126.828 124.879,127.850 125.251,128.400 125.392 C 132.963 126.558,143.151 132.371,148.815 137.041 C 153.200 140.657,161.600 149.909,161.600 151.124 C 161.600 151.318,161.960 151.802,162.400 152.200 C 162.840 152.598,163.200 153.144,163.200 153.413 C 163.200 153.682,163.448 154.108,163.752 154.360 C 164.055 154.612,165.330 156.929,166.585 159.509 C 167.840 162.089,169.050 164.541,169.273 164.958 C 169.792 165.927,171.102 169.625,171.832 172.185 C 172.144 173.277,172.658 174.897,172.975 175.785 C 173.292 176.673,173.669 178.300,173.812 179.400 C 173.956 180.500,174.371 182.480,174.735 183.800 C 175.727 187.396,175.715 211.464,174.720 215.055 C 174.346 216.406,173.915 218.476,173.764 219.655 C 173.613 220.835,173.154 222.662,172.744 223.715 C 172.335 224.768,172.000 226.031,172.000 226.521 C 172.000 227.011,171.668 228.039,171.261 228.806 C 170.855 229.573,170.391 230.740,170.231 231.400 C 170.070 232.060,169.212 234.130,168.323 236.000 C 167.435 237.870,166.549 239.760,166.355 240.200 C 165.947 241.123,165.662 241.595,163.215 245.400 C 152.044 262.765,134.157 273.990,113.200 276.786 C 105.867 277.765,101.651 278.056,98.200 277.824 C 93.088 277.479,85.417 276.444,82.600 275.718 C 81.280 275.378,79.210 274.862,78.000 274.572 C 69.479 272.531,58.418 266.633,51.420 260.400 C 46.209 255.758,40.667 249.275,38.231 244.971 C 37.867 244.327,37.145 243.080,36.628 242.200 C 36.112 241.320,35.126 239.430,34.438 238.000 C 33.750 236.570,32.830 234.734,32.393 233.921 C 31.957 233.107,31.600 232.115,31.600 231.715 C 31.600 231.315,31.253 230.340,30.828 229.548 C 30.404 228.756,29.929 227.409,29.774 226.554 C 29.618 225.699,29.155 224.138,28.745 223.085 C 28.335 222.032,28.000 220.707,28.000 220.140 C 28.000 219.573,27.607 217.555,27.128 215.655 C 25.801 210.399,25.798 188.287,27.124 183.311 C 27.606 181.501,28.008 179.431,28.018 178.711 C 28.027 177.990,28.310 176.680,28.645 175.800 C 28.980 174.920,29.429 173.480,29.642 172.600 C 30.560 168.806,34.067 160.575,36.631 156.200 C 37.146 155.320,37.869 154.069,38.236 153.421 C 41.817 147.089,53.107 135.793,59.400 132.245 C 60.060 131.873,61.320 131.141,62.200 130.620 C 63.746 129.703,67.288 127.920,70.600 126.391 C 72.328 125.594,75.244 124.591,77.800 123.915 C 78.680 123.682,80.210 123.232,81.200 122.915 C 82.190 122.598,84.890 122.077,87.200 121.756 C 89.510 121.435,92.210 121.021,93.200 120.836 C 96.702 120.182,105.166 120.363,110.200 121.200 M290.997 123.198 C 295.303 126.160,296.394 130.254,296.398 143.465 C 296.404 162.661,300.512 166.406,316.000 161.336 C 326.403 157.931,340.071 157.885,347.511 161.231 C 348.452 161.654,349.416 162.000,349.654 162.000 C 350.056 162.000,353.378 163.594,356.247 165.164 C 359.901 167.164,366.290 173.290,369.007 177.400 C 370.673 179.921,373.600 185.480,373.600 186.125 C 373.600 186.393,373.932 187.239,374.339 188.006 C 374.745 188.773,375.196 189.940,375.341 190.600 C 375.487 191.260,375.951 192.970,376.374 194.400 C 379.469 204.879,379.557 222.865,376.573 235.000 C 376.249 236.320,375.733 238.480,375.427 239.800 C 375.121 241.120,374.586 242.740,374.238 243.400 C 373.890 244.060,373.604 244.924,373.602 245.321 C 373.601 245.717,373.255 246.707,372.833 247.521 C 372.411 248.334,371.869 249.450,371.628 250.000 C 368.989 256.022,362.980 263.498,357.591 267.465 C 355.128 269.278,348.757 272.799,347.932 272.802 C 347.639 272.804,346.865 273.084,346.212 273.425 C 339.877 276.728,321.128 276.743,315.000 273.450 C 314.340 273.095,313.527 272.804,313.194 272.802 C 312.861 272.801,311.948 272.457,311.165 272.037 C 307.510 270.078,296.493 270.071,291.536 272.025 C 286.469 274.022,275.130 273.422,272.175 271.001 C 267.451 267.130,267.685 271.428,267.911 192.400 C 268.118 120.387,267.639 126.921,273.000 123.063 C 275.706 121.116,288.106 121.209,290.997 123.198 M92.800 145.952 C 85.138 146.963,76.705 151.279,70.825 157.199 C 67.975 160.068,62.400 167.745,62.400 168.801 C 62.400 169.043,62.057 169.907,61.637 170.721 C 60.479 172.967,59.186 176.531,58.599 179.097 C 58.309 180.364,57.890 182.120,57.666 183.000 C 56.422 187.900,55.854 198.937,56.542 204.843 C 56.910 208.009,57.209 211.155,57.206 211.833 C 57.203 212.511,57.536 214.221,57.948 215.633 C 58.359 217.045,58.884 218.920,59.116 219.800 C 60.214 223.975,63.586 231.637,65.025 233.227 C 65.341 233.577,65.600 234.016,65.600 234.204 C 65.600 237.218,79.277 249.098,84.473 250.596 C 84.983 250.743,86.300 251.197,87.400 251.604 C 91.150 252.992,98.432 253.794,102.561 253.274 C 110.427 252.283,112.040 252.000,113.178 251.411 C 113.828 251.075,114.667 250.800,115.042 250.800 C 115.416 250.800,116.730 250.343,117.961 249.784 C 121.730 248.075,122.723 247.489,126.266 244.886 C 129.513 242.500,134.836 237.027,136.031 234.846 C 136.466 234.051,137.171 232.860,137.596 232.200 C 138.598 230.648,141.196 225.220,141.214 224.644 C 141.221 224.400,141.575 223.480,142.000 222.600 C 142.425 221.720,142.779 220.596,142.786 220.102 C 142.794 219.607,143.145 218.167,143.568 216.902 C 145.821 210.144,145.890 184.976,143.662 182.271 C 143.449 182.012,143.091 180.810,142.867 179.600 C 142.644 178.390,142.178 176.860,141.833 176.200 C 141.487 175.540,141.204 174.770,141.202 174.489 C 141.200 173.999,138.902 169.071,137.897 167.400 C 134.360 161.519,129.026 155.435,125.234 152.955 C 122.134 150.927,120.620 150.026,119.845 149.748 C 119.429 149.600,118.295 149.055,117.323 148.539 C 116.352 148.022,115.230 147.600,114.830 147.600 C 114.429 147.600,113.238 147.218,112.183 146.751 C 110.097 145.829,97.631 145.315,92.800 145.952 M109.942 147.633 C 111.340 148.055,112.820 148.400,113.231 148.400 C 113.642 148.400,114.748 148.742,115.689 149.160 C 116.630 149.578,117.850 150.116,118.400 150.357 C 119.403 150.796,119.641 150.933,122.600 152.778 C 124.800 154.150,127.959 156.668,129.400 158.198 C 131.801 160.748,134.630 164.226,135.318 165.473 C 135.583 165.954,136.475 167.535,137.300 168.987 C 138.125 170.439,138.800 171.867,138.800 172.160 C 138.800 172.453,139.160 173.150,139.600 173.709 C 140.040 174.269,140.400 175.150,140.400 175.669 C 140.400 176.188,140.743 177.252,141.162 178.034 C 141.581 178.816,142.054 180.524,142.213 181.828 C 142.372 183.133,142.794 184.740,143.151 185.400 C 144.129 187.209,144.120 211.019,143.140 213.407 C 142.778 214.291,142.351 216.050,142.193 217.315 C 142.035 218.580,141.567 220.280,141.153 221.092 C 140.739 221.905,140.400 222.874,140.400 223.248 C 140.400 223.836,139.024 226.984,137.972 228.800 C 137.781 229.130,137.263 230.120,136.822 231.000 C 135.032 234.571,129.392 241.496,126.963 243.106 C 126.543 243.384,125.660 243.965,125.000 244.396 C 124.340 244.828,123.482 245.407,123.093 245.683 C 122.329 246.227,120.400 247.279,118.800 248.025 C 115.691 249.474,114.438 249.930,112.977 250.146 C 112.084 250.277,110.734 250.694,109.977 251.072 C 107.722 252.198,91.709 252.090,89.200 250.932 C 88.210 250.475,86.743 249.983,85.940 249.840 C 85.137 249.696,84.275 249.331,84.024 249.029 C 83.773 248.726,83.116 248.365,82.564 248.227 C 81.692 248.008,79.887 246.857,75.032 243.426 C 74.003 242.699,73.148 241.872,71.076 239.600 C 70.359 238.814,66.737 233.983,66.114 232.981 C 64.697 230.705,61.200 223.039,61.200 222.209 C 61.200 221.856,60.865 220.900,60.457 220.084 C 60.048 219.268,59.600 217.470,59.462 216.090 C 59.323 214.709,58.898 212.999,58.517 212.290 C 57.498 210.394,57.504 186.996,58.524 184.730 C 58.888 183.921,59.304 182.211,59.449 180.930 C 59.594 179.648,60.025 177.970,60.407 177.200 C 60.790 176.430,61.235 175.185,61.398 174.433 C 61.560 173.682,62.031 172.512,62.445 171.833 C 62.859 171.155,63.198 170.358,63.199 170.063 C 63.199 169.768,63.560 169.069,64.000 168.509 C 64.440 167.950,64.800 167.165,64.800 166.766 C 64.800 166.367,65.044 165.896,65.342 165.720 C 65.639 165.544,66.116 164.950,66.400 164.400 C 68.445 160.444,76.354 153.200,80.537 151.452 C 81.288 151.138,82.025 150.683,82.175 150.441 C 82.325 150.198,82.847 150.000,83.335 150.000 C 83.823 150.000,84.614 149.725,85.093 149.390 C 85.573 149.054,87.008 148.598,88.282 148.377 C 89.557 148.156,91.050 147.772,91.600 147.524 C 94.387 146.264,105.626 146.332,109.942 147.633 M197.173 155.534 C 195.948 156.120,194.636 156.870,194.256 157.200 C 192.311 158.892,191.156 160.339,190.744 161.600 C 190.492 162.370,190.042 163.355,189.743 163.789 C 188.949 164.942,188.933 263.021,189.726 264.211 C 190.015 264.645,190.476 265.775,190.749 266.723 C 191.458 269.181,195.389 273.071,197.478 273.382 C 198.315 273.507,199.768 273.787,200.706 274.005 C 202.899 274.513,210.966 274.516,213.469 274.009 C 214.531 273.794,216.040 273.523,216.823 273.406 C 218.190 273.201,218.674 272.923,221.219 270.879 C 222.844 269.574,224.681 266.149,225.017 263.800 C 225.174 262.700,225.504 261.440,225.751 261.000 C 226.066 260.439,226.260 251.745,226.400 231.942 C 226.580 206.559,226.666 203.608,227.253 202.942 C 227.612 202.534,228.042 201.753,228.209 201.208 C 229.120 198.228,235.907 191.600,238.046 191.600 C 238.283 191.600,238.954 191.266,239.538 190.859 C 240.122 190.451,241.297 190.009,242.150 189.876 C 243.002 189.743,244.006 189.357,244.381 189.017 C 244.756 188.678,245.395 188.400,245.800 188.400 C 249.096 188.400,255.192 183.280,256.800 179.162 C 258.340 175.215,258.270 165.581,256.678 162.543 C 255.584 160.453,253.562 158.000,252.934 158.000 C 252.744 158.000,251.871 157.600,250.994 157.110 C 248.940 155.964,242.371 155.803,240.760 156.859 C 240.221 157.211,238.795 157.628,237.590 157.783 C 236.386 157.939,234.588 158.299,233.596 158.583 C 231.684 159.131,224.857 158.007,223.554 156.929 C 223.249 156.678,222.280 156.349,221.400 156.199 C 220.520 156.048,218.848 155.582,217.685 155.163 C 214.021 153.841,200.187 154.092,197.173 155.534 M213.200 155.625 C 214.190 155.839,216.395 156.277,218.101 156.598 C 219.806 156.920,221.606 157.436,222.101 157.746 C 222.595 158.056,223.667 158.427,224.483 158.570 C 225.299 158.713,226.469 159.092,227.083 159.412 C 228.567 160.187,234.832 160.209,236.320 159.446 C 236.914 159.141,239.329 158.524,241.686 158.073 C 251.699 156.160,256.756 160.285,256.797 170.400 C 256.835 179.783,253.154 184.924,244.358 187.773 C 236.770 190.230,233.105 192.448,229.652 196.670 C 225.063 202.281,225.140 201.696,224.771 234.000 C 224.602 248.850,224.293 261.810,224.086 262.800 C 223.224 266.905,220.963 270.102,217.739 271.774 L 215.678 272.843 206.739 272.722 C 197.927 272.602,197.780 272.586,196.428 271.600 C 193.301 269.322,192.244 267.731,190.997 263.428 L 190.000 259.988 190.000 213.956 C 190.000 162.689,189.878 165.063,192.733 160.595 C 195.507 156.255,205.220 153.896,213.200 155.625 M3.429 162.229 C 3.005 162.538,2.736 162.869,2.830 162.963 C 2.924 163.057,3.348 162.881,3.771 162.571 C 4.195 162.262,4.464 161.931,4.370 161.837 C 4.276 161.743,3.852 161.919,3.429 162.229 M396.196 163.243 C 396.633 163.770,397.038 164.275,397.096 164.367 C 397.153 164.458,397.200 164.277,397.200 163.963 C 397.200 163.649,396.795 163.144,396.300 162.840 L 395.400 162.287 396.196 163.243 M398.533 176.171 C 398.785 176.705,399.055 177.078,399.132 177.001 C 399.381 176.753,398.758 175.200,398.411 175.200 C 398.226 175.200,398.281 175.637,398.533 176.171 M319.400 179.215 C 311.470 180.775,304.662 186.294,301.160 194.000 C 300.711 194.990,300.148 196.156,299.911 196.591 C 299.673 197.027,299.129 198.737,298.701 200.391 C 298.273 202.046,297.732 204.120,297.498 205.000 C 296.594 208.411,296.927 226.555,297.971 230.800 C 301.451 244.944,307.211 251.973,317.626 254.784 C 326.255 257.112,337.160 252.997,342.252 245.489 C 342.882 244.560,343.507 243.710,343.640 243.600 C 344.014 243.292,346.396 238.652,346.413 238.200 C 346.421 237.980,346.775 237.080,347.200 236.200 C 347.625 235.320,347.981 234.240,347.991 233.800 C 348.001 233.360,348.365 231.560,348.800 229.800 C 349.684 226.223,349.933 212.301,349.176 208.800 C 348.962 207.810,348.543 205.650,348.244 204.000 C 347.501 199.893,345.491 194.050,343.979 191.600 C 343.775 191.270,343.236 190.311,342.780 189.468 C 338.834 182.174,328.158 177.492,319.400 179.215 M327.600 180.600 C 328.535 180.930,329.665 181.200,330.110 181.200 C 332.759 181.200,340.732 187.580,342.224 190.893 C 342.547 191.612,342.978 192.470,343.182 192.800 C 343.960 194.064,345.600 197.979,345.600 198.574 C 345.600 198.916,345.950 200.233,346.377 201.498 C 346.804 202.764,347.254 204.790,347.376 206.000 C 347.498 207.210,347.878 210.642,348.221 213.627 C 348.716 217.944,348.754 219.745,348.409 222.427 C 348.170 224.282,347.792 227.240,347.569 229.000 C 346.957 233.831,344.804 239.774,342.353 243.400 C 340.291 246.450,334.704 251.600,333.458 251.600 C 333.200 251.600,332.290 251.974,331.437 252.432 C 326.666 254.989,314.290 253.834,310.871 250.513 C 310.581 250.231,310.188 250.000,309.999 250.000 C 309.150 250.000,303.200 242.868,303.200 241.850 C 303.200 241.552,302.863 240.879,302.452 240.354 C 302.041 239.829,301.570 238.770,301.407 238.000 C 301.243 237.230,300.770 235.845,300.355 234.922 C 299.940 233.999,299.600 232.638,299.600 231.897 C 299.600 231.157,299.233 229.150,298.785 227.438 C 297.702 223.305,297.787 209.516,298.923 205.000 C 299.310 203.460,299.785 201.570,299.977 200.800 C 302.362 191.278,311.121 181.321,317.240 181.177 C 317.768 181.165,318.830 180.916,319.600 180.625 C 321.536 179.893,325.560 179.880,327.600 180.600 M0.838 223.200 C 0.802 224.048,1.496 225.037,1.867 224.667 C 2.037 224.496,1.984 224.231,1.748 224.078 C 1.513 223.925,1.217 223.530,1.092 223.200 C 0.889 222.667,0.860 222.667,0.838 223.200 M397.029 233.498 C 396.869 234.211,396.437 234.987,396.069 235.221 C 395.575 235.535,395.557 235.607,396.000 235.494 C 396.708 235.313,397.731 233.384,397.489 232.686 C 397.396 232.419,397.189 232.784,397.029 233.498 M389.487 262.632 C 388.950 263.349,388.918 263.530,389.356 263.361 C 389.676 263.239,390.046 262.856,390.178 262.512 C 390.552 261.537,390.269 261.586,389.487 262.632 M18.400 284.689 C 18.400 285.192,19.543 286.190,19.812 285.921 C 19.918 285.815,19.644 285.402,19.202 285.002 C 18.761 284.603,18.400 284.462,18.400 284.689 M39.200 319.386 C 39.200 319.550,39.633 320.199,40.162 320.827 C 40.691 321.456,41.206 322.202,41.307 322.485 C 41.408 322.768,41.596 322.904,41.725 322.787 C 41.854 322.670,41.338 321.790,40.580 320.831 C 39.821 319.872,39.200 319.222,39.200 319.386 M330.013 351.876 C 328.778 352.741,327.510 354.005,327.900 353.983 C 328.220 353.966,331.455 351.200,331.156 351.200 C 331.058 351.200,330.544 351.504,330.013 351.876 M321.600 358.732 C 320.694 359.615,320.683 359.664,321.478 359.251 C 321.960 359.001,322.473 358.605,322.618 358.371 C 323.110 357.575,322.602 357.755,321.600 358.732 M79.127 359.800 C 79.781 360.350,80.438 360.800,80.588 360.800 C 80.739 360.800,80.327 360.350,79.673 359.800 C 79.019 359.250,78.362 358.800,78.212 358.800 C 78.061 358.800,78.473 359.250,79.127 359.800 M86.400 364.704 C 86.400 364.871,86.764 365.235,87.209 365.513 C 87.959 365.981,87.981 365.959,87.513 365.209 C 87.009 364.403,86.400 364.126,86.400 364.704 M117.513 382.495 C 117.979 383.056,119.600 383.738,119.600 383.373 C 119.600 383.289,119.015 382.918,118.300 382.548 C 117.201 381.980,117.079 381.972,117.513 382.495 M162.840 396.300 C 163.144 396.795,163.649 397.200,163.963 397.200 C 164.277 397.200,164.458 397.153,164.367 397.096 C 164.275 397.038,163.770 396.633,163.243 396.196 L 162.287 395.400 162.840 396.300 M224.223 398.633 C 223.574 399.107,223.554 399.200,224.100 399.200 C 224.459 399.200,224.871 399.008,225.016 398.773 C 225.440 398.087,225.061 398.020,224.223 398.633 " stroke="none" fill="#e5a96b" fill-rule="evenodd"></path><path id="path2" d="M168.400 0.409 C 165.650 0.535,163.659 0.674,163.976 0.719 C 166.114 1.020,162.608 1.980,159.200 2.027 C 156.666 2.062,155.733 2.186,156.400 2.400 C 157.359 2.707,157.363 2.722,156.500 2.760 C 156.005 2.782,155.212 3.188,154.737 3.663 L 153.874 4.526 154.100 3.663 C 154.224 3.188,154.162 2.900,153.963 3.023 C 153.763 3.146,153.600 3.507,153.600 3.824 C 153.600 4.276,152.892 4.407,150.300 4.432 C 148.485 4.449,147.215 4.551,147.478 4.657 C 148.911 5.241,147.372 6.000,144.757 6.000 C 142.267 6.000,142.000 6.077,142.000 6.800 C 142.000 7.524,141.733 7.600,139.200 7.600 C 136.638 7.600,136.400 7.670,136.400 8.425 C 136.400 8.971,136.163 9.226,135.700 9.179 C 134.348 9.042,131.005 9.265,131.488 9.461 C 132.606 9.914,130.554 11.226,128.669 11.264 C 127.234 11.293,126.769 11.468,126.584 12.051 C 126.398 12.638,125.954 12.800,124.536 12.800 C 123.062 12.800,122.686 12.949,122.516 13.600 C 122.345 14.252,121.970 14.400,120.487 14.400 C 119.486 14.400,118.784 14.517,118.927 14.660 C 119.433 15.166,117.779 15.975,116.200 15.993 C 115.169 16.006,114.790 16.132,115.134 16.350 C 115.553 16.617,115.511 16.757,114.934 17.010 C 113.947 17.442,113.746 17.491,112.700 17.556 C 111.967 17.602,111.911 17.684,112.400 18.000 C 112.881 18.311,112.815 18.389,112.063 18.394 C 111.452 18.398,111.049 18.691,110.907 19.234 C 110.741 19.868,110.608 19.940,110.351 19.534 C 110.097 19.134,110.011 19.126,110.006 19.500 C 110.002 19.806,109.443 20.000,108.563 20.000 C 107.462 20.000,107.076 20.187,106.916 20.800 C 106.757 21.406,106.370 21.600,105.316 21.600 C 104.262 21.600,103.875 21.794,103.716 22.400 C 103.601 22.840,103.292 23.200,103.029 23.200 C 102.766 23.200,102.178 23.547,101.723 23.971 C 101.268 24.395,100.289 24.800,99.548 24.871 C 98.503 24.971,98.171 25.202,98.072 25.900 C 97.973 26.597,97.683 26.800,96.786 26.800 C 96.038 26.800,95.477 27.083,95.200 27.600 C 94.950 28.068,94.362 28.400,93.786 28.400 C 93.067 28.400,92.800 28.616,92.800 29.200 C 92.800 29.982,92.273 30.183,90.670 30.016 C 90.229 29.970,89.855 30.268,89.724 30.770 C 89.601 31.239,89.179 31.600,88.753 31.600 C 88.339 31.600,88.000 31.793,88.000 32.029 C 88.000 32.963,85.493 34.628,84.765 34.178 C 84.535 34.036,84.247 34.298,84.126 34.760 C 84.001 35.238,83.582 35.600,83.153 35.600 C 82.667 35.600,82.400 35.883,82.400 36.400 C 82.400 37.052,82.123 37.206,80.900 37.232 C 80.075 37.249,79.623 37.353,79.896 37.464 C 80.617 37.755,79.487 38.800,78.452 38.800 C 78.009 38.800,77.519 39.008,77.362 39.262 C 77.168 39.575,77.257 39.615,77.638 39.385 C 78.117 39.097,78.119 39.147,77.651 39.723 C 77.349 40.095,76.764 40.400,76.351 40.400 C 75.823 40.400,75.600 40.688,75.600 41.368 C 75.600 42.137,75.332 42.394,74.300 42.615 C 73.543 42.777,72.531 43.456,71.877 44.239 C 71.260 44.979,70.540 45.543,70.277 45.492 C 70.015 45.442,69.839 45.608,69.887 45.862 C 69.935 46.116,69.701 46.429,69.367 46.557 C 68.956 46.715,68.856 46.630,69.059 46.295 C 69.224 46.023,68.783 46.339,68.079 46.999 C 67.376 47.658,66.800 48.513,66.800 48.899 C 66.800 49.333,66.496 49.600,66.000 49.600 C 65.467 49.600,65.200 49.867,65.200 50.400 C 65.200 50.981,64.933 51.200,64.227 51.200 C 63.605 51.200,63.162 51.489,63.000 52.000 C 62.860 52.440,62.500 52.800,62.200 52.800 C 61.900 52.800,61.540 53.160,61.400 53.600 C 61.260 54.040,60.900 54.400,60.600 54.400 C 60.300 54.400,59.940 54.760,59.800 55.200 C 59.660 55.640,59.288 56.000,58.973 56.000 C 58.603 56.000,58.400 56.425,58.400 57.200 C 58.400 58.267,58.267 58.400,57.200 58.400 C 56.369 58.400,56.000 58.596,56.000 59.037 C 56.000 59.388,55.640 59.769,55.200 59.884 C 54.760 59.999,54.400 60.330,54.400 60.620 C 54.400 60.909,54.040 61.260,53.600 61.400 C 53.160 61.540,52.800 61.912,52.800 62.227 C 52.800 62.542,52.609 62.800,52.376 62.800 C 52.143 62.800,52.063 62.978,52.197 63.195 C 52.337 63.422,52.177 63.489,51.821 63.353 C 51.358 63.175,51.200 63.379,51.200 64.157 C 51.200 64.933,50.995 65.200,50.400 65.200 C 49.960 65.200,49.621 65.335,49.647 65.500 C 49.784 66.363,49.512 66.757,48.700 66.872 C 48.099 66.958,47.839 67.233,47.918 67.700 C 47.987 68.115,47.784 68.400,47.418 68.400 C 47.078 68.400,46.821 68.535,46.847 68.700 C 46.979 69.533,46.738 70.000,46.176 70.000 C 45.833 70.000,45.663 70.178,45.798 70.397 C 45.933 70.615,45.583 71.253,45.022 71.815 C 44.460 72.377,44.000 73.098,44.000 73.418 C 44.000 73.738,43.742 74.000,43.427 74.000 C 43.112 74.000,42.740 74.360,42.600 74.800 C 42.460 75.240,42.088 75.600,41.773 75.600 C 41.458 75.600,41.221 75.735,41.247 75.900 C 41.411 76.935,41.183 77.393,40.800 76.800 C 40.483 76.309,40.411 76.355,40.406 77.051 C 40.398 78.118,39.379 79.085,39.070 78.317 C 38.956 78.033,38.849 78.475,38.832 79.300 C 38.806 80.523,38.652 80.800,38.000 80.800 C 37.483 80.800,37.200 81.067,37.200 81.553 C 37.200 81.970,36.843 82.400,36.400 82.516 C 35.787 82.676,35.600 83.062,35.600 84.163 C 35.600 85.484,35.300 85.816,34.270 85.637 C 34.089 85.606,34.023 85.720,34.123 85.890 C 34.515 86.555,33.602 88.000,32.789 88.000 C 32.321 88.000,32.064 88.180,32.206 88.409 C 32.616 89.073,31.471 91.200,30.702 91.200 C 30.267 91.200,30.000 91.504,30.000 92.000 C 30.000 92.493,29.731 92.802,29.300 92.806 C 28.713 92.811,28.695 92.872,29.189 93.185 C 29.693 93.504,29.679 93.595,29.089 93.821 C 28.657 93.987,28.400 94.517,28.400 95.243 C 28.400 95.981,28.192 96.400,27.827 96.400 C 27.197 96.400,26.611 97.770,26.983 98.373 C 27.272 98.840,25.610 100.453,25.139 100.163 C 24.953 100.047,24.800 100.516,24.800 101.205 C 24.800 102.579,23.817 103.970,23.464 103.096 C 23.353 102.823,23.249 103.164,23.232 103.853 C 23.209 104.755,22.975 105.165,22.400 105.316 C 21.787 105.476,21.600 105.862,21.600 106.963 C 21.600 107.843,21.406 108.402,21.100 108.406 C 20.767 108.410,20.800 108.542,21.200 108.800 C 21.793 109.183,21.335 109.411,20.300 109.247 C 20.135 109.221,20.000 109.830,20.000 110.600 C 20.000 112.507,19.992 112.530,19.146 113.123 C 18.736 113.410,18.387 114.040,18.372 114.523 C 18.345 115.367,18.331 115.370,18.004 114.600 C 17.737 113.969,17.671 114.103,17.695 115.237 C 17.729 116.893,17.395 117.600,16.576 117.600 C 16.173 117.600,16.000 118.068,16.000 119.153 C 16.000 120.370,15.827 120.752,15.200 120.916 C 14.535 121.090,14.400 121.462,14.400 123.114 C 14.400 124.981,13.695 126.361,13.063 125.730 C 12.918 125.585,12.800 126.263,12.800 127.237 C 12.800 128.575,12.604 129.130,11.999 129.508 C 11.483 129.830,11.219 130.397,11.256 131.104 C 11.407 134.000,11.219 134.742,10.300 134.872 C 9.503 134.985,9.386 135.263,9.280 137.300 C 9.204 138.751,8.983 139.602,8.680 139.606 C 8.387 139.610,8.433 139.763,8.800 140.000 C 9.393 140.383,8.935 140.611,7.900 140.447 C 7.735 140.421,7.600 141.821,7.600 143.557 C 7.600 146.544,6.882 148.213,6.257 146.678 C 6.151 146.415,6.049 147.976,6.032 150.147 C 6.002 153.889,5.959 154.082,5.200 153.884 C 4.437 153.685,4.400 153.872,4.400 157.941 C 4.400 161.774,4.319 162.258,3.600 162.707 C 3.160 162.982,2.787 163.610,2.772 164.103 C 2.745 164.960,2.728 164.964,2.400 164.200 C 2.182 163.692,2.046 165.190,2.028 168.300 C 2.007 171.935,1.871 173.202,1.500 173.206 C 1.130 173.211,1.122 173.290,1.466 173.509 C 1.815 173.731,1.800 173.985,1.406 174.524 C 1.014 175.061,0.828 175.111,0.672 174.721 C 0.557 174.435,0.452 185.360,0.438 199.000 C 0.421 215.148,0.548 223.591,0.800 223.200 C 1.135 222.681,1.189 222.690,1.194 223.267 C 1.197 223.633,1.425 224.025,1.700 224.136 C 2.076 224.289,2.052 224.444,1.600 224.763 C 1.193 225.051,1.161 225.190,1.500 225.194 C 1.871 225.198,2.007 226.465,2.028 230.100 C 2.046 233.210,2.182 234.708,2.400 234.200 C 2.691 233.522,2.748 233.592,2.772 234.656 C 2.793 235.596,2.975 235.897,3.500 235.856 C 4.118 235.807,4.226 236.341,4.420 240.400 C 4.541 242.930,4.676 244.781,4.720 244.513 C 4.764 244.244,5.070 244.129,5.400 244.255 C 5.871 244.436,6.010 245.314,6.046 248.343 C 6.072 250.464,6.175 251.885,6.276 251.501 C 6.745 249.706,7.600 251.947,7.600 254.971 C 7.600 257.643,7.687 258.000,8.334 258.000 C 8.958 258.000,9.082 258.373,9.158 260.477 C 9.261 263.333,9.369 263.600,10.424 263.600 C 11.168 263.600,11.431 264.682,11.294 267.179 C 11.277 267.497,11.564 268.005,11.931 268.308 C 12.414 268.706,12.433 268.787,12.000 268.600 C 11.607 268.430,11.642 268.539,12.100 268.914 C 12.537 269.273,12.800 270.044,12.800 270.968 C 12.800 271.781,12.961 272.348,13.158 272.226 C 13.355 272.104,13.615 272.262,13.736 272.576 C 13.856 272.891,13.740 273.236,13.478 273.343 C 13.215 273.449,13.315 273.551,13.700 273.568 C 14.260 273.594,14.400 273.966,14.400 275.437 C 14.400 276.938,14.546 277.313,15.200 277.484 C 15.830 277.649,16.007 278.045,16.032 279.347 C 16.049 280.256,16.153 280.777,16.264 280.504 C 16.650 279.548,17.600 281.083,17.606 282.671 C 17.611 283.806,17.712 284.045,18.000 283.600 C 18.339 283.075,18.389 283.080,18.394 283.638 C 18.397 283.989,18.753 284.595,19.184 284.986 C 19.615 285.376,19.954 285.809,19.937 285.948 C 19.753 287.417,20.102 289.154,20.621 289.353 C 21.022 289.507,21.142 289.429,20.959 289.134 C 20.785 288.852,20.854 288.786,21.138 288.962 C 21.392 289.119,21.603 290.002,21.606 290.924 C 21.609 291.846,21.744 292.395,21.906 292.144 C 22.121 291.811,22.332 291.830,22.688 292.215 C 23.073 292.629,23.073 292.783,22.688 292.939 C 22.312 293.092,22.315 293.144,22.700 293.168 C 22.984 293.186,23.214 293.762,23.232 294.500 C 23.249 295.215,23.356 295.567,23.470 295.283 C 23.633 294.878,23.803 294.870,24.258 295.248 C 24.725 295.636,24.737 295.793,24.319 296.059 C 23.919 296.312,23.915 296.389,24.300 296.394 C 24.575 296.397,24.800 296.790,24.800 297.267 C 24.800 297.743,24.920 298.013,25.068 297.866 C 25.518 297.415,26.800 298.868,26.800 299.829 C 26.800 301.151,27.208 302.000,27.843 302.000 C 28.202 302.000,28.400 302.451,28.400 303.267 C 28.400 303.963,28.511 304.422,28.648 304.286 C 29.056 303.877,30.000 305.079,30.000 306.009 C 30.000 306.538,30.311 306.956,30.800 307.084 C 31.383 307.237,31.602 307.633,31.606 308.547 C 31.610 309.385,31.724 309.623,31.950 309.266 C 32.225 308.833,32.333 308.847,32.522 309.341 C 32.650 309.675,32.540 310.036,32.278 310.143 C 31.980 310.264,32.028 310.349,32.405 310.368 C 32.738 310.386,33.188 310.805,33.405 311.300 C 33.622 311.795,34.025 312.223,34.300 312.250 C 34.575 312.278,34.980 312.322,35.200 312.350 C 35.420 312.378,35.600 313.137,35.600 314.037 C 35.600 315.338,35.764 315.718,36.400 315.884 C 36.843 316.000,37.200 316.430,37.200 316.847 C 37.200 317.333,37.483 317.600,38.000 317.600 C 38.635 317.600,38.801 317.869,38.806 318.900 C 38.811 319.886,38.906 320.055,39.200 319.600 C 39.583 319.007,39.811 319.465,39.647 320.500 C 39.621 320.665,39.800 320.755,40.043 320.700 C 40.287 320.645,41.052 321.445,41.743 322.478 C 42.435 323.511,43.225 324.366,43.500 324.378 C 43.775 324.390,44.000 324.760,44.000 325.200 C 44.000 325.741,44.267 326.000,44.825 326.000 C 45.415 326.000,45.615 326.218,45.525 326.766 C 45.450 327.228,45.877 327.943,46.600 328.566 C 47.364 329.224,47.582 329.601,47.200 329.605 C 46.863 329.609,47.038 329.843,47.600 330.139 C 48.150 330.428,48.548 330.898,48.484 331.182 C 48.412 331.501,48.603 331.608,48.984 331.462 C 49.541 331.248,49.815 331.841,49.647 332.900 C 49.621 333.065,49.960 333.200,50.400 333.200 C 50.933 333.200,51.200 333.467,51.200 334.000 C 51.200 334.533,51.467 334.800,52.000 334.800 C 52.595 334.800,52.800 335.067,52.800 335.843 C 52.800 336.621,52.958 336.825,53.421 336.647 C 53.777 336.511,53.937 336.578,53.797 336.805 C 53.663 337.022,53.743 337.200,53.976 337.200 C 54.209 337.200,54.400 337.458,54.400 337.773 C 54.400 338.088,54.760 338.460,55.200 338.600 C 55.640 338.740,56.000 339.097,56.000 339.395 C 56.000 339.693,56.540 340.055,57.200 340.200 C 57.860 340.345,58.400 340.719,58.400 341.032 C 58.400 341.344,58.656 341.600,58.968 341.600 C 59.281 341.600,59.655 342.140,59.800 342.800 C 59.945 343.460,60.307 344.000,60.605 344.000 C 60.903 344.000,61.260 344.360,61.400 344.800 C 61.540 345.240,61.912 345.600,62.227 345.600 C 62.542 345.600,62.800 345.791,62.800 346.024 C 62.800 346.257,62.978 346.337,63.195 346.203 C 63.422 346.063,63.489 346.223,63.353 346.579 C 63.175 347.042,63.379 347.200,64.157 347.200 C 64.933 347.200,65.200 347.405,65.200 348.000 C 65.200 348.533,65.467 348.800,66.000 348.800 C 66.533 348.800,66.800 349.067,66.800 349.600 C 66.800 350.040,66.935 350.379,67.100 350.353 C 67.981 350.213,68.400 350.482,68.400 351.187 C 68.400 351.722,68.592 351.901,68.997 351.746 C 69.380 351.599,69.731 351.855,69.972 352.458 C 70.180 352.976,70.361 353.175,70.375 352.900 C 70.392 352.566,70.644 352.632,71.137 353.100 C 71.542 353.485,71.801 353.935,71.713 354.100 C 71.543 354.418,72.142 354.539,73.300 354.421 C 73.763 354.374,74.000 354.629,74.000 355.175 C 74.000 355.733,74.259 356.000,74.800 356.000 C 75.244 356.000,75.600 356.267,75.600 356.600 C 75.600 356.930,75.780 357.200,76.000 357.200 C 76.220 357.200,76.731 357.515,77.135 357.900 C 77.539 358.285,78.214 358.808,78.635 359.063 C 79.056 359.317,79.355 359.722,79.300 359.963 C 79.245 360.203,79.335 360.379,79.500 360.353 C 80.535 360.189,80.993 360.417,80.400 360.800 C 79.945 361.094,80.114 361.189,81.100 361.194 C 82.131 361.199,82.400 361.365,82.400 362.000 C 82.400 362.517,82.667 362.800,83.153 362.800 C 83.570 362.800,84.000 363.157,84.116 363.600 C 84.276 364.213,84.662 364.400,85.763 364.400 C 87.072 364.400,87.406 364.692,87.247 365.700 C 87.221 365.865,87.335 365.979,87.500 365.953 C 88.623 365.775,89.369 366.032,88.800 366.400 C 88.278 366.737,88.285 366.789,88.853 366.794 C 89.213 366.797,89.598 367.149,89.709 367.575 C 89.859 368.148,90.244 368.340,91.194 368.313 C 92.423 368.278,93.364 369.011,92.950 369.681 C 92.842 369.856,93.303 370.000,93.976 370.000 C 95.073 370.000,95.400 370.335,95.247 371.300 C 95.221 371.465,95.830 371.600,96.600 371.600 C 97.549 371.600,98.000 371.785,98.000 372.173 C 98.000 372.773,99.359 373.396,99.916 373.052 C 100.093 372.943,100.500 373.035,100.819 373.257 C 101.280 373.577,101.292 373.704,100.879 373.871 C 100.156 374.162,101.515 375.170,102.653 375.187 C 103.164 375.195,103.591 375.522,103.716 376.000 C 103.875 376.606,104.262 376.800,105.316 376.800 C 106.370 376.800,106.757 376.994,106.916 377.600 C 107.076 378.213,107.462 378.400,108.563 378.400 C 109.443 378.400,110.002 378.594,110.006 378.900 C 110.010 379.233,110.142 379.200,110.400 378.800 C 110.714 378.315,110.789 378.372,110.794 379.100 C 110.799 379.857,111.018 380.000,112.173 380.000 C 113.201 380.000,113.611 380.204,113.803 380.811 C 113.945 381.256,114.272 381.595,114.530 381.563 C 115.888 381.396,116.601 381.611,116.000 382.008 C 115.543 382.310,115.685 382.386,116.600 382.329 C 117.978 382.243,119.736 383.057,119.388 383.620 C 119.254 383.836,119.853 384.000,120.776 384.000 C 122.273 384.000,122.611 384.263,122.447 385.300 C 122.421 385.465,123.278 385.600,124.351 385.600 C 125.701 385.600,126.471 385.809,126.851 386.277 C 127.319 386.853,127.317 386.903,126.838 386.615 C 126.457 386.385,126.368 386.425,126.562 386.738 C 126.720 386.995,127.803 387.200,128.997 387.200 C 130.751 387.200,131.190 387.339,131.385 387.954 C 131.517 388.368,131.844 388.700,132.112 388.691 C 134.944 388.595,136.247 388.863,136.733 389.642 C 137.169 390.339,137.168 390.432,136.730 390.183 C 136.356 389.971,136.320 390.014,136.607 390.328 C 136.831 390.573,138.070 390.808,139.361 390.850 C 141.266 390.913,141.744 391.066,141.901 391.663 C 142.064 392.287,142.508 392.400,144.804 392.400 C 147.376 392.400,148.899 393.164,147.478 393.743 C 147.215 393.849,148.470 393.951,150.267 393.968 C 152.481 393.990,153.598 394.161,153.735 394.500 C 153.884 394.869,153.945 394.856,153.968 394.451 C 153.994 394.001,154.112 393.995,154.619 394.416 C 155.113 394.826,155.133 394.996,154.719 395.259 C 154.428 395.443,156.016 395.590,158.337 395.594 C 161.862 395.599,162.624 395.718,163.491 396.400 C 164.050 396.840,164.889 397.213,165.354 397.228 C 166.181 397.256,166.182 397.264,165.400 397.600 C 164.892 397.818,166.370 397.954,169.454 397.972 C 174.050 397.999,177.463 398.712,175.928 399.326 C 175.638 399.442,186.470 399.537,200.000 399.537 C 213.530 399.537,224.365 399.443,224.079 399.328 C 222.392 398.652,225.257 398.023,230.200 397.985 C 233.488 397.959,235.106 397.817,234.600 397.600 C 233.818 397.264,233.819 397.256,234.646 397.228 C 235.111 397.213,235.950 396.840,236.509 396.400 C 237.376 395.718,238.138 395.599,241.663 395.594 C 243.938 395.591,245.585 395.451,245.321 395.283 C 244.803 394.954,245.231 393.912,245.837 394.026 C 246.719 394.192,252.547 393.916,252.083 393.730 C 250.712 393.179,252.568 392.400,255.249 392.400 C 257.850 392.400,258.188 392.252,258.069 391.165 C 258.055 391.036,259.148 390.890,260.498 390.841 C 263.332 390.739,263.600 390.630,263.600 389.576 C 263.600 388.823,265.136 388.521,267.683 388.776 C 268.058 388.814,268.597 388.474,268.879 388.022 C 269.282 387.376,269.808 387.200,271.334 387.200 C 272.938 387.200,273.311 387.061,273.484 386.400 C 273.654 385.750,274.030 385.600,275.484 385.600 C 276.938 385.600,277.314 385.450,277.484 384.800 C 277.649 384.171,278.030 384.000,279.270 384.000 C 280.138 384.000,280.749 383.840,280.628 383.645 C 280.256 383.043,281.562 382.277,282.898 382.315 C 283.821 382.341,284.009 382.250,283.584 381.982 C 283.109 381.681,283.143 381.611,283.769 381.606 C 284.191 381.603,284.908 381.285,285.362 380.900 C 286.147 380.233,286.160 380.233,285.644 380.900 C 285.323 381.315,285.274 381.600,285.524 381.600 C 285.756 381.600,286.060 381.240,286.200 380.800 C 286.389 380.205,286.805 380.000,287.827 380.000 C 288.582 380.000,289.179 379.865,289.153 379.700 C 288.985 378.636,289.326 378.400,291.037 378.400 C 292.538 378.400,292.913 378.254,293.084 377.600 C 293.243 376.994,293.630 376.800,294.684 376.800 C 295.738 376.800,296.125 376.606,296.284 376.000 C 296.407 375.528,296.830 375.200,297.313 375.200 C 297.764 375.200,298.028 375.095,297.900 374.966 C 297.475 374.541,298.961 373.200,299.856 373.200 C 301.153 373.200,302.000 372.788,302.000 372.157 C 302.000 371.798,302.451 371.600,303.267 371.600 C 303.963 371.600,304.422 371.489,304.286 371.352 C 303.877 370.944,305.079 370.000,306.009 370.000 C 306.538 370.000,306.956 369.689,307.084 369.200 C 307.237 368.617,307.633 368.398,308.547 368.394 C 309.385 368.390,309.623 368.276,309.266 368.050 C 308.833 367.775,308.847 367.667,309.341 367.478 C 309.675 367.350,310.036 367.460,310.143 367.722 C 310.249 367.985,310.351 367.885,310.368 367.500 C 310.386 367.115,310.591 366.800,310.824 366.800 C 311.057 366.800,311.129 366.608,310.983 366.373 C 310.826 366.118,311.013 365.997,311.451 366.073 C 311.853 366.143,312.209 365.975,312.241 365.700 C 312.273 365.425,312.322 365.020,312.350 364.800 C 312.378 364.580,313.137 364.400,314.037 364.400 C 315.338 364.400,315.718 364.236,315.884 363.600 C 316.000 363.157,316.430 362.800,316.847 362.800 C 317.333 362.800,317.600 362.517,317.600 362.000 C 317.600 361.408,317.867 361.200,318.624 361.200 C 319.187 361.200,319.544 361.034,319.419 360.831 C 319.293 360.627,319.778 360.055,320.495 359.560 C 321.213 359.064,322.122 358.330,322.516 357.929 C 322.909 357.528,323.494 357.200,323.816 357.200 C 324.137 357.200,324.400 356.930,324.400 356.600 C 324.400 356.267,324.756 356.000,325.200 356.000 C 325.733 356.000,326.000 355.733,326.000 355.200 C 326.000 354.608,326.267 354.400,327.024 354.400 C 327.604 354.400,327.940 354.227,327.800 354.000 C 327.580 353.644,328.093 353.430,328.886 353.548 C 329.043 353.571,329.056 353.291,328.916 352.926 C 328.721 352.418,328.824 352.324,329.351 352.526 C 329.742 352.676,329.941 352.628,329.810 352.415 C 329.520 351.946,330.980 351.124,331.411 351.514 C 331.585 351.671,331.614 351.485,331.476 351.100 C 331.289 350.578,331.435 350.400,332.050 350.400 C 332.538 350.400,332.960 350.074,333.084 349.600 C 333.200 349.157,333.630 348.800,334.047 348.800 C 334.533 348.800,334.800 348.517,334.800 348.000 C 334.800 347.475,335.067 347.200,335.576 347.200 C 336.003 347.200,336.481 346.992,336.638 346.738 C 336.826 346.435,336.731 346.376,336.362 346.568 C 336.053 346.728,336.149 346.576,336.576 346.230 C 337.004 345.883,337.589 345.600,337.876 345.600 C 338.164 345.600,338.400 345.446,338.400 345.258 C 338.400 345.071,338.850 344.431,339.400 343.838 C 339.950 343.244,340.400 342.498,340.400 342.179 C 340.400 341.861,340.670 341.600,341.000 341.600 C 341.330 341.600,341.600 341.330,341.600 341.000 C 341.600 340.670,341.861 340.400,342.179 340.400 C 342.498 340.400,343.244 339.950,343.838 339.400 C 344.431 338.850,345.071 338.400,345.258 338.400 C 345.446 338.400,345.600 338.164,345.600 337.876 C 345.600 337.589,345.883 337.004,346.230 336.576 C 346.576 336.149,346.728 336.053,346.568 336.362 C 346.376 336.731,346.435 336.826,346.738 336.638 C 346.992 336.481,347.200 336.003,347.200 335.576 C 347.200 335.067,347.475 334.800,348.000 334.800 C 348.517 334.800,348.800 334.533,348.800 334.047 C 348.800 333.630,349.157 333.200,349.600 333.084 C 350.040 332.969,350.400 332.538,350.400 332.126 C 350.400 331.371,351.684 330.000,352.392 330.000 C 352.603 330.000,352.680 329.752,352.563 329.448 C 352.447 329.145,352.812 328.534,353.376 328.091 C 353.939 327.647,354.400 327.017,354.400 326.689 C 354.400 326.361,354.760 325.999,355.200 325.884 C 355.640 325.769,356.000 325.388,356.000 325.037 C 356.000 324.687,356.250 324.400,356.557 324.400 C 356.863 324.400,357.230 323.934,357.373 323.364 C 357.547 322.672,357.828 322.402,358.217 322.551 C 358.636 322.712,358.808 322.470,358.828 321.687 C 358.853 320.720,358.894 320.688,359.200 321.400 C 359.476 322.042,359.549 321.903,359.572 320.700 C 359.597 319.335,359.890 318.993,360.900 319.153 C 361.065 319.179,361.200 318.840,361.200 318.400 C 361.200 317.867,361.467 317.600,362.000 317.600 C 362.533 317.600,362.800 317.333,362.800 316.800 C 362.800 316.360,363.025 315.997,363.300 315.994 C 363.633 315.990,363.600 315.858,363.200 315.600 C 362.607 315.217,363.065 314.989,364.100 315.153 C 364.265 315.179,364.400 314.660,364.400 314.000 C 364.400 313.135,364.595 312.792,365.100 312.772 C 365.699 312.748,365.684 312.694,365.000 312.400 L 364.200 312.056 365.000 311.981 C 365.440 311.939,365.917 311.920,366.059 311.939 C 366.201 311.957,366.231 311.574,366.124 311.086 C 366.008 310.553,366.064 310.381,366.265 310.656 C 366.672 311.210,367.400 310.533,367.400 309.600 C 367.400 309.270,367.625 309.045,367.900 309.100 C 368.193 309.159,368.400 308.787,368.400 308.200 C 368.400 307.561,368.625 307.200,369.024 307.200 C 369.367 307.200,369.536 307.020,369.400 306.800 C 369.264 306.580,369.351 306.400,369.594 306.400 C 369.837 306.400,370.006 306.175,369.970 305.900 C 369.825 304.782,370.029 304.325,370.580 304.537 C 370.967 304.685,371.085 304.567,370.937 304.180 C 370.814 303.861,370.914 303.600,371.157 303.600 C 371.401 303.600,371.600 303.240,371.600 302.800 C 371.600 302.358,371.867 302.000,372.195 302.000 C 372.580 302.000,372.881 301.435,373.046 300.400 C 373.201 299.435,373.520 298.800,373.851 298.800 C 374.153 298.800,374.355 298.575,374.300 298.300 C 374.245 298.025,374.425 297.845,374.700 297.900 C 375.033 297.967,375.200 297.467,375.200 296.400 C 375.200 295.067,375.333 294.800,376.000 294.800 C 376.667 294.800,376.800 294.533,376.800 293.200 C 376.800 291.727,377.067 291.389,378.100 291.553 C 378.265 291.579,378.400 290.902,378.400 290.049 C 378.400 288.447,379.326 287.078,379.730 288.083 C 379.844 288.367,379.951 287.745,379.968 286.700 C 379.998 284.934,380.237 284.585,381.300 284.753 C 381.465 284.779,381.579 284.665,381.553 284.500 C 381.375 283.377,381.632 282.631,382.000 283.200 C 382.290 283.648,382.389 283.432,382.394 282.347 C 382.399 281.233,382.587 280.844,383.200 280.684 C 383.813 280.524,384.000 280.138,384.000 279.037 C 384.000 277.947,384.169 277.592,384.700 277.568 C 385.085 277.551,385.185 277.449,384.922 277.343 C 384.660 277.236,384.550 276.875,384.678 276.541 C 384.867 276.047,384.975 276.033,385.250 276.466 C 385.455 276.791,385.590 276.018,385.594 274.500 C 385.599 272.269,385.686 272.000,386.400 272.000 C 387.080 272.000,387.200 271.733,387.200 270.223 C 387.200 268.954,387.410 268.296,387.935 267.923 C 388.454 267.553,388.691 266.830,388.740 265.457 C 388.817 263.302,390.163 260.907,390.522 262.287 C 390.624 262.679,390.728 261.875,390.754 260.500 C 390.779 259.125,390.974 258.000,391.187 258.000 C 391.401 258.000,391.478 257.748,391.360 257.440 C 391.242 257.133,391.338 256.762,391.573 256.617 C 391.808 256.472,392.033 256.588,392.073 256.876 C 392.114 257.164,392.249 255.960,392.373 254.200 C 392.566 251.476,392.704 251.008,393.300 251.056 C 393.912 251.104,394.000 250.715,394.000 247.956 C 394.000 245.701,394.143 244.798,394.500 244.794 C 394.860 244.789,394.872 244.706,394.544 244.494 C 394.211 244.279,394.230 244.068,394.615 243.712 C 395.029 243.327,395.183 243.327,395.339 243.712 C 395.448 243.980,395.551 242.194,395.568 239.743 C 395.593 236.305,395.729 235.236,396.162 235.070 C 396.472 234.951,396.857 234.257,397.019 233.527 C 397.275 232.373,397.354 232.304,397.629 233.000 C 397.809 233.459,397.956 231.627,397.972 228.700 C 397.993 224.905,398.128 223.598,398.500 223.594 C 398.832 223.590,398.857 223.489,398.575 223.294 C 398.280 223.089,398.298 222.712,398.637 222.051 C 399.076 221.193,399.141 221.174,399.315 221.851 C 399.421 222.263,399.514 212.160,399.522 199.400 C 399.530 186.640,399.441 176.441,399.323 176.736 C 399.175 177.108,398.963 176.986,398.630 176.336 C 398.296 175.684,398.279 175.311,398.575 175.106 C 398.857 174.911,398.832 174.810,398.500 174.806 C 398.128 174.802,397.993 173.495,397.972 169.700 C 397.954 166.478,397.817 164.895,397.600 165.400 C 397.264 166.182,397.256 166.181,397.228 165.354 C 397.213 164.889,396.840 164.050,396.400 163.491 C 395.713 162.618,395.600 161.868,395.600 158.199 C 395.600 154.262,395.537 153.909,394.800 153.716 C 394.079 153.527,393.999 153.168,393.994 150.053 C 393.991 148.154,393.851 146.815,393.683 147.079 C 393.388 147.543,392.294 147.191,392.366 146.655 C 392.565 145.168,392.315 141.115,392.050 141.534 C 391.783 141.954,391.641 141.911,391.379 141.334 C 390.930 140.345,390.900 140.138,390.840 137.600 C 390.802 136.020,390.678 135.569,390.400 136.000 C 390.017 136.593,389.789 136.135,389.953 135.100 C 389.979 134.935,389.730 134.800,389.400 134.800 C 388.844 134.800,388.552 133.316,388.780 131.657 C 388.821 131.358,388.483 130.853,388.027 130.534 C 387.408 130.100,387.200 129.520,387.200 128.224 C 387.200 126.830,387.044 126.453,386.400 126.284 C 385.720 126.106,385.600 125.738,385.600 123.837 C 385.600 122.607,385.465 121.621,385.300 121.647 C 384.510 121.772,384.260 121.549,384.800 121.200 C 385.313 120.869,385.298 120.811,384.700 120.806 C 384.166 120.801,384.000 120.463,384.000 119.376 C 384.000 118.593,383.865 118.035,383.700 118.134 C 383.177 118.451,382.597 117.450,382.462 116.000 C 382.333 114.604,381.900 113.845,381.180 113.750 C 380.971 113.722,380.620 113.678,380.400 113.650 C 380.180 113.623,380.000 112.790,380.000 111.800 C 380.000 110.810,379.865 110.021,379.700 110.047 C 378.667 110.211,378.400 109.873,378.400 108.400 C 378.400 107.520,378.265 106.821,378.100 106.847 C 377.067 107.011,376.800 106.673,376.800 105.200 C 376.800 103.867,376.667 103.600,376.000 103.600 C 375.316 103.600,375.196 103.324,375.172 101.700 C 375.151 100.270,375.059 99.998,374.800 100.600 C 374.472 101.363,374.455 101.359,374.428 100.500 C 374.413 100.005,374.153 99.600,373.851 99.600 C 373.520 99.600,373.201 98.965,373.046 98.000 C 372.881 96.965,372.580 96.400,372.195 96.400 C 371.831 96.400,371.600 96.022,371.600 95.427 C 371.600 94.805,371.311 94.362,370.800 94.200 C 369.896 93.913,369.752 93.367,370.500 93.065 C 370.900 92.904,370.900 92.857,370.500 92.832 C 370.225 92.814,370.000 92.541,370.000 92.224 C 370.000 91.907,369.792 91.519,369.538 91.362 C 369.225 91.168,369.185 91.257,369.415 91.638 C 369.703 92.117,369.653 92.119,369.077 91.651 C 368.705 91.349,368.400 90.663,368.400 90.127 C 368.400 89.591,368.239 89.252,368.042 89.374 C 367.845 89.496,367.585 89.338,367.464 89.024 C 367.344 88.709,367.460 88.364,367.722 88.257 C 367.985 88.151,367.885 88.049,367.500 88.032 C 367.115 88.014,366.800 87.809,366.800 87.576 C 366.800 87.343,366.620 87.264,366.400 87.400 C 366.052 87.615,365.810 86.804,365.953 85.900 C 365.979 85.735,365.640 85.600,365.200 85.600 C 364.578 85.600,364.400 85.333,364.400 84.400 C 364.400 83.740,364.265 83.221,364.100 83.247 C 363.065 83.411,362.607 83.183,363.200 82.800 C 363.600 82.542,363.633 82.410,363.300 82.406 C 363.025 82.403,362.800 82.040,362.800 81.600 C 362.800 81.067,362.533 80.800,362.000 80.800 C 361.365 80.800,361.199 80.531,361.194 79.500 C 361.190 78.751,361.059 78.403,360.883 78.679 C 360.716 78.942,360.404 79.032,360.189 78.879 C 359.587 78.447,358.314 76.003,358.677 75.975 C 358.855 75.961,358.595 75.787,358.100 75.588 C 357.605 75.389,357.200 74.950,357.200 74.613 C 357.200 74.276,356.930 74.000,356.600 74.000 C 356.268 74.000,356.000 73.645,356.000 73.203 C 356.000 72.765,355.640 72.182,355.200 71.907 C 354.760 71.632,354.400 71.193,354.400 70.931 C 354.400 70.668,354.040 70.340,353.600 70.200 C 352.863 69.966,352.616 69.514,352.763 68.670 C 352.794 68.489,352.644 68.449,352.430 68.581 C 351.951 68.878,351.117 67.428,351.514 66.989 C 351.671 66.815,351.485 66.786,351.100 66.924 C 350.578 67.111,350.400 66.965,350.400 66.350 C 350.400 65.862,350.074 65.440,349.600 65.316 C 349.160 65.201,348.800 64.778,348.800 64.377 C 348.800 63.976,348.592 63.519,348.338 63.362 C 348.054 63.186,347.985 63.252,348.159 63.534 C 348.341 63.827,348.224 63.907,347.833 63.757 C 347.499 63.629,347.241 63.406,347.260 63.262 C 347.391 62.273,347.089 61.619,346.400 61.400 C 345.960 61.260,345.600 60.888,345.600 60.573 C 345.600 60.258,345.313 60.000,344.963 60.000 C 344.612 60.000,344.231 59.640,344.116 59.200 C 343.968 58.633,343.570 58.400,342.753 58.400 C 341.739 58.400,341.600 58.256,341.600 57.200 C 341.600 56.369,341.404 56.000,340.963 56.000 C 340.612 56.000,340.231 55.640,340.116 55.200 C 340.001 54.760,339.670 54.400,339.380 54.400 C 339.091 54.400,338.740 54.040,338.600 53.600 C 338.460 53.160,338.088 52.800,337.773 52.800 C 337.458 52.800,337.200 52.609,337.200 52.376 C 337.200 52.143,337.022 52.063,336.805 52.197 C 336.578 52.337,336.511 52.177,336.647 51.821 C 336.825 51.358,336.621 51.200,335.843 51.200 C 335.067 51.200,334.800 50.995,334.800 50.400 C 334.800 49.960,334.665 49.621,334.500 49.647 C 333.637 49.784,333.243 49.512,333.128 48.700 C 333.039 48.077,332.772 47.839,332.260 47.927 C 331.853 47.996,331.622 47.888,331.747 47.686 C 331.872 47.483,331.710 46.976,331.386 46.559 C 330.814 45.820,330.804 45.821,331.032 46.600 C 331.241 47.311,331.174 47.294,330.433 46.456 C 329.975 45.936,329.600 45.655,329.600 45.831 C 329.600 46.006,329.077 45.648,328.437 45.036 C 327.798 44.423,327.168 43.940,327.037 43.961 C 326.312 44.080,326.073 43.922,325.884 43.200 C 325.769 42.760,325.401 42.400,325.065 42.400 C 324.730 42.400,324.398 41.997,324.328 41.504 C 324.254 40.984,323.864 40.546,323.400 40.461 C 322.130 40.228,321.447 39.544,322.081 39.141 C 322.417 38.928,322.159 38.810,321.349 38.806 C 319.977 38.799,318.774 37.835,319.683 37.470 C 319.967 37.356,319.615 37.249,318.900 37.232 C 317.877 37.207,317.600 37.029,317.600 36.400 C 317.600 35.883,317.333 35.600,316.847 35.600 C 316.422 35.600,315.999 35.240,315.878 34.775 C 315.759 34.322,315.423 33.983,315.131 34.023 C 313.576 34.234,311.291 32.824,311.815 31.976 C 311.943 31.769,311.698 31.600,311.270 31.600 C 310.830 31.600,310.403 31.254,310.284 30.800 C 310.125 30.191,309.738 30.000,308.664 30.000 C 307.605 30.000,307.191 29.801,307.000 29.200 C 306.860 28.760,306.426 28.400,306.035 28.400 C 305.644 28.400,304.998 28.040,304.600 27.600 C 304.202 27.160,303.454 26.800,302.938 26.800 C 302.371 26.800,302.000 26.563,302.000 26.200 C 302.000 25.853,301.621 25.588,301.100 25.572 C 300.241 25.545,300.237 25.528,301.000 25.200 C 301.618 24.934,301.409 24.850,300.082 24.828 C 298.677 24.805,298.386 24.673,298.482 24.100 C 298.566 23.602,298.294 23.365,297.541 23.277 C 296.893 23.202,296.402 22.852,296.278 22.377 C 296.126 21.796,295.725 21.600,294.684 21.600 C 293.630 21.600,293.243 21.406,293.084 20.800 C 292.915 20.155,292.538 20.000,291.134 20.000 C 289.826 20.000,289.268 19.801,288.893 19.200 C 288.618 18.760,287.990 18.397,287.497 18.394 C 286.771 18.389,286.714 18.314,287.200 18.000 C 287.682 17.688,287.618 17.611,286.874 17.606 C 285.666 17.598,284.313 16.864,284.612 16.380 C 284.748 16.161,284.059 16.000,282.986 16.000 C 281.462 16.000,281.087 15.855,280.916 15.200 C 280.753 14.579,280.370 14.400,279.200 14.400 C 278.030 14.400,277.647 14.221,277.484 13.600 C 277.309 12.929,276.938 12.800,275.195 12.800 C 273.479 12.800,273.156 12.691,273.353 12.179 C 273.489 11.823,273.422 11.663,273.195 11.803 C 272.978 11.937,272.800 11.849,272.800 11.606 C 272.800 11.363,272.575 11.194,272.300 11.230 C 270.407 11.476,268.839 11.163,269.062 10.584 C 269.212 10.191,269.098 10.010,268.749 10.084 C 268.447 10.148,268.245 9.975,268.300 9.700 C 268.371 9.344,267.707 9.200,266.000 9.200 C 263.867 9.200,263.600 9.111,263.600 8.400 C 263.600 7.676,263.333 7.600,260.800 7.600 C 258.267 7.600,258.000 7.524,258.000 6.800 C 258.000 6.077,257.733 6.000,255.243 6.000 C 252.628 6.000,251.089 5.241,252.522 4.657 C 252.785 4.551,251.560 4.435,249.800 4.401 C 245.222 4.312,243.970 3.978,245.212 3.177 C 245.685 2.872,245.644 2.810,245.000 2.862 C 244.560 2.898,243.840 2.886,243.400 2.835 L 242.600 2.744 243.400 2.400 C 243.927 2.173,242.905 2.042,240.400 2.015 C 236.836 1.977,234.127 1.226,235.679 0.706 C 237.614 0.058,181.516 -0.190,168.400 0.409 M114.293 120.310 C 114.784 120.591,116.668 121.007,118.480 121.234 C 120.292 121.461,121.972 121.811,122.213 122.011 C 122.454 122.211,123.776 122.637,125.151 122.958 C 126.525 123.278,128.082 123.824,128.611 124.170 C 129.139 124.517,130.004 124.800,130.532 124.800 C 131.060 124.800,131.950 125.160,132.509 125.600 C 133.069 126.040,133.737 126.400,133.994 126.400 C 135.921 126.400,144.749 132.039,150.763 137.113 C 156.264 141.753,164.438 151.695,165.679 155.256 C 165.899 155.885,166.221 156.400,166.396 156.400 C 166.570 156.400,167.004 157.075,167.359 157.900 C 167.713 158.725,168.165 159.670,168.362 160.000 C 169.209 161.422,170.800 164.914,170.800 165.352 C 170.800 165.616,171.146 166.509,171.569 167.339 C 171.992 168.168,172.464 169.597,172.619 170.515 C 172.774 171.432,173.146 172.556,173.445 173.013 C 173.745 173.470,174.156 174.914,174.359 176.222 C 174.562 177.530,175.007 179.320,175.347 180.200 C 175.687 181.080,175.973 182.880,175.983 184.200 C 175.993 185.520,176.281 188.130,176.622 190.000 C 177.455 194.555,177.463 203.884,176.640 208.896 C 176.288 211.038,175.992 213.738,175.982 214.896 C 175.973 216.053,175.685 217.720,175.344 218.600 C 175.002 219.480,174.580 221.237,174.404 222.504 C 174.229 223.772,173.823 225.212,173.502 225.704 C 173.180 226.197,172.794 227.431,172.642 228.446 C 172.491 229.461,172.110 230.631,171.796 231.046 C 171.482 231.461,171.220 232.058,171.213 232.374 C 171.190 233.420,166.836 242.400,166.352 242.400 C 166.159 242.400,166.000 242.635,166.000 242.922 C 166.000 246.054,152.496 261.120,145.765 265.497 C 145.344 265.771,144.100 266.560,143.000 267.250 C 141.900 267.941,140.550 268.801,140.000 269.161 C 139.057 269.779,136.972 270.817,132.774 272.756 C 131.769 273.220,130.613 273.600,130.205 273.600 C 129.797 273.600,129.166 273.868,128.804 274.197 C 128.441 274.525,127.212 274.970,126.072 275.186 C 124.933 275.402,123.505 275.831,122.900 276.139 C 122.295 276.446,120.720 276.821,119.400 276.971 C 118.080 277.121,116.100 277.549,115.000 277.922 C 113.293 278.501,111.214 278.600,100.800 278.600 C 90.386 278.600,88.307 278.501,86.600 277.922 C 85.500 277.549,83.520 277.121,82.200 276.971 C 80.880 276.821,79.305 276.446,78.700 276.139 C 78.095 275.831,76.667 275.402,75.528 275.186 C 74.388 274.970,73.159 274.525,72.796 274.197 C 72.434 273.868,71.803 273.600,71.395 273.600 C 70.684 273.600,69.706 273.195,64.800 270.870 C 57.639 267.475,48.056 259.805,42.798 253.260 C 42.029 252.302,41.118 251.222,40.774 250.860 C 39.284 249.290,35.746 243.528,33.613 239.200 C 32.909 237.770,31.988 235.945,31.566 235.146 C 31.145 234.346,30.800 233.443,30.800 233.140 C 30.800 232.836,30.466 231.961,30.059 231.194 C 29.651 230.427,29.188 229.080,29.029 228.200 C 28.871 227.320,28.496 226.219,28.196 225.754 C 27.897 225.288,27.523 223.758,27.366 222.354 C 27.208 220.949,26.826 219.410,26.515 218.933 C 26.182 218.420,25.801 216.135,25.582 213.333 C 25.379 210.730,25.045 207.520,24.840 206.200 C 24.352 203.053,24.346 195.133,24.830 192.600 C 25.040 191.500,25.381 188.377,25.586 185.660 C 25.810 182.704,26.185 180.375,26.520 179.860 C 26.828 179.387,27.209 177.841,27.368 176.425 C 27.527 175.009,27.898 173.383,28.194 172.812 C 28.490 172.240,28.863 171.059,29.024 170.186 C 29.185 169.314,29.651 167.973,30.059 167.206 C 30.466 166.439,30.800 165.594,30.800 165.327 C 30.800 165.060,31.250 163.996,31.800 162.962 C 32.350 161.927,32.800 160.860,32.800 160.589 C 32.800 160.319,33.052 159.889,33.361 159.633 C 33.669 159.377,34.037 158.707,34.178 158.143 C 34.320 157.580,34.756 156.643,35.147 156.060 C 35.538 155.477,36.737 153.650,37.811 152.000 C 43.066 143.927,49.926 137.074,58.000 131.831 C 59.650 130.759,61.477 129.557,62.060 129.159 C 62.643 128.761,63.580 128.320,64.143 128.178 C 64.707 128.037,65.367 127.681,65.611 127.386 C 65.855 127.092,66.628 126.726,67.328 126.574 C 68.027 126.421,69.029 125.959,69.554 125.548 C 70.079 125.137,70.853 124.800,71.274 124.800 C 71.695 124.800,72.616 124.493,73.320 124.118 C 75.110 123.165,79.269 122.008,85.200 120.812 C 86.410 120.568,88.030 120.209,88.800 120.015 C 91.064 119.442,113.224 119.699,114.293 120.310 M288.888 120.976 C 292.362 121.805,295.521 124.863,296.205 128.057 C 296.363 128.796,296.697 129.652,296.946 129.960 C 297.250 130.336,297.474 134.495,297.625 142.560 L 297.850 154.600 298.992 156.800 C 301.774 162.159,307.551 163.497,314.622 160.420 C 315.513 160.032,317.131 159.581,318.216 159.418 C 319.302 159.256,320.732 158.829,321.395 158.469 C 323.188 157.497,340.778 157.498,342.686 158.470 C 343.394 158.830,344.744 159.240,345.686 159.381 C 348.200 159.756,355.908 163.125,356.850 164.260 C 357.096 164.557,357.464 164.800,357.666 164.800 C 359.216 164.800,366.809 171.965,369.360 175.834 C 370.217 177.135,371.227 178.653,371.603 179.208 C 371.980 179.762,372.428 180.662,372.599 181.208 C 372.770 181.753,373.245 182.629,373.655 183.154 C 374.065 183.679,374.400 184.309,374.399 184.554 C 374.398 184.799,374.736 185.720,375.150 186.600 C 376.365 189.184,377.244 191.994,377.840 195.200 C 378.147 196.850,378.624 198.740,378.899 199.400 C 379.624 201.138,379.612 228.424,378.885 230.400 C 378.602 231.170,378.192 233.060,377.974 234.600 C 377.757 236.140,377.223 238.352,376.789 239.515 C 376.355 240.678,375.999 242.028,375.997 242.515 C 375.996 243.002,375.637 243.940,375.200 244.600 C 374.763 245.260,374.404 246.181,374.403 246.646 C 374.401 247.111,374.063 247.921,373.652 248.446 C 373.241 248.971,372.779 249.973,372.626 250.672 C 372.474 251.372,372.090 252.159,371.774 252.421 C 371.458 252.683,371.200 253.115,371.200 253.380 C 371.200 253.803,368.992 257.464,368.414 258.000 C 368.295 258.110,367.429 259.213,366.489 260.450 C 363.285 264.668,354.453 272.000,352.577 272.000 C 352.314 272.000,351.878 272.265,351.609 272.589 C 351.340 272.914,350.463 273.296,349.660 273.440 C 348.857 273.584,347.907 273.956,347.550 274.268 C 347.192 274.579,346.202 274.932,345.350 275.051 C 344.497 275.170,342.900 275.651,341.800 276.119 C 338.672 277.450,321.959 277.433,319.049 276.096 C 317.976 275.603,316.605 275.200,316.003 275.200 C 315.401 275.200,314.479 274.866,313.954 274.458 C 313.429 274.050,312.299 273.587,311.442 273.429 C 310.584 273.271,309.422 272.840,308.859 272.471 C 307.337 271.474,295.483 271.507,293.974 272.512 C 293.410 272.888,292.060 273.302,290.974 273.432 C 289.888 273.563,288.321 273.924,287.492 274.235 C 285.509 274.978,279.291 274.978,277.308 274.235 C 276.479 273.924,275.119 273.574,274.287 273.458 C 270.843 272.976,267.766 268.981,267.156 264.200 C 266.960 262.660,266.645 260.230,266.457 258.800 C 265.847 254.166,266.355 135.172,267.001 131.157 C 268.522 121.721,276.489 118.015,288.888 120.976 M95.600 146.778 C 93.950 146.940,92.150 147.275,91.600 147.524 C 91.050 147.772,89.557 148.156,88.282 148.377 C 87.008 148.598,85.573 149.054,85.093 149.390 C 84.614 149.725,83.823 150.000,83.335 150.000 C 82.847 150.000,82.325 150.198,82.175 150.441 C 82.025 150.683,81.288 151.138,80.537 151.452 C 76.354 153.200,68.445 160.444,66.400 164.400 C 66.116 164.950,65.639 165.544,65.342 165.720 C 65.044 165.896,64.800 166.367,64.800 166.766 C 64.800 167.165,64.440 167.950,64.000 168.509 C 63.560 169.069,63.199 169.768,63.199 170.063 C 63.198 170.358,62.859 171.155,62.445 171.833 C 62.031 172.512,61.560 173.682,61.398 174.433 C 61.235 175.185,60.790 176.430,60.407 177.200 C 60.025 177.970,59.594 179.648,59.449 180.930 C 59.304 182.211,58.888 183.921,58.524 184.730 C 57.504 186.996,57.498 210.394,58.517 212.290 C 58.898 212.999,59.323 214.709,59.462 216.090 C 59.600 217.470,60.048 219.268,60.457 220.084 C 60.865 220.900,61.200 221.856,61.200 222.209 C 61.200 223.039,64.697 230.705,66.114 232.981 C 66.737 233.983,70.359 238.814,71.076 239.600 C 73.148 241.872,74.003 242.699,75.032 243.426 C 79.887 246.857,81.692 248.008,82.564 248.227 C 83.116 248.365,83.773 248.726,84.024 249.029 C 84.275 249.331,85.137 249.696,85.940 249.840 C 86.743 249.983,88.210 250.475,89.200 250.932 C 91.709 252.090,107.722 252.198,109.977 251.072 C 110.734 250.694,112.084 250.277,112.977 250.146 C 114.438 249.930,115.691 249.474,118.800 248.025 C 120.400 247.279,122.329 246.227,123.093 245.683 C 123.482 245.407,124.340 244.828,125.000 244.396 C 125.660 243.965,126.543 243.384,126.963 243.106 C 129.392 241.496,135.032 234.571,136.822 231.000 C 137.263 230.120,137.781 229.130,137.972 228.800 C 139.024 226.984,140.400 223.836,140.400 223.248 C 140.400 222.874,140.739 221.905,141.153 221.092 C 141.567 220.280,142.035 218.580,142.193 217.315 C 142.351 216.050,142.778 214.291,143.140 213.407 C 144.120 211.019,144.129 187.209,143.151 185.400 C 142.794 184.740,142.372 183.133,142.213 181.828 C 142.054 180.524,141.581 178.816,141.162 178.034 C 140.743 177.252,140.400 176.188,140.400 175.669 C 140.400 175.150,140.040 174.269,139.600 173.709 C 139.160 173.150,138.800 172.453,138.800 172.160 C 138.800 171.867,138.125 170.439,137.300 168.987 C 136.475 167.535,135.583 165.954,135.318 165.473 C 134.630 164.226,131.801 160.748,129.400 158.198 C 127.959 156.668,124.800 154.150,122.600 152.778 C 119.641 150.933,119.403 150.796,118.400 150.357 C 117.850 150.116,116.630 149.578,115.689 149.160 C 114.748 148.742,113.642 148.400,113.231 148.400 C 112.820 148.400,111.340 148.055,109.942 147.633 C 107.006 146.748,100.106 146.336,95.600 146.778 M217.685 155.163 C 218.848 155.582,220.520 156.048,221.400 156.199 C 222.280 156.349,223.249 156.678,223.554 156.929 C 224.857 158.007,231.684 159.131,233.596 158.583 C 234.588 158.299,236.386 157.939,237.590 157.783 C 238.795 157.628,240.221 157.211,240.760 156.859 C 242.371 155.803,248.940 155.964,250.994 157.110 C 251.871 157.600,252.744 158.000,252.934 158.000 C 253.562 158.000,255.584 160.453,256.678 162.543 C 258.270 165.581,258.340 175.215,256.800 179.162 C 255.192 183.280,249.096 188.400,245.800 188.400 C 245.395 188.400,244.756 188.678,244.381 189.017 C 244.006 189.357,243.002 189.743,242.150 189.876 C 241.297 190.009,240.122 190.451,239.538 190.859 C 238.954 191.266,238.283 191.600,238.046 191.600 C 235.907 191.600,229.120 198.228,228.209 201.208 C 228.042 201.753,227.612 202.534,227.253 202.942 C 226.666 203.608,226.580 206.559,226.400 231.942 C 226.260 251.745,226.066 260.439,225.751 261.000 C 225.504 261.440,225.174 262.700,225.017 263.800 C 224.404 268.094,220.319 272.882,216.823 273.406 C 216.040 273.523,214.531 273.794,213.469 274.009 C 210.966 274.516,202.899 274.513,200.706 274.005 C 199.768 273.787,198.315 273.507,197.478 273.382 C 195.389 273.071,191.458 269.181,190.749 266.723 C 190.476 265.775,190.015 264.645,189.726 264.211 C 188.933 263.021,188.949 164.942,189.743 163.789 C 190.042 163.355,190.492 162.370,190.744 161.600 C 191.156 160.339,192.311 158.892,194.256 157.200 C 197.511 154.369,211.991 153.110,217.685 155.163 M319.600 180.625 C 318.830 180.916,317.768 181.165,317.240 181.177 C 311.121 181.321,302.362 191.278,299.977 200.800 C 299.785 201.570,299.310 203.460,298.923 205.000 C 297.787 209.516,297.702 223.305,298.785 227.438 C 299.233 229.150,299.600 231.157,299.600 231.897 C 299.600 232.638,299.940 233.999,300.355 234.922 C 300.770 235.845,301.243 237.230,301.407 238.000 C 301.570 238.770,302.041 239.829,302.452 240.354 C 302.863 240.879,303.200 241.552,303.200 241.850 C 303.200 242.868,309.150 250.000,309.999 250.000 C 310.188 250.000,310.581 250.231,310.871 250.513 C 314.290 253.834,326.666 254.989,331.437 252.432 C 332.290 251.974,333.200 251.600,333.458 251.600 C 334.704 251.600,340.291 246.450,342.353 243.400 C 344.804 239.774,346.957 233.831,347.569 229.000 C 347.792 227.240,348.170 224.282,348.409 222.427 C 348.754 219.745,348.716 217.944,348.221 213.627 C 347.878 210.642,347.498 207.210,347.376 206.000 C 347.254 204.790,346.804 202.764,346.377 201.498 C 345.950 200.233,345.600 198.916,345.600 198.574 C 345.600 197.979,343.960 194.064,343.182 192.800 C 342.978 192.470,342.547 191.612,342.224 190.893 C 340.732 187.580,332.759 181.200,330.110 181.200 C 329.665 181.200,328.535 180.930,327.600 180.600 C 325.560 179.880,321.536 179.893,319.600 180.625 " stroke="none" fill="#d47414" fill-rule="evenodd"></path></g></svg>