<?xml version="1.0" encoding="UTF-8" standalone="no"?>
<svg
   width="1000"
   height="1000"
   version="1.1"
   id="svg12"
   sodipodi:docname="org-IBM.svg"
   inkscape:version="1.1 (c68e22c387, 2021-05-23)"
   xmlns:inkscape="http://www.inkscape.org/namespaces/inkscape"
   xmlns:sodipodi="http://sodipodi.sourceforge.net/DTD/sodipodi-0.dtd"
   xmlns:xlink="http://www.w3.org/1999/xlink"
   xmlns="http://www.w3.org/2000/svg"
   xmlns:svg="http://www.w3.org/2000/svg"
   xmlns:rdf="http://www.w3.org/1999/02/22-rdf-syntax-ns#"
   xmlns:cc="http://creativecommons.org/ns#"
   xmlns:dc="http://purl.org/dc/elements/1.1/">
  <defs
     id="defs16" />
  <sodipodi:namedview
     id="namedview14"
     pagecolor="#ffffff"
     bordercolor="#666666"
     borderopacity="1.0"
     inkscape:pageshadow="2"
     inkscape:pageopacity="0.0"
     inkscape:pagecheckerboard="0"
     showgrid="false"
     inkscape:snap-grids="true"
     height="1000px"
     inkscape:zoom="0.2645"
     inkscape:cx="495.2741"
     inkscape:cy="383.74291"
     inkscape:window-width="1533"
     inkscape:window-height="1081"
     inkscape:window-x="2761"
     inkscape:window-y="412"
     inkscape:window-maximized="0"
     inkscape:current-layer="svg12" />
  <title
     id="title2"> - upload.wikimedia.org/ </title>
  <clipPath
     id="A">
    <path
       d="M 0,-1 V 82 H 55.9 V 318 H 1.5 v 82 h 195 V 318 H 140.6 V 82 H 195 V -1 Z m 554,1 v 82 h 55.9 v 236 h -54.4 v 82 h 139 V 172 l 82.7,228 1.68,0.04 81.2,-228 v 228 h 140 v -82 h -55.9 v -236 h 54.4 v -82 h -156 l -64.7,183 -65.5,-183 z"
       id="path4" />
    <path
       id="B"
       d="m 222,0 v 82 h 55.9 v 130 h 215 v -24.9 c 0,0 18,-14 23.8,-27.4 l 11.5,-25.9 c 0,0 5.35,-14.5 5.35,-27.4 l -2.3,-25.9 c 0,0 -3.62,-21.1 -9.92,-27.3 l -22.3,-25.9 c 0,0 -28.3,-27.4 -65.9,-27.4 z m 140,82 h 82 v 76 h -82 z" />
    <use
       transform="matrix(1,0,0,-1,0,400)"
       xlink:href="#B"
       id="use7"
       x="0"
       y="0"
       width="100%"
       height="100%" />
  </clipPath>
  <path
     d="M 0,13.7 H 1030 V 66.9 H 0 m 0,53.2 h 975 v 53.2 H 0 v 53.2 h 975 v 53.2 H 0 m 0,53.2 h 1030 v 53.2 H 0"
     clip-path="url(#A)"
     fill="none"
     stroke="#1f70c1"
     stroke-width="27.4"
     id="path10"
     transform="translate(0,300)" />
  <g
     inkscape:groupmode="layer"
     id="layer1"
     inkscape:label="Layer 1" />
  <metadata
     id="metadata19">
    <rdf:RDF>
      <cc:Work
         rdf:about="">
        <dc:title> - upload.wikimedia.org/ </dc:title>
      </cc:Work>
    </rdf:RDF>
  </metadata>
  <metadata
     id="metadata21">
    <rdf:RDF>
      <cc:Work
         rdf:about="">
        <dc:title> - upload.wikimedia.org/ </dc:title>
      </cc:Work>
    </rdf:RDF>
  </metadata>
</svg>
