<svg id="svg" version="1.1" xmlns="http://www.w3.org/2000/svg" xmlns:xlink="http://www.w3.org/1999/xlink" width="400" height="400" viewBox="0, 0, 400,400"><g id="svgg"><path id="path0" d="M134.610 64.724 C 134.494 64.839,134.400 65.280,134.400 65.704 C 134.400 66.138,134.051 66.566,133.600 66.684 C 132.513 66.968,132.314 126.000,133.400 126.000 C 133.730 126.000,134.000 126.267,134.000 126.592 C 134.000 127.242,135.703 127.831,136.377 127.414 C 137.215 126.896,136.785 125.977,135.593 125.739 L 134.387 125.497 134.408 96.153 L 134.429 66.808 135.314 66.601 C 136.747 66.267,145.436 66.194,172.400 66.292 C 186.370 66.343,198.070 66.359,198.400 66.329 C 199.811 66.200,200.734 66.449,201.589 67.191 L 202.501 67.981 201.359 68.416 C 199.917 68.964,199.611 69.454,199.619 71.200 C 199.625 72.517,199.660 72.554,200.213 71.824 C 200.536 71.396,200.800 71.261,200.800 71.524 C 200.800 71.786,201.090 72.000,201.443 72.000 C 201.953 72.000,202.023 72.229,201.780 73.100 C 201.246 75.015,201.562 78.542,202.319 79.119 C 203.108 79.721,203.660 73.221,203.286 67.746 L 203.090 64.893 200.346 64.622 C 197.188 64.311,134.926 64.407,134.610 64.724 M202.400 69.400 C 202.400 69.730,202.108 70.000,201.751 70.000 C 201.220 70.000,201.192 69.891,201.600 69.400 C 201.874 69.070,202.166 68.800,202.249 68.800 C 202.332 68.800,202.400 69.070,202.400 69.400 M200.093 82.100 C 199.871 82.375,199.560 83.906,199.404 85.503 C 199.230 87.269,198.906 88.525,198.578 88.708 C 197.594 89.259,197.315 97.257,198.246 98.192 C 199.069 99.018,199.802 94.353,199.324 91.333 C 199.150 90.237,199.251 90.048,200.062 89.933 C 200.968 89.805,201.004 89.659,201.114 85.700 C 201.223 81.778,200.997 80.983,200.093 82.100 M235.200 88.971 C 235.200 89.066,235.483 89.426,235.829 89.771 C 236.789 90.732,267.011 90.727,266.643 89.767 C 266.509 89.419,266.400 89.059,266.400 88.967 C 266.400 88.875,259.380 88.800,250.800 88.800 C 242.220 88.800,235.200 88.877,235.200 88.971 M230.600 90.800 C 227.044 90.962,226.200 91.115,226.200 91.600 C 226.200 91.996,225.564 92.323,224.328 92.562 C 222.851 92.847,222.406 93.121,222.221 93.859 C 222.092 94.374,221.854 94.775,221.693 94.750 C 220.064 94.500,218.800 94.871,218.800 95.600 C 218.800 96.490,220.915 96.784,221.422 95.965 C 221.569 95.726,222.017 95.616,222.415 95.720 C 222.913 95.850,223.073 95.736,222.927 95.355 C 222.810 95.050,222.959 94.779,223.257 94.754 C 224.861 94.617,226.400 93.953,226.400 93.396 C 226.400 92.775,227.287 92.402,229.378 92.145 C 230.246 92.038,231.101 91.861,231.278 91.752 C 231.455 91.642,231.600 91.951,231.600 92.438 C 231.600 93.271,231.644 93.284,232.331 92.662 C 232.734 92.298,233.522 92.000,234.083 92.000 C 235.232 92.000,236.376 90.996,235.510 90.747 C 235.230 90.666,233.020 90.690,230.600 90.800 M267.392 91.700 C 267.549 92.195,267.639 92.870,267.593 93.200 C 267.313 95.177,267.240 192.242,267.518 193.303 C 267.864 194.625,267.366 197.600,266.798 197.600 C 266.286 197.600,266.057 199.138,266.544 199.307 C 266.795 199.394,267.450 199.353,268.000 199.215 L 269.000 198.964 269.101 144.882 L 269.203 90.800 268.155 90.800 C 267.250 90.800,267.146 90.923,267.392 91.700 M263.097 93.961 C 262.237 94.799,262.101 95.141,262.477 95.517 C 263.232 96.272,263.600 96.090,263.600 94.963 C 263.600 94.262,263.859 93.857,264.400 93.716 C 264.840 93.601,265.200 93.348,265.200 93.153 C 265.200 92.498,264.207 92.879,263.097 93.961 M230.832 93.438 C 230.780 94.158,229.055 95.913,228.253 96.062 C 227.528 96.196,227.529 96.227,228.270 97.141 C 228.960 97.991,229.085 98.020,229.566 97.441 C 229.859 97.088,230.346 96.800,230.649 96.800 C 231.501 96.800,232.810 95.290,232.548 94.609 C 232.420 94.274,232.079 94.000,231.791 94.000 C 231.502 94.000,231.176 93.775,231.065 93.500 C 230.949 93.212,230.850 93.185,230.832 93.438 M216.800 97.800 C 216.800 98.586,216.597 98.800,215.851 98.800 C 215.053 98.800,214.861 99.055,214.646 100.400 C 214.447 101.644,214.214 102.000,213.595 102.000 C 212.953 102.000,212.800 102.269,212.800 103.400 C 212.800 104.170,212.791 104.935,212.780 105.100 C 212.747 105.606,215.124 105.916,215.576 105.464 C 216.238 104.802,216.105 103.585,215.400 103.855 C 215.010 104.005,214.800 103.845,214.800 103.400 C 214.800 102.980,215.015 102.797,215.355 102.927 C 215.744 103.077,215.849 102.910,215.708 102.370 C 215.597 101.947,215.708 101.600,215.953 101.600 C 216.199 101.600,216.400 101.064,216.400 100.409 C 216.400 99.591,216.703 99.020,217.366 98.585 C 218.792 97.651,218.992 96.800,217.787 96.800 C 217.001 96.800,216.800 97.003,216.800 97.800 M263.701 99.000 C 263.705 99.880,263.787 100.193,263.883 99.695 C 263.979 99.198,263.975 98.478,263.875 98.095 C 263.775 97.713,263.696 98.120,263.701 99.000 M190.448 100.542 C 190.100 100.962,190.122 101.203,190.542 101.552 C 190.962 101.900,191.203 101.878,191.552 101.458 C 191.900 101.038,191.878 100.797,191.458 100.448 C 191.038 100.100,190.797 100.122,190.448 100.542 M196.175 100.983 C 195.747 101.636,195.462 102.923,195.425 104.377 C 195.364 106.728,194.777 108.000,193.752 108.000 C 193.335 108.000,193.213 108.665,193.245 110.758 C 193.279 113.015,193.127 113.732,192.404 114.708 C 191.422 116.038,191.457 117.323,192.482 117.520 C 193.024 117.625,193.178 117.277,193.277 115.725 C 193.387 113.998,193.493 113.810,194.300 113.895 C 195.097 113.980,195.200 113.810,195.200 112.421 C 195.200 110.603,195.786 108.852,196.601 108.233 C 197.169 107.802,197.596 100.663,197.085 100.151 C 196.963 100.030,196.554 100.404,196.175 100.983 M263.793 144.000 C 263.793 167.430,263.841 177.015,263.900 165.300 C 263.959 153.585,263.959 134.415,263.900 122.700 C 263.841 110.985,263.793 120.570,263.793 144.000 M210.750 107.171 C 210.722 108.287,210.655 109.380,210.600 109.600 C 210.545 109.820,210.478 110.180,210.450 110.400 C 210.423 110.620,210.040 110.800,209.600 110.800 C 208.876 110.800,208.800 111.067,208.800 113.600 C 208.800 115.140,208.903 116.400,209.029 116.400 C 209.745 116.400,210.369 115.053,210.441 113.350 C 210.487 112.277,210.592 111.273,210.675 111.117 C 210.919 110.659,212.000 111.238,212.000 111.827 C 212.000 112.180,212.417 112.339,213.199 112.284 C 213.859 112.238,214.399 112.035,214.399 111.833 C 214.400 111.632,214.518 111.585,214.663 111.730 C 215.127 112.194,215.998 111.137,216.047 110.051 C 216.094 109.022,216.101 109.025,216.400 110.200 C 216.690 111.342,216.708 111.320,216.753 109.749 C 216.779 108.814,217.063 107.880,217.405 107.596 C 218.094 107.024,217.534 106.000,216.532 106.000 C 215.953 106.000,214.186 107.685,213.872 108.535 C 213.589 109.301,212.750 108.248,212.441 106.739 C 211.971 104.438,210.810 104.734,210.750 107.171 M190.500 106.457 C 189.710 107.252,189.824 113.047,190.636 113.359 C 191.686 113.761,192.041 113.223,191.749 111.669 C 191.597 110.861,191.367 109.245,191.237 108.077 C 191.047 106.377,190.900 106.054,190.500 106.457 M206.753 118.700 C 206.694 121.046,206.299 122.980,205.900 122.877 C 204.951 122.633,204.800 123.040,204.800 125.833 C 204.800 130.287,205.822 129.644,206.600 124.700 C 206.745 123.782,207.057 123.200,207.404 123.200 C 209.227 123.200,208.925 116.843,207.100 116.806 C 206.935 116.803,206.779 117.655,206.753 118.700 M190.080 118.080 C 189.344 118.816,189.509 119.600,190.400 119.600 C 190.987 119.600,191.200 119.333,191.200 118.600 C 191.200 117.508,190.826 117.334,190.080 118.080 M182.443 118.548 C 182.087 118.978,182.106 119.155,182.526 119.316 C 183.429 119.663,184.143 119.016,183.472 118.460 C 183.034 118.096,182.802 118.116,182.443 118.548 M186.532 118.475 C 185.507 119.795,185.514 120.037,186.566 119.773 C 187.480 119.543,187.600 119.634,187.600 120.557 C 187.600 121.389,187.407 121.600,186.647 121.600 C 186.030 121.600,185.619 121.882,185.484 122.400 C 185.310 123.064,185.472 123.200,186.437 123.200 C 187.319 123.200,187.600 123.014,187.600 122.428 C 187.600 121.932,187.922 121.610,188.500 121.528 C 189.864 121.334,189.955 119.704,188.621 119.369 C 188.054 119.227,187.444 118.849,187.265 118.530 C 186.999 118.055,186.866 118.045,186.532 118.475 M182.229 124.229 C 181.324 125.133,181.404 125.200,183.400 125.200 C 184.672 125.200,185.200 125.037,185.200 124.643 C 185.200 123.543,183.194 123.263,182.229 124.229 M175.988 125.609 C 175.431 125.760,167.795 125.922,159.018 125.968 C 144.034 126.046,143.003 126.097,142.098 126.809 C 141.420 127.342,140.781 127.496,139.943 127.329 C 138.615 127.063,136.800 127.836,136.800 128.668 C 136.800 129.102,139.747 129.200,152.800 129.200 C 166.756 129.200,168.800 129.123,168.800 128.600 C 168.800 128.198,169.229 127.987,170.100 127.960 C 171.346 127.922,171.358 127.906,170.400 127.577 C 169.575 127.294,169.715 127.241,171.200 127.271 C 179.727 127.444,182.967 126.996,179.900 126.069 C 177.694 125.402,177.036 125.325,175.988 125.609 M202.800 131.539 C 202.800 134.046,204.093 136.132,205.249 135.489 C 205.337 135.440,205.137 135.647,204.805 135.950 C 204.279 136.428,204.328 136.470,205.179 136.267 C 205.718 136.138,206.381 136.218,206.652 136.444 C 207.441 137.098,208.753 135.535,208.505 134.238 C 208.334 133.340,208.211 133.258,207.687 133.691 C 207.185 134.105,207.036 134.099,206.887 133.655 C 206.732 133.194,206.649 133.194,206.358 133.655 C 206.087 134.081,206.011 134.048,206.006 133.500 C 206.002 133.069,205.693 132.800,205.200 132.800 C 204.511 132.800,204.400 132.533,204.400 130.885 C 204.400 129.257,204.280 128.961,203.600 128.910 C 202.873 128.855,202.800 129.096,202.800 131.539 M206.800 130.987 C 206.800 131.344,207.035 131.485,207.398 131.346 C 207.726 131.219,207.896 130.955,207.774 130.758 C 207.425 130.193,206.800 130.340,206.800 130.987 M200.719 138.300 C 200.539 141.551,200.679 142.198,201.427 141.578 C 202.622 140.586,202.622 135.600,201.427 135.600 C 201.019 135.600,200.828 136.328,200.719 138.300 M198.800 144.449 C 198.800 146.505,198.890 146.823,199.361 146.432 C 199.792 146.075,199.979 146.087,200.166 146.483 C 200.299 146.767,200.332 146.587,200.237 146.083 C 200.143 145.578,200.229 144.597,200.428 143.903 C 200.687 142.999,200.649 142.552,200.295 142.327 C 199.102 141.569,198.800 141.998,198.800 144.449 M196.800 150.026 C 196.800 152.293,196.275 153.600,195.364 153.600 C 194.888 153.600,194.783 154.013,194.878 155.500 C 194.978 157.062,195.131 157.389,195.737 157.338 C 196.276 157.293,196.420 157.481,196.274 158.038 C 196.165 158.457,196.265 158.917,196.498 159.061 C 196.763 159.225,196.646 159.523,196.184 159.861 C 195.485 160.372,195.493 160.400,196.336 160.400 C 196.825 160.400,197.341 160.098,197.483 159.729 C 197.713 159.129,197.772 159.140,198.042 159.829 C 198.241 160.339,198.353 159.896,198.372 158.524 C 198.387 157.382,198.607 156.319,198.861 156.162 C 199.603 155.704,200.301 157.078,200.204 158.804 C 200.103 160.588,200.218 160.688,201.272 159.735 C 201.943 159.127,201.952 159.010,201.375 158.372 C 201.028 157.988,200.535 156.577,200.280 155.235 C 199.954 153.520,199.606 152.729,199.108 152.571 C 198.592 152.407,198.400 151.928,198.400 150.806 C 198.400 148.877,198.074 148.000,197.357 148.000 C 196.954 148.000,196.800 148.561,196.800 150.026 M198.605 154.471 C 198.884 154.751,197.981 156.800,197.579 156.800 C 197.202 156.800,196.800 155.752,196.800 154.770 C 196.800 154.047,197.984 153.851,198.605 154.471 M198.806 157.033 C 198.809 157.455,198.995 158.070,199.218 158.400 C 199.515 158.838,199.552 158.676,199.356 157.800 C 199.027 156.329,198.798 156.010,198.806 157.033 M192.800 158.971 C 192.800 160.440,193.007 160.637,193.935 160.049 C 194.674 159.580,194.355 157.838,193.500 157.675 C 192.939 157.568,192.800 157.825,192.800 158.971 M190.800 161.800 C 190.800 162.600,190.600 162.800,189.800 162.800 C 189.072 162.800,188.800 163.014,188.800 163.587 C 188.800 164.573,189.732 164.290,191.300 162.828 C 192.597 161.619,192.718 160.800,191.600 160.800 C 191.013 160.800,190.800 161.067,190.800 161.800 M186.800 165.533 C 186.800 166.477,187.136 166.799,187.839 166.530 C 188.724 166.190,188.532 164.800,187.600 164.800 C 187.091 164.800,186.800 165.067,186.800 165.533 M191.600 166.238 C 191.600 166.457,190.932 166.681,190.115 166.736 C 188.325 166.857,187.920 167.149,189.113 167.461 C 189.596 167.588,189.884 167.864,189.753 168.076 C 189.616 168.298,189.983 168.406,190.617 168.331 C 191.978 168.169,192.806 167.046,192.091 166.331 C 191.821 166.061,191.600 166.019,191.600 166.238 M182.800 167.800 C 182.800 168.764,182.707 168.800,180.200 168.800 C 177.549 168.800,177.098 169.085,178.245 170.037 C 179.256 170.876,181.670 170.512,182.615 169.378 C 183.063 168.840,183.750 168.400,184.141 168.400 C 185.063 168.400,186.400 167.681,186.400 167.186 C 186.400 166.974,185.590 166.800,184.600 166.800 C 182.947 166.800,182.800 166.881,182.800 167.800 M154.946 170.700 C 135.062 170.806,134.890 170.814,134.675 171.633 C 134.557 172.088,134.086 172.557,133.630 172.676 C 132.811 172.890,132.800 173.073,132.800 186.001 L 132.800 199.109 133.900 199.298 C 134.505 199.402,135.315 199.622,135.700 199.786 C 136.813 200.262,136.567 198.928,135.401 198.164 L 134.402 197.510 134.501 185.388 C 134.556 178.721,134.749 173.117,134.932 172.935 C 135.796 172.071,141.704 172.277,142.396 173.194 C 143.008 174.006,143.117 174.026,143.703 173.440 C 144.257 172.885,145.801 172.798,155.271 172.786 C 165.451 172.772,175.607 172.126,176.284 171.449 C 176.568 171.165,175.602 170.321,175.200 170.502 C 175.090 170.552,165.976 170.641,154.946 170.700 M168.458 174.502 C 167.803 175.157,168.671 176.000,170.000 176.000 C 171.674 176.000,172.397 174.905,170.935 174.583 C 170.311 174.446,169.597 174.272,169.349 174.198 C 169.101 174.123,168.700 174.260,168.458 174.502 M138.408 174.731 C 137.590 175.003,138.840 176.000,140.000 176.000 C 141.933 176.000,142.309 174.914,140.438 174.735 C 139.564 174.652,138.651 174.650,138.408 174.731 M263.701 189.000 C 263.705 189.880,263.787 190.193,263.883 189.695 C 263.979 189.198,263.975 188.478,263.875 188.095 C 263.775 187.713,263.696 188.120,263.701 189.000 M262.500 192.695 C 261.845 192.920,261.855 194.982,262.513 195.528 C 262.796 195.762,263.248 195.818,263.518 195.651 C 264.183 195.240,263.221 192.447,262.500 192.695 M264.481 192.741 C 264.062 193.007,264.072 193.161,264.532 193.544 C 264.990 193.923,265.144 193.857,265.314 193.208 C 265.540 192.343,265.311 192.215,264.481 192.741 M137.696 199.111 C 136.979 199.710,136.394 200.425,136.396 200.700 C 136.399 201.098,149.559 201.200,200.854 201.200 L 265.308 201.200 264.254 200.371 C 263.674 199.915,263.200 199.195,263.200 198.771 C 263.200 198.347,262.930 198.000,262.600 198.000 C 262.270 198.000,262.000 198.193,262.000 198.429 C 262.000 199.759,260.708 200.162,259.918 199.077 L 259.133 198.000 199.067 198.011 L 139.000 198.022 137.696 199.111 M327.200 211.979 C 320.267 213.026,314.020 217.507,311.480 223.256 C 310.065 226.458,309.920 227.386,309.645 235.000 L 309.400 241.800 305.223 241.915 C 299.869 242.062,300.000 241.928,300.000 247.259 C 300.000 252.462,299.933 252.400,305.602 252.400 C 307.555 252.400,309.261 252.575,309.393 252.788 C 309.525 253.002,309.622 264.771,309.609 278.942 C 309.585 304.543,309.676 306.491,310.925 307.286 C 311.963 307.946,319.463 307.640,320.371 306.900 L 321.231 306.200 321.316 279.720 C 321.376 260.715,321.527 253.113,321.851 252.789 C 322.118 252.522,324.009 252.310,326.490 252.269 C 332.128 252.176,332.106 252.198,331.934 246.907 C 331.772 241.894,331.903 242.014,326.549 242.006 C 321.295 241.998,321.391 242.114,321.430 235.836 C 321.483 227.215,323.397 224.132,329.172 223.366 C 332.066 222.982,332.215 222.665,332.066 217.246 C 331.902 211.269,331.902 211.269,327.200 211.979 M331.400 217.389 L 331.400 222.178 329.738 222.462 C 323.065 223.601,320.133 228.347,320.463 237.473 C 320.636 242.266,320.779 242.398,325.776 242.405 C 331.493 242.414,331.200 242.165,331.200 247.023 C 331.200 251.944,331.405 251.747,326.399 251.648 C 323.084 251.583,322.384 251.684,321.562 252.351 L 320.600 253.129 320.512 279.220 C 320.431 303.043,320.365 305.376,319.750 306.056 C 318.886 307.009,311.607 307.173,310.846 306.255 C 310.522 305.865,310.366 298.210,310.297 279.275 C 310.185 248.756,310.745 251.838,305.289 251.708 C 300.077 251.583,300.400 251.865,300.400 247.441 C 300.400 242.489,300.489 242.400,305.400 242.400 C 310.563 242.400,310.398 242.648,310.410 234.871 C 310.419 228.630,310.569 227.458,311.802 223.970 C 313.908 218.012,322.636 212.267,329.200 212.516 L 331.400 212.600 331.400 217.389 M81.752 214.100 C 75.376 216.655,74.749 225.138,80.680 228.631 C 86.731 232.196,93.941 226.333,92.045 219.390 C 90.924 215.284,85.611 212.554,81.752 214.100 M89.469 216.583 L 91.600 218.765 91.600 221.504 C 91.600 229.405,81.364 232.068,78.055 225.028 C 75.511 219.615,78.748 214.506,84.769 214.432 L 87.338 214.400 89.469 216.583 M126.800 241.353 C 115.300 243.547,112.437 245.261,114.363 248.800 C 114.782 249.570,115.520 251.046,116.003 252.080 C 117.335 254.933,119.009 255.167,123.064 253.070 C 130.843 249.048,147.721 250.956,151.936 256.335 C 153.816 258.733,154.071 259.516,154.294 263.567 C 154.583 268.804,154.047 269.483,151.227 267.458 C 150.184 266.708,148.897 265.965,148.366 265.806 C 147.834 265.647,146.995 265.261,146.500 264.949 C 142.169 262.218,127.864 262.365,121.400 265.207 C 116.711 267.270,111.177 271.909,109.718 275.000 C 109.407 275.660,108.903 276.642,108.598 277.182 C 105.764 282.208,107.111 293.792,111.062 298.362 C 113.721 301.437,114.823 302.410,118.152 304.617 C 127.180 310.604,147.228 309.689,152.556 303.046 C 153.016 302.473,155.159 301.924,155.254 302.355 C 155.284 302.490,155.340 303.358,155.379 304.285 C 155.497 307.106,156.278 307.600,160.618 307.600 C 163.542 307.600,164.490 307.454,165.170 306.900 L 166.029 306.200 165.907 281.800 L 165.785 257.400 164.779 255.200 C 159.450 243.548,144.282 238.018,126.800 241.353 M212.000 241.249 C 207.994 242.319,205.211 243.775,202.828 246.047 C 200.628 248.146,200.400 248.034,200.400 244.847 C 200.400 243.809,200.184 242.744,199.920 242.480 C 199.315 241.875,190.683 241.820,189.574 242.414 C 188.819 242.818,188.800 243.595,188.800 274.385 L 188.800 305.942 189.854 306.771 C 191.278 307.891,198.754 308.019,199.651 306.939 C 200.095 306.405,200.243 302.173,200.423 284.839 L 200.647 263.400 201.638 260.914 C 206.289 249.243,223.215 248.147,228.523 259.173 L 229.788 261.800 229.994 284.080 C 230.156 301.611,230.311 306.472,230.720 306.880 C 231.551 307.710,240.171 307.600,241.022 306.749 C 241.606 306.166,241.670 304.178,241.639 287.549 C 241.593 262.280,241.834 260.493,245.871 256.158 C 251.693 249.907,262.969 250.048,268.028 256.435 C 270.971 260.151,270.963 260.087,271.194 284.258 C 271.440 310.065,270.821 307.600,277.046 307.600 C 283.484 307.600,282.877 310.269,282.690 282.800 C 282.522 257.959,282.558 258.389,280.216 253.470 C 273.044 238.413,249.052 235.629,238.846 248.670 C 237.314 250.629,236.750 250.787,235.891 249.500 C 230.965 242.128,221.261 238.777,212.000 241.249 M144.016 241.836 C 146.537 242.187,149.320 242.795,150.200 243.189 C 151.080 243.583,152.250 244.038,152.800 244.200 C 155.153 244.895,160.335 249.041,162.723 252.137 C 163.260 252.834,164.562 256.315,165.214 258.800 C 165.697 260.642,165.703 305.217,165.221 305.980 C 164.954 306.401,163.783 306.608,160.958 306.731 C 156.463 306.928,156.000 306.651,156.000 303.773 C 156.000 301.529,155.337 301.016,153.456 301.803 C 152.655 302.137,152.000 302.556,152.000 302.734 C 152.000 303.285,148.868 305.143,145.660 306.495 L 142.600 307.785 134.800 307.756 C 126.429 307.725,123.434 307.094,119.200 304.471 C 118.430 303.993,117.639 303.602,117.442 303.601 C 117.082 303.600,116.726 303.289,113.800 300.420 C 105.573 292.352,105.482 279.290,113.598 271.174 C 116.121 268.652,116.954 268.044,119.800 266.654 C 129.300 262.014,143.534 262.633,151.000 268.012 C 154.022 270.189,154.963 269.807,155.117 266.339 C 155.590 255.709,149.230 250.358,136.000 250.255 C 131.601 250.220,123.604 251.685,122.200 252.783 C 119.803 254.657,117.548 254.018,116.141 251.066 C 115.600 249.930,114.890 248.513,114.565 247.917 C 113.848 246.606,114.393 245.436,115.989 244.856 C 125.255 241.485,134.396 240.501,144.016 241.836 M223.857 241.841 C 228.092 242.705,231.093 244.648,234.541 248.761 C 236.641 251.266,237.020 251.428,238.099 250.278 C 242.199 245.907,243.196 244.992,244.600 244.310 C 245.480 243.882,246.650 243.291,247.200 242.995 C 247.750 242.699,249.820 242.175,251.800 241.830 C 264.945 239.539,276.121 244.443,279.889 254.155 C 280.239 255.060,280.662 255.980,280.826 256.200 C 281.993 257.757,282.710 303.926,281.599 306.002 C 281.078 306.975,273.130 307.237,272.524 306.300 C 272.346 306.025,272.100 296.080,271.978 284.200 L 271.757 262.600 270.756 260.091 C 265.271 246.345,244.200 248.638,241.654 263.259 C 241.356 264.967,241.200 272.710,241.200 285.722 L 241.200 305.579 239.947 306.228 C 238.405 307.025,231.957 306.917,231.120 306.080 C 230.711 305.672,230.556 300.800,230.394 283.280 L 230.188 261.000 228.880 258.533 C 222.979 247.411,205.905 248.738,201.106 260.692 L 200.012 263.416 199.993 284.119 C 199.979 298.588,199.838 305.119,199.522 305.810 C 198.940 307.088,191.668 307.347,190.331 306.138 C 189.412 305.306,189.167 243.793,190.080 242.880 C 190.686 242.274,199.037 242.212,199.406 242.810 C 199.546 243.036,199.761 244.251,199.884 245.510 C 200.226 249.000,200.569 249.147,202.955 246.821 C 207.886 242.014,215.643 240.166,223.857 241.841 M79.376 242.568 C 78.619 243.121,78.595 244.112,78.400 282.068 C 78.252 310.811,78.076 321.262,77.727 322.000 C 76.686 324.203,74.682 325.794,72.000 326.546 C 67.926 327.688,68.200 327.234,68.200 332.844 L 68.200 337.800 69.965 337.926 C 77.420 338.459,86.227 332.119,88.938 324.268 L 90.000 321.193 90.000 282.076 C 90.000 252.186,89.887 242.847,89.520 242.480 C 88.797 241.757,80.386 241.830,79.376 242.568 M89.400 282.000 L 89.400 321.400 88.380 324.200 C 85.632 331.741,81.331 335.076,71.518 337.277 C 68.421 337.971,68.357 337.874,68.487 332.725 L 68.600 328.234 70.000 327.942 C 72.453 327.429,75.439 325.844,76.675 324.400 C 79.094 321.574,78.974 323.603,79.196 281.685 C 79.374 248.039,79.476 243.122,80.000 242.784 C 80.330 242.572,82.580 242.444,85.000 242.499 L 89.400 242.600 89.400 282.000 M130.502 273.244 C 124.136 274.686,120.770 277.529,119.205 282.783 L 118.327 285.733 119.220 288.869 C 122.301 299.692,142.981 303.028,151.923 294.145 C 163.016 283.126,148.669 269.127,130.502 273.244 M142.833 273.760 C 159.839 276.521,158.480 296.282,141.160 298.093 C 129.332 299.329,121.604 295.964,119.762 288.774 C 117.982 281.826,122.644 275.199,130.156 273.999 C 131.720 273.749,133.180 273.482,133.400 273.404 C 134.396 273.053,139.715 273.254,142.833 273.760 " stroke="none" fill="#7b94b3" fill-rule="evenodd"></path><path id="path1" d="M0.000 200.000 L 0.000 400.000 200.000 400.000 L 400.000 400.000 400.000 200.000 L 400.000 0.000 200.000 0.000 L 0.000 0.000 0.000 200.000 M202.509 62.738 C 206.559 65.256,207.249 69.510,205.116 78.800 C 203.648 85.191,203.002 88.212,200.623 99.800 C 197.467 115.173,193.695 121.859,185.546 126.519 C 179.128 130.190,174.619 130.787,153.400 130.775 C 133.532 130.763,133.486 130.753,131.347 126.200 L 130.408 124.200 130.408 96.400 L 130.408 68.600 131.350 66.576 C 133.764 61.392,131.342 61.699,169.400 61.754 L 201.000 61.800 202.509 62.738 M267.000 87.540 C 268.633 88.239,269.912 89.491,270.939 91.400 L 271.800 93.000 271.800 145.000 L 271.800 197.000 270.803 198.600 C 267.952 203.176,274.003 202.824,200.140 202.705 C 126.298 202.585,133.713 202.987,131.509 198.982 L 130.419 197.000 130.409 185.687 C 130.398 172.422,130.605 171.551,134.282 169.348 L 136.200 168.200 156.400 167.982 L 176.600 167.765 179.921 166.479 C 188.146 163.294,192.135 158.197,195.633 146.400 C 196.057 144.970,196.673 143.233,197.002 142.540 C 197.331 141.846,197.600 141.090,197.600 140.859 C 197.600 140.384,199.720 133.628,200.819 130.600 C 201.219 129.500,202.114 126.710,202.809 124.400 C 203.503 122.090,204.328 119.570,204.642 118.800 C 204.956 118.030,205.556 116.230,205.976 114.800 C 209.730 102.014,213.909 95.790,221.800 91.232 C 225.784 88.930,229.517 87.989,238.400 87.048 C 242.209 86.644,265.856 87.051,267.000 87.540 M332.386 211.974 C 332.614 212.399,332.800 214.879,332.800 217.485 C 332.800 223.485,332.620 223.798,328.941 224.192 C 326.758 224.425,326.068 224.680,325.230 225.563 C 322.693 228.232,322.688 228.249,322.368 233.873 C 321.925 241.648,321.674 241.255,327.126 241.334 C 332.604 241.414,332.386 241.170,332.394 247.220 C 332.402 253.003,332.601 252.800,326.920 252.800 L 322.400 252.800 322.386 253.900 C 322.378 254.505,322.371 266.250,322.370 280.000 C 322.369 311.076,323.084 308.286,315.100 308.360 C 308.504 308.421,309.200 311.763,309.200 280.043 C 309.200 256.013,309.136 253.261,308.567 253.043 C 308.219 252.909,306.284 252.797,304.267 252.794 C 299.290 252.786,299.426 252.931,299.266 247.449 C 299.087 241.309,299.186 241.200,304.953 241.200 L 309.105 241.200 309.299 233.500 C 309.479 226.327,309.932 223.200,310.789 223.200 C 310.960 223.200,311.203 222.686,311.328 222.058 C 311.454 221.430,311.971 220.429,312.478 219.832 C 314.489 217.468,316.356 215.600,316.710 215.600 C 316.915 215.600,317.569 215.150,318.162 214.600 C 318.756 214.050,319.460 213.600,319.727 213.600 C 319.993 213.600,320.921 213.220,321.788 212.755 C 324.821 211.129,331.664 210.625,332.386 211.974 M88.113 213.739 C 92.770 215.688,94.460 223.083,91.182 227.162 C 90.458 228.063,89.700 228.800,89.496 228.800 C 89.293 228.800,88.669 229.160,88.109 229.600 C 86.485 230.877,81.125 230.633,80.000 229.231 C 79.890 229.094,79.305 228.667,78.700 228.282 C 78.095 227.897,77.600 227.372,77.600 227.117 C 77.600 226.861,77.195 226.220,76.700 225.694 C 74.072 222.896,76.677 215.299,80.834 213.637 C 82.272 213.062,86.642 213.123,88.113 213.739 M145.642 240.512 C 146.389 240.845,148.066 241.316,149.369 241.559 C 150.672 241.802,152.022 242.249,152.369 242.553 C 152.716 242.857,153.450 243.237,154.000 243.398 C 157.423 244.399,164.009 250.508,164.608 253.238 C 164.749 253.877,165.015 254.400,165.201 254.400 C 166.899 254.400,167.484 306.608,165.800 307.858 C 163.215 309.778,154.444 308.021,154.409 305.576 C 154.388 304.146,153.348 303.342,152.505 304.105 C 152.082 304.487,151.569 304.800,151.365 304.800 C 151.160 304.800,150.783 305.135,150.528 305.544 C 150.273 305.953,149.476 306.405,148.758 306.548 C 148.040 306.692,147.120 307.110,146.715 307.477 C 146.309 307.845,144.677 308.370,143.088 308.645 C 141.500 308.919,139.480 309.332,138.600 309.563 C 136.558 310.097,133.449 310.098,131.400 309.565 C 130.520 309.336,128.360 308.914,126.600 308.627 C 123.709 308.156,121.721 307.432,118.800 305.788 C 118.250 305.479,117.215 304.917,116.500 304.539 C 115.785 304.161,115.200 303.615,115.200 303.326 C 115.200 303.037,114.983 302.800,114.717 302.800 C 114.117 302.800,111.200 299.992,111.200 299.415 C 111.200 299.183,110.840 298.768,110.400 298.493 C 109.960 298.218,109.600 297.752,109.600 297.458 C 109.600 297.163,109.241 296.509,108.803 296.003 C 108.074 295.163,107.208 292.858,107.202 291.746 C 107.201 291.496,106.931 290.776,106.602 290.146 C 105.815 288.636,105.788 282.616,106.562 281.133 C 106.868 280.546,107.242 279.336,107.392 278.444 C 107.543 277.553,107.987 276.413,108.378 275.912 C 108.770 275.410,109.208 274.624,109.352 274.164 C 109.730 272.955,114.828 267.772,116.004 267.400 C 116.552 267.227,117.235 266.751,117.523 266.343 C 117.810 265.934,118.262 265.600,118.526 265.600 C 118.790 265.600,119.815 265.172,120.803 264.648 C 121.791 264.124,123.561 263.565,124.736 263.405 C 125.911 263.246,127.351 262.865,127.936 262.560 C 129.421 261.785,139.577 261.780,141.340 262.553 C 142.033 262.857,143.635 263.320,144.900 263.582 C 146.165 263.843,147.425 264.282,147.700 264.556 C 147.975 264.830,148.808 265.266,149.552 265.524 C 150.295 265.783,151.352 266.443,151.900 266.991 C 153.453 268.544,153.720 267.931,153.513 263.286 C 153.366 259.983,153.184 258.977,152.663 258.597 C 152.298 258.330,152.000 257.921,152.000 257.688 C 152.000 256.081,146.569 252.959,142.800 252.401 C 137.204 251.572,125.776 252.205,124.394 253.421 C 124.061 253.714,123.013 254.128,122.065 254.341 C 121.118 254.554,120.038 255.004,119.666 255.341 C 118.639 256.270,116.474 255.104,115.739 253.225 C 115.432 252.441,115.009 251.530,114.799 251.200 C 111.894 246.626,112.118 244.435,115.575 243.606 C 116.676 243.342,118.216 242.800,118.998 242.401 C 119.780 242.002,121.540 241.549,122.910 241.394 C 124.279 241.238,125.627 240.927,125.905 240.702 C 127.385 239.505,143.042 239.354,145.642 240.512 M224.882 240.465 C 225.387 240.784,226.610 241.279,227.600 241.564 C 228.590 241.849,229.722 242.424,230.116 242.841 C 230.509 243.259,230.982 243.600,231.167 243.600 C 231.780 243.600,234.939 246.976,236.572 249.376 C 237.077 250.118,237.129 250.098,237.736 248.925 C 238.085 248.249,238.647 247.591,238.985 247.461 C 239.323 247.331,239.600 246.962,239.600 246.640 C 239.600 246.317,239.960 245.940,240.400 245.800 C 240.841 245.660,241.374 245.223,241.585 244.828 C 241.796 244.433,242.561 243.871,243.285 243.578 C 244.008 243.286,244.734 242.830,244.897 242.564 C 245.061 242.298,246.141 241.856,247.297 241.580 C 248.454 241.304,249.842 240.791,250.382 240.439 C 251.834 239.495,263.781 239.503,265.226 240.449 C 265.771 240.807,266.998 241.231,267.951 241.392 C 268.905 241.553,269.999 241.999,270.382 242.382 C 270.766 242.766,271.624 243.270,272.289 243.501 C 272.954 243.733,274.705 245.155,276.181 246.661 C 279.923 250.480,279.939 250.500,280.453 252.030 C 280.706 252.784,281.170 253.697,281.483 254.061 C 281.797 254.424,282.290 256.044,282.579 257.661 C 282.869 259.277,283.314 261.410,283.569 262.400 C 284.419 265.703,283.982 306.590,283.087 307.486 C 282.338 308.236,274.741 308.773,272.576 308.230 C 270.401 307.684,270.426 307.932,270.270 284.581 C 270.121 262.033,269.958 259.809,268.353 258.284 C 267.939 257.891,267.600 257.367,267.600 257.120 C 267.600 256.625,265.250 254.400,264.728 254.400 C 264.548 254.400,263.995 253.995,263.500 253.500 C 261.885 251.885,252.973 252.150,249.964 253.902 C 247.415 255.386,244.885 258.013,244.291 259.791 C 244.069 260.456,243.597 261.334,243.243 261.742 C 242.674 262.398,242.577 265.056,242.400 284.822 C 242.243 302.397,242.089 307.272,241.680 307.681 C 240.796 308.564,231.030 308.400,230.115 307.486 C 229.448 306.820,229.393 305.288,229.291 284.886 C 229.188 264.043,229.145 262.919,228.391 261.304 C 227.956 260.372,227.600 259.343,227.600 259.018 C 227.600 258.694,227.060 257.813,226.400 257.061 C 225.740 256.309,225.200 255.493,225.200 255.247 C 225.200 255.001,224.955 254.800,224.656 254.800 C 224.357 254.800,223.412 254.305,222.556 253.700 C 220.641 252.346,211.601 251.998,210.142 253.223 C 209.734 253.565,208.894 254.061,208.275 254.325 C 206.753 254.975,204.400 256.889,204.400 257.477 C 204.400 257.740,204.067 258.190,203.660 258.477 C 203.154 258.835,202.585 260.451,201.857 263.600 L 200.793 268.200 200.796 287.677 L 200.800 307.155 199.911 307.777 C 198.120 309.032,189.216 308.492,188.314 307.075 C 187.615 305.976,187.952 242.538,188.660 241.949 C 189.495 241.254,198.104 240.951,199.700 241.560 C 200.696 241.941,200.800 242.168,200.800 243.971 L 200.800 245.961 202.054 245.434 C 202.744 245.144,203.473 244.613,203.674 244.253 C 203.875 243.894,204.294 243.600,204.604 243.600 C 204.915 243.600,205.491 243.254,205.886 242.831 C 206.280 242.407,207.502 241.842,208.601 241.573 C 209.701 241.304,210.834 240.901,211.121 240.676 C 212.618 239.501,223.104 239.340,224.882 240.465 M89.973 241.900 L 90.835 242.600 90.717 282.800 L 90.600 323.000 89.500 325.275 C 88.895 326.527,88.400 327.667,88.400 327.810 C 88.400 329.876,81.264 336.116,78.335 336.611 C 77.491 336.754,76.800 337.028,76.800 337.220 C 76.800 337.689,74.384 338.286,71.168 338.612 C 67.354 338.998,67.200 338.772,67.200 332.753 C 67.200 326.935,67.584 326.294,71.349 325.824 C 73.058 325.610,73.984 325.238,74.978 324.366 C 77.768 321.916,77.599 324.630,77.605 282.140 C 77.611 240.993,77.564 242.229,79.142 241.651 C 81.125 240.924,88.994 241.105,89.973 241.900 M131.234 274.474 C 129.361 274.709,127.904 275.132,127.280 275.623 C 126.737 276.050,125.958 276.400,125.549 276.400 C 125.141 276.400,124.582 276.760,124.307 277.200 C 124.032 277.640,123.626 278.007,123.404 278.015 C 120.860 278.111,119.199 289.803,121.500 291.415 C 121.995 291.762,122.400 292.299,122.400 292.609 C 122.400 292.918,122.774 293.372,123.230 293.616 C 123.687 293.861,124.389 294.389,124.790 294.790 C 125.190 295.190,126.122 295.647,126.859 295.804 C 127.597 295.961,128.534 296.384,128.942 296.745 C 129.899 297.590,144.618 297.742,145.131 296.912 C 145.297 296.643,146.224 296.144,147.191 295.803 C 148.925 295.191,149.307 294.931,151.119 293.119 C 153.043 291.194,153.231 290.849,153.647 288.492 C 154.165 285.551,153.571 280.839,152.615 280.304 C 152.277 280.115,152.000 279.721,152.000 279.428 C 152.000 278.770,149.708 276.991,147.246 275.736 C 144.209 274.189,137.647 273.672,131.234 274.474 " stroke="none" fill="#434b54" fill-rule="evenodd"></path><path id="path2" d="M323.800 213.537 C 316.545 216.040,312.643 220.137,310.787 227.200 C 310.585 227.970,310.415 231.422,310.410 234.871 C 310.398 242.648,310.563 242.400,305.400 242.400 C 300.489 242.400,300.400 242.489,300.400 247.441 C 300.400 251.865,300.077 251.583,305.289 251.708 C 310.745 251.838,310.185 248.756,310.297 279.275 C 310.366 298.210,310.522 305.865,310.846 306.255 C 311.607 307.173,318.886 307.009,319.750 306.056 C 320.365 305.376,320.431 303.043,320.512 279.220 L 320.600 253.129 321.562 252.351 C 322.384 251.684,323.084 251.583,326.399 251.648 C 331.405 251.747,331.200 251.944,331.200 247.023 C 331.200 242.165,331.493 242.414,325.776 242.405 C 320.779 242.398,320.636 242.266,320.463 237.473 C 320.133 228.347,323.065 223.601,329.738 222.462 L 331.400 222.178 331.400 217.389 L 331.400 212.600 329.200 212.516 C 327.663 212.458,326.035 212.766,323.800 213.537 M81.600 214.691 C 77.996 216.061,76.243 221.172,78.055 225.028 C 81.364 232.068,91.600 229.405,91.600 221.504 L 91.600 218.765 89.469 216.583 L 87.338 214.400 84.769 214.432 C 83.356 214.449,81.930 214.566,81.600 214.691 M127.800 241.826 C 124.382 242.280,119.934 243.421,115.989 244.856 C 114.393 245.436,113.848 246.606,114.565 247.917 C 114.890 248.513,115.600 249.930,116.141 251.066 C 117.548 254.018,119.803 254.657,122.200 252.783 C 123.604 251.685,131.601 250.220,136.000 250.255 C 149.230 250.358,155.590 255.709,155.117 266.339 C 154.963 269.807,154.022 270.189,151.000 268.012 C 143.534 262.633,129.300 262.014,119.800 266.654 C 116.954 268.044,116.121 268.652,113.598 271.174 C 105.482 279.290,105.573 292.352,113.800 300.420 C 116.726 303.289,117.082 303.600,117.442 303.601 C 117.639 303.602,118.430 303.993,119.200 304.471 C 123.434 307.094,126.429 307.725,134.800 307.756 L 142.600 307.785 145.660 306.495 C 148.868 305.143,152.000 303.285,152.000 302.734 C 152.000 302.556,152.655 302.137,153.456 301.803 C 155.337 301.016,156.000 301.529,156.000 303.773 C 156.000 306.651,156.463 306.928,160.958 306.731 C 163.783 306.608,164.954 306.401,165.221 305.980 C 165.703 305.217,165.697 260.642,165.214 258.800 C 164.562 256.315,163.260 252.834,162.723 252.137 C 160.335 249.041,155.153 244.895,152.800 244.200 C 152.250 244.038,151.080 243.583,150.200 243.189 C 146.309 241.448,135.565 240.794,127.800 241.826 M212.000 241.967 C 208.233 242.842,205.570 244.271,202.955 246.821 C 200.569 249.147,200.226 249.000,199.884 245.510 C 199.761 244.251,199.546 243.036,199.406 242.810 C 199.037 242.212,190.686 242.274,190.080 242.880 C 189.167 243.793,189.412 305.306,190.331 306.138 C 191.668 307.347,198.940 307.088,199.522 305.810 C 199.838 305.119,199.979 298.588,199.993 284.119 L 200.012 263.416 201.106 260.692 C 205.905 248.738,222.979 247.411,228.880 258.533 L 230.188 261.000 230.394 283.280 C 230.556 300.800,230.711 305.672,231.120 306.080 C 231.957 306.917,238.405 307.025,239.947 306.228 L 241.200 305.579 241.200 285.722 C 241.200 272.710,241.356 264.967,241.654 263.259 C 244.200 248.638,265.271 246.345,270.756 260.091 L 271.757 262.600 271.978 284.200 C 272.100 296.080,272.346 306.025,272.524 306.300 C 273.130 307.237,281.078 306.975,281.599 306.002 C 282.710 303.926,281.993 257.757,280.826 256.200 C 280.662 255.980,280.239 255.060,279.889 254.155 C 276.121 244.443,264.945 239.539,251.800 241.830 C 249.820 242.175,247.750 242.699,247.200 242.995 C 246.650 243.291,245.480 243.882,244.600 244.310 C 243.196 244.992,242.199 245.907,238.099 250.278 C 237.020 251.428,236.641 251.266,234.541 248.761 C 228.900 242.033,221.419 239.778,212.000 241.967 M80.000 242.784 C 79.476 243.122,79.374 248.039,79.196 281.685 C 78.974 323.603,79.094 321.574,76.675 324.400 C 75.439 325.844,72.453 327.429,70.000 327.942 L 68.600 328.234 68.487 332.725 C 68.357 337.874,68.421 337.971,71.518 337.277 C 81.331 335.076,85.632 331.741,88.380 324.200 L 89.400 321.400 89.400 282.000 L 89.400 242.600 85.000 242.499 C 82.580 242.444,80.330 242.572,80.000 242.784 M143.330 273.247 C 159.552 276.720,159.554 295.788,143.332 298.417 C 130.633 300.476,121.494 296.857,119.220 288.869 L 118.327 285.733 119.205 282.783 C 121.660 274.540,131.396 270.692,143.330 273.247 " stroke="none" fill="#e5e7e8" fill-rule="evenodd"></path><path id="path3" d="M134.800 64.156 C 131.938 66.228,132.048 64.947,132.023 96.474 C 131.998 126.689,131.957 126.061,134.108 128.147 L 135.400 129.400 155.200 129.400 C 172.771 129.400,175.158 129.326,176.400 128.740 C 177.170 128.377,178.869 127.862,180.176 127.596 C 181.483 127.330,183.013 126.798,183.576 126.415 C 184.139 126.032,185.590 125.062,186.800 124.259 C 190.852 121.568,194.047 117.583,195.746 113.100 C 196.142 112.055,196.609 111.200,196.784 111.200 C 196.959 111.200,197.326 109.715,197.599 107.900 C 197.873 106.085,198.338 104.060,198.634 103.400 C 198.930 102.740,199.368 100.586,199.608 98.614 C 199.848 96.642,200.293 94.482,200.598 93.814 C 200.903 93.146,201.349 91.160,201.591 89.400 C 201.832 87.640,202.280 85.480,202.585 84.600 C 202.890 83.720,203.425 81.141,203.772 78.869 C 204.120 76.598,204.613 74.349,204.868 73.874 C 205.629 72.450,205.508 67.404,204.691 66.500 C 204.311 66.080,204.000 65.542,204.000 65.303 C 204.000 65.064,203.167 64.403,202.150 63.834 L 200.299 62.800 168.450 62.827 L 136.600 62.853 134.800 64.156 M200.346 64.622 L 203.090 64.893 203.286 67.746 C 203.660 73.221,203.108 79.721,202.319 79.119 C 201.562 78.542,201.246 75.015,201.780 73.100 C 202.023 72.229,201.953 72.000,201.443 72.000 C 201.090 72.000,200.800 71.786,200.800 71.524 C 200.800 71.261,200.536 71.396,200.213 71.824 C 199.660 72.554,199.625 72.517,199.619 71.200 C 199.611 69.454,199.917 68.964,201.359 68.416 L 202.501 67.981 201.589 67.191 C 200.734 66.449,199.811 66.200,198.400 66.329 C 198.070 66.359,186.370 66.343,172.400 66.292 C 145.436 66.194,136.747 66.267,135.314 66.601 L 134.429 66.808 134.408 96.153 L 134.387 125.497 135.593 125.739 C 136.785 125.977,137.215 126.896,136.377 127.414 C 135.703 127.831,134.000 127.242,134.000 126.592 C 134.000 126.267,133.730 126.000,133.400 126.000 C 132.314 126.000,132.513 66.968,133.600 66.684 C 134.051 66.566,134.400 66.138,134.400 65.704 C 134.400 65.280,134.494 64.839,134.610 64.724 C 134.926 64.407,197.188 64.311,200.346 64.622 M201.600 69.400 C 201.192 69.891,201.220 70.000,201.751 70.000 C 202.108 70.000,202.400 69.730,202.400 69.400 C 202.400 69.070,202.332 68.800,202.249 68.800 C 202.166 68.800,201.874 69.070,201.600 69.400 M201.114 85.700 C 201.004 89.659,200.968 89.805,200.062 89.933 C 199.251 90.048,199.150 90.237,199.324 91.333 C 199.802 94.353,199.069 99.018,198.246 98.192 C 197.315 97.257,197.594 89.259,198.578 88.708 C 198.906 88.525,199.230 87.269,199.404 85.503 C 199.945 79.993,201.268 80.145,201.114 85.700 M236.800 88.394 C 232.081 88.654,230.705 88.870,229.415 89.557 C 228.544 90.020,227.374 90.401,226.815 90.402 C 226.257 90.404,225.260 90.699,224.600 91.059 C 223.940 91.418,222.852 92.002,222.182 92.356 C 219.412 93.820,212.800 100.024,212.800 101.158 C 212.800 101.340,212.358 102.140,211.818 102.936 C 211.277 103.732,210.652 105.062,210.428 105.892 C 210.203 106.721,209.747 107.788,209.414 108.262 C 209.081 108.736,208.608 110.086,208.364 111.262 C 208.120 112.438,207.696 113.760,207.421 114.200 C 207.146 114.640,206.693 115.990,206.413 117.200 C 206.134 118.410,205.678 119.940,205.400 120.600 C 204.592 122.519,203.207 126.799,202.552 129.400 C 202.220 130.720,201.714 132.162,201.428 132.604 C 201.142 133.046,200.703 134.360,200.454 135.524 C 200.204 136.688,199.751 138.126,199.447 138.720 C 199.142 139.314,198.666 140.880,198.389 142.200 C 198.111 143.520,197.670 144.960,197.408 145.400 C 197.146 145.840,196.728 147.010,196.480 148.000 C 196.231 148.990,195.662 150.513,195.214 151.385 C 194.766 152.256,194.400 153.266,194.400 153.629 C 194.400 153.992,193.950 154.951,193.400 155.762 C 192.850 156.572,192.400 157.379,192.400 157.554 C 192.400 158.632,185.762 165.249,183.765 166.163 C 182.904 166.557,181.480 167.207,180.600 167.608 C 177.950 168.814,171.598 169.200,154.389 169.200 C 130.160 169.200,131.892 167.860,132.078 186.462 L 132.200 198.693 133.600 200.047 L 135.000 201.400 200.932 201.400 C 260.676 201.400,266.908 201.340,267.332 200.765 C 267.590 200.416,268.171 199.933,268.625 199.691 C 270.371 198.762,270.400 197.880,270.400 145.236 C 270.400 90.774,270.440 91.771,268.175 89.575 L 266.847 88.289 254.724 88.181 C 248.056 88.122,239.990 88.218,236.800 88.394 M266.400 88.967 C 266.400 89.059,266.509 89.419,266.643 89.767 C 267.011 90.727,236.789 90.732,235.829 89.771 C 235.483 89.426,235.200 89.066,235.200 88.971 C 235.200 88.877,242.220 88.800,250.800 88.800 C 259.380 88.800,266.400 88.875,266.400 88.967 M235.561 91.447 C 235.309 91.751,234.643 92.000,234.083 92.000 C 233.522 92.000,232.734 92.298,232.331 92.662 C 231.644 93.284,231.600 93.271,231.600 92.438 C 231.600 91.951,231.455 91.642,231.278 91.752 C 231.101 91.861,230.246 92.038,229.378 92.145 C 227.287 92.402,226.400 92.775,226.400 93.396 C 226.400 93.953,224.861 94.617,223.257 94.754 C 222.959 94.779,222.810 95.050,222.927 95.355 C 223.073 95.736,222.913 95.850,222.415 95.720 C 222.017 95.616,221.569 95.726,221.422 95.965 C 220.915 96.784,218.800 96.490,218.800 95.600 C 218.800 94.871,220.064 94.500,221.693 94.750 C 221.854 94.775,222.092 94.374,222.221 93.859 C 222.406 93.121,222.851 92.847,224.328 92.562 C 225.564 92.323,226.200 91.996,226.200 91.600 C 226.200 91.115,227.044 90.962,230.600 90.800 C 235.661 90.570,236.228 90.644,235.561 91.447 M269.101 144.882 L 269.000 198.964 268.000 199.215 C 267.450 199.353,266.795 199.394,266.544 199.307 C 266.057 199.138,266.286 197.600,266.798 197.600 C 267.366 197.600,267.864 194.625,267.518 193.303 C 267.240 192.242,267.313 95.177,267.593 93.200 C 267.639 92.870,267.549 92.195,267.392 91.700 C 267.146 90.923,267.250 90.800,268.155 90.800 L 269.203 90.800 269.101 144.882 M265.200 93.153 C 265.200 93.348,264.840 93.601,264.400 93.716 C 263.859 93.857,263.600 94.262,263.600 94.963 C 263.600 96.090,263.232 96.272,262.477 95.517 C 262.101 95.141,262.237 94.799,263.097 93.961 C 264.207 92.879,265.200 92.498,265.200 93.153 M231.791 94.000 C 232.079 94.000,232.420 94.274,232.548 94.609 C 232.810 95.290,231.501 96.800,230.649 96.800 C 230.346 96.800,229.859 97.088,229.566 97.441 C 229.085 98.020,228.960 97.991,228.270 97.141 C 227.529 96.227,227.528 96.196,228.253 96.062 C 229.055 95.913,230.780 94.158,230.832 93.438 C 230.850 93.185,230.949 93.212,231.065 93.500 C 231.176 93.775,231.502 94.000,231.791 94.000 M218.554 97.376 C 218.432 97.693,217.898 98.237,217.366 98.585 C 216.703 99.020,216.400 99.591,216.400 100.409 C 216.400 101.064,216.199 101.600,215.953 101.600 C 215.708 101.600,215.597 101.947,215.708 102.370 C 215.849 102.910,215.744 103.077,215.355 102.927 C 215.015 102.797,214.800 102.980,214.800 103.400 C 214.800 103.845,215.010 104.005,215.400 103.855 C 216.105 103.585,216.238 104.802,215.576 105.464 C 215.124 105.916,212.747 105.606,212.780 105.100 C 212.791 104.935,212.800 104.170,212.800 103.400 C 212.800 102.269,212.953 102.000,213.595 102.000 C 214.214 102.000,214.447 101.644,214.646 100.400 C 214.861 99.055,215.053 98.800,215.851 98.800 C 216.597 98.800,216.800 98.586,216.800 97.800 C 216.800 97.003,217.001 96.800,217.787 96.800 C 218.483 96.800,218.709 96.971,218.554 97.376 M263.883 99.695 C 263.787 100.193,263.705 99.880,263.701 99.000 C 263.696 98.120,263.775 97.713,263.875 98.095 C 263.975 98.478,263.979 99.198,263.883 99.695 M191.552 101.458 C 191.203 101.878,190.962 101.900,190.542 101.552 C 190.122 101.203,190.100 100.962,190.448 100.542 C 190.797 100.122,191.038 100.100,191.458 100.448 C 191.878 100.797,191.900 101.038,191.552 101.458 M197.238 104.086 C 197.190 106.767,197.012 107.920,196.601 108.233 C 195.786 108.852,195.200 110.603,195.200 112.421 C 195.200 113.810,195.097 113.980,194.300 113.895 C 193.493 113.810,193.387 113.998,193.277 115.725 C 193.178 117.277,193.024 117.625,192.482 117.520 C 191.457 117.323,191.422 116.038,192.404 114.708 C 193.127 113.732,193.279 113.015,193.245 110.758 C 193.213 108.665,193.335 108.000,193.752 108.000 C 194.777 108.000,195.364 106.728,195.425 104.377 C 195.481 102.204,196.512 99.579,197.085 100.151 C 197.206 100.273,197.275 102.044,197.238 104.086 M263.900 165.300 C 263.841 177.015,263.793 167.430,263.793 144.000 C 263.793 120.570,263.841 110.985,263.900 122.700 C 263.959 134.415,263.959 153.585,263.900 165.300 M212.441 106.739 C 212.750 108.248,213.589 109.301,213.872 108.535 C 214.186 107.685,215.953 106.000,216.532 106.000 C 217.534 106.000,218.094 107.024,217.405 107.596 C 217.063 107.880,216.779 108.814,216.753 109.749 C 216.708 111.320,216.690 111.342,216.400 110.200 C 216.101 109.025,216.094 109.022,216.047 110.051 C 215.998 111.137,215.127 112.194,214.663 111.730 C 214.518 111.585,214.400 111.632,214.399 111.833 C 214.399 112.035,213.859 112.238,213.199 112.284 C 212.417 112.339,212.000 112.180,212.000 111.827 C 212.000 111.238,210.919 110.659,210.675 111.117 C 210.592 111.273,210.487 112.277,210.441 113.350 C 210.369 115.053,209.745 116.400,209.029 116.400 C 208.903 116.400,208.800 115.140,208.800 113.600 C 208.800 111.067,208.876 110.800,209.600 110.800 C 210.040 110.800,210.423 110.620,210.450 110.400 C 210.478 110.180,210.545 109.820,210.600 109.600 C 210.655 109.380,210.722 108.287,210.750 107.171 C 210.810 104.734,211.971 104.438,212.441 106.739 M191.749 111.669 C 192.041 113.223,191.686 113.761,190.636 113.359 C 189.824 113.047,189.710 107.252,190.500 106.457 C 190.900 106.054,191.047 106.377,191.237 108.077 C 191.367 109.245,191.597 110.861,191.749 111.669 M207.839 117.106 C 209.094 117.947,208.719 123.200,207.404 123.200 C 207.057 123.200,206.745 123.782,206.600 124.700 C 205.822 129.644,204.800 130.287,204.800 125.833 C 204.800 123.040,204.951 122.633,205.900 122.877 C 206.299 122.980,206.694 121.046,206.753 118.700 C 206.800 116.817,206.990 116.538,207.839 117.106 M191.200 118.600 C 191.200 119.333,190.987 119.600,190.400 119.600 C 189.509 119.600,189.344 118.816,190.080 118.080 C 190.826 117.334,191.200 117.508,191.200 118.600 M183.555 119.228 C 182.747 119.727,181.896 119.207,182.443 118.548 C 182.802 118.116,183.034 118.096,183.472 118.460 C 183.902 118.816,183.922 119.001,183.555 119.228 M188.621 119.369 C 189.955 119.704,189.864 121.334,188.500 121.528 C 187.922 121.610,187.600 121.932,187.600 122.428 C 187.600 123.014,187.319 123.200,186.437 123.200 C 185.472 123.200,185.310 123.064,185.484 122.400 C 185.619 121.882,186.030 121.600,186.647 121.600 C 187.407 121.600,187.600 121.389,187.600 120.557 C 187.600 119.634,187.480 119.543,186.566 119.773 C 185.514 120.037,185.507 119.795,186.532 118.475 C 186.866 118.045,186.999 118.055,187.265 118.530 C 187.444 118.849,188.054 119.227,188.621 119.369 M184.567 123.843 C 185.945 124.371,185.232 125.200,183.400 125.200 C 181.404 125.200,181.324 125.133,182.229 124.229 C 182.899 123.558,183.547 123.451,184.567 123.843 M179.900 126.069 C 182.967 126.996,179.727 127.444,171.200 127.271 C 169.715 127.241,169.575 127.294,170.400 127.577 C 171.358 127.906,171.346 127.922,170.100 127.960 C 169.229 127.987,168.800 128.198,168.800 128.600 C 168.800 129.123,166.756 129.200,152.800 129.200 C 139.747 129.200,136.800 129.102,136.800 128.668 C 136.800 127.836,138.615 127.063,139.943 127.329 C 140.781 127.496,141.420 127.342,142.098 126.809 C 143.003 126.097,144.034 126.046,159.018 125.968 C 167.795 125.922,175.431 125.760,175.988 125.609 C 177.036 125.325,177.694 125.402,179.900 126.069 M204.400 130.885 C 204.400 132.533,204.511 132.800,205.200 132.800 C 205.693 132.800,206.002 133.069,206.006 133.500 C 206.011 134.048,206.087 134.081,206.358 133.655 C 206.649 133.194,206.732 133.194,206.887 133.655 C 207.036 134.099,207.185 134.105,207.687 133.691 C 208.211 133.258,208.334 133.340,208.505 134.238 C 208.753 135.535,207.441 137.098,206.652 136.444 C 206.381 136.218,205.718 136.138,205.179 136.267 C 204.328 136.470,204.279 136.428,204.805 135.950 C 205.137 135.647,205.337 135.440,205.249 135.489 C 205.160 135.539,204.573 135.275,203.944 134.903 C 202.431 134.009,202.132 128.799,203.600 128.910 C 204.280 128.961,204.400 129.257,204.400 130.885 M207.774 130.758 C 207.896 130.955,207.726 131.219,207.398 131.346 C 207.035 131.485,206.800 131.344,206.800 130.987 C 206.800 130.340,207.425 130.193,207.774 130.758 M202.237 136.605 C 202.581 137.974,202.082 141.034,201.427 141.578 C 200.679 142.198,200.539 141.551,200.719 138.300 C 200.875 135.469,201.716 134.530,202.237 136.605 M200.295 142.327 C 200.649 142.552,200.687 142.999,200.428 143.903 C 200.229 144.597,200.143 145.578,200.237 146.083 C 200.332 146.587,200.299 146.767,200.166 146.483 C 199.979 146.087,199.792 146.075,199.361 146.432 C 198.890 146.823,198.800 146.505,198.800 144.449 C 198.800 141.998,199.102 141.569,200.295 142.327 M198.157 148.633 C 198.291 148.981,198.400 149.959,198.400 150.806 C 198.400 151.928,198.592 152.407,199.108 152.571 C 199.606 152.729,199.954 153.520,200.280 155.235 C 200.535 156.577,201.028 157.988,201.375 158.372 C 201.952 159.010,201.943 159.127,201.272 159.735 C 200.218 160.688,200.103 160.588,200.204 158.804 C 200.301 157.078,199.603 155.704,198.861 156.162 C 198.607 156.319,198.387 157.382,198.372 158.524 C 198.353 159.896,198.241 160.339,198.042 159.829 C 197.772 159.140,197.713 159.129,197.483 159.729 C 197.341 160.098,196.825 160.400,196.336 160.400 C 195.493 160.400,195.485 160.372,196.184 159.861 C 196.646 159.523,196.763 159.225,196.498 159.061 C 196.265 158.917,196.165 158.457,196.274 158.038 C 196.420 157.481,196.276 157.293,195.737 157.338 C 195.131 157.389,194.978 157.062,194.878 155.500 C 194.783 154.013,194.888 153.600,195.364 153.600 C 196.275 153.600,196.800 152.293,196.800 150.026 C 196.800 147.988,197.596 147.170,198.157 148.633 M196.800 154.770 C 196.800 155.752,197.202 156.800,197.579 156.800 C 197.981 156.800,198.884 154.751,198.605 154.471 C 197.984 153.851,196.800 154.047,196.800 154.770 M199.356 157.800 C 199.552 158.676,199.515 158.838,199.218 158.400 C 198.995 158.070,198.809 157.455,198.806 157.033 C 198.798 156.010,199.027 156.329,199.356 157.800 M194.335 158.759 C 194.457 159.618,193.883 160.378,193.100 160.394 C 192.935 160.397,192.800 159.757,192.800 158.971 C 192.800 157.289,194.101 157.110,194.335 158.759 M192.400 161.301 C 192.400 161.896,190.496 163.743,189.500 164.114 C 188.982 164.307,188.800 164.170,188.800 163.587 C 188.800 163.014,189.072 162.800,189.800 162.800 C 190.600 162.800,190.800 162.600,190.800 161.800 C 190.800 161.067,191.013 160.800,191.600 160.800 C 192.040 160.800,192.400 161.026,192.400 161.301 M188.400 165.557 C 188.400 166.317,187.487 166.953,187.039 166.506 C 186.465 165.932,186.837 164.800,187.600 164.800 C 188.118 164.800,188.400 165.067,188.400 165.557 M192.151 167.511 C 191.913 167.890,191.223 168.259,190.617 168.331 C 189.983 168.406,189.616 168.298,189.753 168.076 C 189.884 167.864,189.596 167.588,189.113 167.461 C 187.920 167.149,188.325 166.857,190.115 166.736 C 190.932 166.681,191.600 166.457,191.600 166.238 C 191.600 166.019,191.821 166.061,192.091 166.331 C 192.451 166.691,192.467 167.006,192.151 167.511 M186.400 167.186 C 186.400 167.681,185.063 168.400,184.141 168.400 C 183.750 168.400,183.063 168.840,182.615 169.378 C 181.670 170.512,179.256 170.876,178.245 170.037 C 177.098 169.085,177.549 168.800,180.200 168.800 C 182.707 168.800,182.800 168.764,182.800 167.800 C 182.800 166.881,182.947 166.800,184.600 166.800 C 185.590 166.800,186.400 166.974,186.400 167.186 M175.988 170.784 C 177.830 171.949,169.363 172.767,155.271 172.786 C 145.801 172.798,144.257 172.885,143.703 173.440 C 143.117 174.026,143.008 174.006,142.396 173.194 C 141.704 172.277,135.796 172.071,134.932 172.935 C 134.749 173.117,134.556 178.721,134.501 185.388 L 134.402 197.510 135.401 198.164 C 136.567 198.928,136.813 200.262,135.700 199.786 C 135.315 199.622,134.505 199.402,133.900 199.298 L 132.800 199.109 132.800 186.001 C 132.800 173.073,132.811 172.890,133.630 172.676 C 134.086 172.557,134.557 172.088,134.675 171.633 C 134.890 170.814,135.062 170.806,154.946 170.700 C 165.976 170.641,175.090 170.552,175.200 170.502 C 175.310 170.453,175.665 170.580,175.988 170.784 M170.935 174.583 C 171.875 174.790,171.987 174.933,171.586 175.416 C 170.982 176.145,169.046 176.178,168.458 175.470 C 167.955 174.863,168.581 173.968,169.349 174.198 C 169.597 174.272,170.311 174.446,170.935 174.583 M141.564 175.443 C 140.966 176.164,139.032 176.161,138.432 175.439 C 137.831 174.715,138.342 174.535,140.438 174.735 C 141.741 174.859,141.943 174.986,141.564 175.443 M263.883 189.695 C 263.787 190.193,263.705 189.880,263.701 189.000 C 263.696 188.120,263.775 187.713,263.875 188.095 C 263.975 188.478,263.979 189.198,263.883 189.695 M263.518 195.651 C 262.782 196.106,262.000 195.248,262.000 193.984 C 262.000 192.325,262.919 192.295,263.505 193.935 C 263.902 195.049,263.905 195.411,263.518 195.651 M265.314 193.208 C 265.144 193.857,264.990 193.923,264.532 193.544 C 264.072 193.161,264.062 193.007,264.481 192.741 C 265.311 192.215,265.540 192.343,265.314 193.208 M259.918 199.077 C 260.708 200.162,262.000 199.759,262.000 198.429 C 262.000 198.193,262.270 198.000,262.600 198.000 C 262.930 198.000,263.200 198.347,263.200 198.771 C 263.200 199.195,263.674 199.915,264.254 200.371 L 265.308 201.200 200.854 201.200 C 149.559 201.200,136.399 201.098,136.396 200.700 C 136.394 200.425,136.979 199.710,137.696 199.111 L 139.000 198.022 199.067 198.011 L 259.133 198.000 259.918 199.077 " stroke="none" fill="#768cb2" fill-rule="evenodd"></path><path id="path4" d="M136.613 61.889 C 134.810 62.164,132.409 64.302,131.350 66.576 L 130.408 68.600 130.408 96.400 L 130.408 124.200 131.347 126.200 C 133.486 130.753,133.532 130.763,153.400 130.775 C 174.619 130.787,179.128 130.190,185.546 126.519 C 193.695 121.859,197.467 115.173,200.623 99.800 C 203.002 88.212,203.648 85.191,205.116 78.800 C 207.249 69.510,206.559 65.256,202.509 62.738 L 201.000 61.800 169.400 61.754 C 152.020 61.729,137.266 61.790,136.613 61.889 M202.150 63.834 C 203.167 64.403,204.000 65.064,204.000 65.303 C 204.000 65.542,204.311 66.080,204.691 66.500 C 205.508 67.404,205.629 72.450,204.868 73.874 C 204.613 74.349,204.120 76.598,203.772 78.869 C 203.425 81.141,202.890 83.720,202.585 84.600 C 202.280 85.480,201.832 87.640,201.591 89.400 C 201.349 91.160,200.903 93.146,200.598 93.814 C 200.293 94.482,199.848 96.642,199.608 98.614 C 199.368 100.586,198.930 102.740,198.634 103.400 C 198.338 104.060,197.873 106.085,197.599 107.900 C 197.326 109.715,196.959 111.200,196.784 111.200 C 196.609 111.200,196.142 112.055,195.746 113.100 C 194.047 117.583,190.852 121.568,186.800 124.259 C 185.590 125.062,184.139 126.032,183.576 126.415 C 183.013 126.798,181.483 127.330,180.176 127.596 C 178.869 127.862,177.170 128.377,176.400 128.740 C 175.158 129.326,172.771 129.400,155.200 129.400 L 135.400 129.400 134.108 128.147 C 131.957 126.061,131.998 126.689,132.023 96.474 C 132.048 64.947,131.938 66.228,134.800 64.156 L 136.600 62.853 168.450 62.827 L 200.299 62.800 202.150 63.834 M238.400 87.048 C 231.585 87.770,229.044 88.225,226.422 89.192 C 219.575 91.718,215.560 95.029,211.134 101.800 C 209.503 104.294,207.800 108.588,205.976 114.800 C 205.556 116.230,204.956 118.030,204.642 118.800 C 204.328 119.570,203.503 122.090,202.809 124.400 C 202.114 126.710,201.219 129.500,200.819 130.600 C 199.720 133.628,197.600 140.384,197.600 140.859 C 197.600 141.090,197.331 141.846,197.002 142.540 C 196.673 143.233,196.057 144.970,195.633 146.400 C 192.135 158.197,188.146 163.294,179.921 166.479 L 176.600 167.765 156.400 167.982 L 136.200 168.200 134.282 169.348 C 130.605 171.551,130.398 172.422,130.409 185.687 L 130.419 197.000 131.509 198.982 C 133.713 202.987,126.298 202.585,200.140 202.705 C 274.003 202.824,267.952 203.176,270.803 198.600 L 271.800 197.000 271.800 145.000 L 271.800 93.000 270.939 91.400 C 269.912 89.491,268.633 88.239,267.000 87.540 C 265.856 87.051,242.209 86.644,238.400 87.048 M268.175 89.575 C 270.440 91.771,270.400 90.774,270.400 145.236 C 270.400 197.880,270.371 198.762,268.625 199.691 C 268.171 199.933,267.590 200.416,267.332 200.765 C 266.908 201.340,260.676 201.400,200.932 201.400 L 135.000 201.400 133.600 200.047 L 132.200 198.693 132.078 186.462 C 131.892 167.860,130.160 169.200,154.389 169.200 C 171.598 169.200,177.950 168.814,180.600 167.608 C 181.480 167.207,182.904 166.557,183.765 166.163 C 185.762 165.249,192.400 158.632,192.400 157.554 C 192.400 157.379,192.850 156.572,193.400 155.762 C 193.950 154.951,194.400 153.992,194.400 153.629 C 194.400 153.266,194.766 152.256,195.214 151.385 C 195.662 150.513,196.231 148.990,196.480 148.000 C 196.728 147.010,197.146 145.840,197.408 145.400 C 197.670 144.960,198.111 143.520,198.389 142.200 C 198.666 140.880,199.142 139.314,199.447 138.720 C 199.751 138.126,200.204 136.688,200.454 135.524 C 200.703 134.360,201.142 133.046,201.428 132.604 C 201.714 132.162,202.220 130.720,202.552 129.400 C 203.207 126.799,204.592 122.519,205.400 120.600 C 205.678 119.940,206.134 118.410,206.413 117.200 C 206.693 115.990,207.146 114.640,207.421 114.200 C 207.696 113.760,208.120 112.438,208.364 111.262 C 208.608 110.086,209.081 108.736,209.414 108.262 C 209.747 107.788,210.203 106.721,210.428 105.892 C 210.652 105.062,211.277 103.732,211.818 102.936 C 212.358 102.140,212.800 101.340,212.800 101.158 C 212.800 100.024,219.412 93.820,222.182 92.356 C 222.852 92.002,223.940 91.418,224.600 91.059 C 225.260 90.699,226.257 90.404,226.815 90.402 C 227.374 90.401,228.544 90.020,229.415 89.557 C 231.535 88.428,238.695 88.039,254.724 88.181 L 266.847 88.289 268.175 89.575 M325.182 211.602 C 324.183 211.772,322.655 212.290,321.788 212.755 C 320.921 213.220,319.993 213.600,319.727 213.600 C 319.460 213.600,318.756 214.050,318.162 214.600 C 317.569 215.150,316.915 215.600,316.710 215.600 C 316.356 215.600,314.489 217.468,312.478 219.832 C 311.971 220.429,311.454 221.430,311.328 222.058 C 311.203 222.686,310.960 223.200,310.789 223.200 C 309.932 223.200,309.479 226.327,309.299 233.500 L 309.105 241.200 304.953 241.200 C 299.186 241.200,299.087 241.309,299.266 247.449 C 299.426 252.931,299.290 252.786,304.267 252.794 C 306.284 252.797,308.219 252.909,308.567 253.043 C 309.136 253.261,309.200 256.013,309.200 280.043 C 309.200 311.763,308.504 308.421,315.100 308.360 C 323.084 308.286,322.369 311.076,322.370 280.000 C 322.371 266.250,322.378 254.505,322.386 253.900 L 322.400 252.800 326.920 252.800 C 332.601 252.800,332.402 253.003,332.394 247.220 C 332.386 241.170,332.604 241.414,327.126 241.334 C 321.674 241.255,321.925 241.648,322.368 233.873 C 322.688 228.249,322.693 228.232,325.230 225.563 C 326.068 224.680,326.758 224.425,328.941 224.192 C 332.620 223.798,332.800 223.485,332.800 217.485 C 332.800 210.825,332.254 210.404,325.182 211.602 M331.520 212.104 C 332.163 212.878,332.308 221.747,331.690 222.492 C 331.413 222.826,330.280 223.219,329.172 223.366 C 323.397 224.132,321.483 227.215,321.430 235.836 C 321.391 242.114,321.295 241.998,326.549 242.006 C 331.903 242.014,331.772 241.894,331.934 246.907 C 332.106 252.198,332.128 252.176,326.490 252.269 C 324.009 252.310,322.118 252.522,321.851 252.789 C 321.527 253.113,321.376 260.715,321.316 279.720 L 321.231 306.200 320.371 306.900 C 319.463 307.640,311.963 307.946,310.925 307.286 C 309.676 306.491,309.585 304.543,309.609 278.942 C 309.622 264.771,309.525 253.002,309.393 252.788 C 309.261 252.575,307.555 252.400,305.602 252.400 C 299.933 252.400,300.000 252.462,300.000 247.259 C 300.000 241.928,299.869 242.062,305.223 241.915 L 309.400 241.800 309.645 235.000 C 310.038 224.113,311.961 219.582,317.886 215.584 C 321.898 212.876,330.367 210.715,331.520 212.104 M80.834 213.637 C 76.677 215.299,74.072 222.896,76.700 225.694 C 77.195 226.220,77.600 226.861,77.600 227.117 C 77.600 227.372,78.095 227.897,78.700 228.282 C 79.305 228.667,79.890 229.094,80.000 229.231 C 81.125 230.633,86.485 230.877,88.109 229.600 C 88.669 229.160,89.293 228.800,89.496 228.800 C 91.481 228.800,93.362 222.924,92.629 219.014 C 91.825 214.729,85.413 211.806,80.834 213.637 M88.262 214.604 C 97.040 220.356,89.696 233.943,80.680 228.631 C 74.749 225.138,75.376 216.655,81.752 214.100 C 83.263 213.495,87.013 213.785,88.262 214.604 M128.705 239.971 C 127.443 240.148,126.183 240.477,125.905 240.702 C 125.627 240.927,124.279 241.238,122.910 241.394 C 121.540 241.549,119.780 242.002,118.998 242.401 C 118.216 242.800,116.676 243.342,115.575 243.606 C 112.118 244.435,111.894 246.626,114.799 251.200 C 115.009 251.530,115.432 252.441,115.739 253.225 C 116.474 255.104,118.639 256.270,119.666 255.341 C 120.038 255.004,121.118 254.554,122.065 254.341 C 123.013 254.128,124.061 253.714,124.394 253.421 C 125.776 252.205,137.204 251.572,142.800 252.401 C 146.569 252.959,152.000 256.081,152.000 257.688 C 152.000 257.921,152.298 258.330,152.663 258.597 C 153.184 258.977,153.366 259.983,153.513 263.286 C 153.720 267.931,153.453 268.544,151.900 266.991 C 151.352 266.443,150.295 265.783,149.552 265.524 C 148.808 265.266,147.975 264.830,147.700 264.556 C 147.425 264.282,146.165 263.843,144.900 263.582 C 143.635 263.320,142.033 262.857,141.340 262.553 C 139.577 261.780,129.421 261.785,127.936 262.560 C 127.351 262.865,125.911 263.246,124.736 263.405 C 123.561 263.565,121.791 264.124,120.803 264.648 C 119.815 265.172,118.790 265.600,118.526 265.600 C 118.262 265.600,117.810 265.934,117.523 266.343 C 117.235 266.751,116.552 267.227,116.004 267.400 C 114.828 267.772,109.730 272.955,109.352 274.164 C 109.208 274.624,108.770 275.410,108.378 275.912 C 107.987 276.413,107.543 277.553,107.392 278.444 C 107.242 279.336,106.868 280.546,106.562 281.133 C 105.788 282.616,105.815 288.636,106.602 290.146 C 106.931 290.776,107.201 291.496,107.202 291.746 C 107.208 292.858,108.074 295.163,108.803 296.003 C 109.241 296.509,109.600 297.163,109.600 297.458 C 109.600 297.752,109.960 298.218,110.400 298.493 C 110.840 298.768,111.200 299.183,111.200 299.415 C 111.200 299.992,114.117 302.800,114.717 302.800 C 114.983 302.800,115.200 303.037,115.200 303.326 C 115.200 303.615,115.785 304.161,116.500 304.539 C 117.215 304.917,118.250 305.479,118.800 305.788 C 121.721 307.432,123.709 308.156,126.600 308.627 C 128.360 308.914,130.520 309.336,131.400 309.565 C 133.449 310.098,136.558 310.097,138.600 309.563 C 139.480 309.332,141.500 308.919,143.088 308.645 C 144.677 308.370,146.309 307.845,146.715 307.477 C 147.120 307.110,148.040 306.692,148.758 306.548 C 149.476 306.405,150.273 305.953,150.528 305.544 C 150.783 305.135,151.160 304.800,151.365 304.800 C 151.569 304.800,152.082 304.487,152.505 304.105 C 153.348 303.342,154.388 304.146,154.409 305.576 C 154.444 308.021,163.215 309.778,165.800 307.858 C 167.484 306.608,166.899 254.400,165.201 254.400 C 165.015 254.400,164.749 253.877,164.608 253.238 C 164.009 250.508,157.423 244.399,154.000 243.398 C 153.450 243.237,152.716 242.857,152.369 242.553 C 152.022 242.249,150.672 241.802,149.369 241.559 C 148.066 241.316,146.389 240.845,145.642 240.512 C 144.061 239.808,132.500 239.439,128.705 239.971 M213.121 239.954 C 212.307 240.126,211.407 240.451,211.121 240.676 C 210.834 240.901,209.701 241.304,208.601 241.573 C 207.502 241.842,206.280 242.407,205.886 242.831 C 205.491 243.254,204.915 243.600,204.604 243.600 C 204.294 243.600,203.875 243.894,203.674 244.253 C 203.473 244.613,202.744 245.144,202.054 245.434 L 200.800 245.961 200.800 243.971 C 200.800 242.168,200.696 241.941,199.700 241.560 C 198.104 240.951,189.495 241.254,188.660 241.949 C 187.952 242.538,187.615 305.976,188.314 307.075 C 189.216 308.492,198.120 309.032,199.911 307.777 L 200.800 307.155 200.796 287.677 L 200.793 268.200 201.857 263.600 C 202.585 260.451,203.154 258.835,203.660 258.477 C 204.067 258.190,204.400 257.740,204.400 257.477 C 204.400 256.889,206.753 254.975,208.275 254.325 C 208.894 254.061,209.734 253.565,210.142 253.223 C 211.601 251.998,220.641 252.346,222.556 253.700 C 223.412 254.305,224.357 254.800,224.656 254.800 C 224.955 254.800,225.200 255.001,225.200 255.247 C 225.200 255.493,225.740 256.309,226.400 257.061 C 227.060 257.813,227.600 258.694,227.600 259.018 C 227.600 259.343,227.956 260.372,228.391 261.304 C 229.145 262.919,229.188 264.043,229.291 284.886 C 229.393 305.288,229.448 306.820,230.115 307.486 C 231.030 308.400,240.796 308.564,241.680 307.681 C 242.089 307.272,242.243 302.397,242.400 284.822 C 242.577 265.056,242.674 262.398,243.243 261.742 C 243.597 261.334,244.069 260.456,244.291 259.791 C 244.885 258.013,247.415 255.386,249.964 253.902 C 252.973 252.150,261.885 251.885,263.500 253.500 C 263.995 253.995,264.548 254.400,264.728 254.400 C 265.250 254.400,267.600 256.625,267.600 257.120 C 267.600 257.367,267.939 257.891,268.353 258.284 C 269.958 259.809,270.121 262.033,270.270 284.581 C 270.426 307.932,270.401 307.684,272.576 308.230 C 274.741 308.773,282.338 308.236,283.087 307.486 C 283.982 306.590,284.419 265.703,283.569 262.400 C 283.314 261.410,282.869 259.277,282.579 257.661 C 282.290 256.044,281.797 254.424,281.483 254.061 C 281.170 253.697,280.706 252.784,280.453 252.030 C 279.939 250.500,279.923 250.480,276.181 246.661 C 274.705 245.155,272.954 243.733,272.289 243.501 C 271.624 243.270,270.766 242.766,270.382 242.382 C 269.999 241.999,268.905 241.553,267.951 241.392 C 266.998 241.231,265.771 240.807,265.226 240.449 C 263.781 239.503,251.834 239.495,250.382 240.439 C 249.842 240.791,248.454 241.304,247.297 241.580 C 246.141 241.856,245.061 242.298,244.897 242.564 C 244.734 242.830,244.008 243.286,243.285 243.578 C 242.561 243.871,241.796 244.433,241.585 244.828 C 241.374 245.223,240.841 245.660,240.400 245.800 C 239.960 245.940,239.600 246.317,239.600 246.640 C 239.600 246.962,239.323 247.331,238.985 247.461 C 238.647 247.591,238.085 248.249,237.736 248.925 C 237.129 250.098,237.077 250.118,236.572 249.376 C 234.939 246.976,231.780 243.600,231.167 243.600 C 230.982 243.600,230.509 243.259,230.116 242.841 C 229.722 242.424,228.590 241.849,227.600 241.564 C 226.610 241.279,225.387 240.784,224.882 240.465 C 223.826 239.797,215.556 239.438,213.121 239.954 M144.547 241.246 C 155.174 243.279,161.241 247.463,164.779 255.200 L 165.785 257.400 165.907 281.800 L 166.029 306.200 165.170 306.900 C 164.490 307.454,163.542 307.600,160.618 307.600 C 156.278 307.600,155.497 307.106,155.379 304.285 C 155.340 303.358,155.284 302.490,155.254 302.355 C 155.159 301.924,153.016 302.473,152.556 303.046 C 147.228 309.689,127.180 310.604,118.152 304.617 C 114.823 302.410,113.721 301.437,111.062 298.362 C 107.111 293.792,105.764 282.208,108.598 277.182 C 108.903 276.642,109.407 275.660,109.718 275.000 C 111.177 271.909,116.711 267.270,121.400 265.207 C 127.864 262.365,142.169 262.218,146.500 264.949 C 146.995 265.261,147.834 265.647,148.366 265.806 C 148.897 265.965,150.184 266.708,151.227 267.458 C 154.047 269.483,154.583 268.804,154.294 263.567 C 154.071 259.516,153.816 258.733,151.936 256.335 C 147.721 250.956,130.843 249.048,123.064 253.070 C 119.009 255.167,117.335 254.933,116.003 252.080 C 115.520 251.046,114.782 249.570,114.363 248.800 C 112.828 245.980,113.634 244.948,118.600 243.373 C 127.805 240.453,136.625 239.730,144.547 241.246 M224.133 241.229 C 228.831 242.421,233.227 245.514,235.891 249.500 C 236.750 250.787,237.314 250.629,238.846 248.670 C 249.052 235.629,273.044 238.413,280.216 253.470 C 282.558 258.389,282.522 257.959,282.690 282.800 C 282.877 310.269,283.484 307.600,277.046 307.600 C 270.821 307.600,271.440 310.065,271.194 284.258 C 270.963 260.087,270.971 260.151,268.028 256.435 C 262.969 250.048,251.693 249.907,245.871 256.158 C 241.834 260.493,241.593 262.280,241.639 287.549 C 241.670 304.178,241.606 306.166,241.022 306.749 C 240.171 307.600,231.551 307.710,230.720 306.880 C 230.311 306.472,230.156 301.611,229.994 284.080 L 229.788 261.800 228.523 259.173 C 225.939 253.805,222.555 251.821,215.980 251.817 C 208.726 251.813,204.094 254.751,201.638 260.914 L 200.647 263.400 200.423 284.839 C 200.243 302.173,200.095 306.405,199.651 306.939 C 198.754 308.019,191.278 307.891,189.854 306.771 L 188.800 305.942 188.800 274.385 C 188.800 243.595,188.819 242.818,189.574 242.414 C 190.683 241.820,199.315 241.875,199.920 242.480 C 200.184 242.744,200.400 243.809,200.400 244.847 C 200.400 248.034,200.628 248.146,202.828 246.047 C 207.887 241.222,216.464 239.282,224.133 241.229 M79.142 241.651 C 77.564 242.229,77.611 240.993,77.605 282.140 C 77.599 324.630,77.768 321.916,74.978 324.366 C 73.984 325.238,73.058 325.610,71.349 325.824 C 67.584 326.294,67.200 326.935,67.200 332.753 C 67.200 338.772,67.354 338.998,71.168 338.612 C 74.384 338.286,76.800 337.689,76.800 337.220 C 76.800 337.028,77.491 336.754,78.335 336.611 C 81.264 336.116,88.400 329.876,88.400 327.810 C 88.400 327.667,88.895 326.527,89.500 325.275 L 90.600 323.000 90.717 282.800 L 90.835 242.600 89.973 241.900 C 88.994 241.105,81.125 240.924,79.142 241.651 M89.520 242.480 C 89.887 242.847,90.000 252.186,90.000 282.076 L 90.000 321.193 88.938 324.268 C 86.227 332.119,77.420 338.459,69.965 337.926 L 68.200 337.800 68.200 332.844 C 68.200 327.234,67.926 327.688,72.000 326.546 C 74.682 325.794,76.686 324.203,77.727 322.000 C 78.076 321.262,78.252 310.811,78.400 282.068 C 78.595 244.112,78.619 243.121,79.376 242.568 C 80.386 241.830,88.797 241.757,89.520 242.480 M133.400 273.404 C 133.180 273.482,131.720 273.749,130.156 273.999 C 122.644 275.199,117.982 281.826,119.762 288.774 C 121.604 295.964,129.332 299.329,141.160 298.093 C 158.480 296.282,159.839 276.521,142.833 273.760 C 139.715 273.254,134.396 273.053,133.400 273.404 M142.000 274.401 C 146.310 274.901,152.000 277.761,152.000 279.428 C 152.000 279.721,152.277 280.115,152.615 280.304 C 153.571 280.839,154.165 285.551,153.647 288.492 C 153.231 290.849,153.043 291.194,151.119 293.119 C 149.307 294.931,148.925 295.191,147.191 295.803 C 146.224 296.144,145.297 296.643,145.131 296.912 C 144.618 297.742,129.899 297.590,128.942 296.745 C 128.534 296.384,127.597 295.961,126.859 295.804 C 126.122 295.647,125.190 295.190,124.790 294.790 C 124.389 294.389,123.687 293.861,123.230 293.616 C 122.774 293.372,122.400 292.918,122.400 292.609 C 122.400 292.299,121.995 291.762,121.500 291.415 C 119.199 289.803,120.860 278.111,123.404 278.015 C 123.626 278.007,124.032 277.640,124.307 277.200 C 124.582 276.760,125.141 276.400,125.549 276.400 C 125.958 276.400,126.737 276.050,127.280 275.623 C 128.986 274.281,135.968 273.701,142.000 274.401 " stroke="none" fill="#7a7f8d" fill-rule="evenodd"></path></g></svg>